<svg width="48" height="48" viewBox="0 0 48 48" fill="none" xmlns="http://www.w3.org/2000/svg">
<path d="M48 24.0761C48 30.421 45.4795 36.5061 40.9927 40.9928C36.506 45.4794 30.4208 47.9999 24.0757 47.9999C23.3854 47.9999 22.7017 47.9702 22.025 47.911C17.3978 47.513 12.9863 45.7766 9.32909 42.9139C5.67185 40.0511 2.92691 36.186 1.42937 31.7897C-0.0683161 27.3934 -0.253959 22.6564 0.895164 18.1563C2.04414 13.6564 4.47821 9.58826 7.90029 6.44812C11.3222 3.30798 15.5842 1.23186 20.1662 0.472949C24.7483 -0.285966 29.452 0.305176 33.7037 2.17415C37.9556 4.04327 41.5713 7.10937 44.1099 10.9986C46.6484 14.8878 48.0001 19.4316 48 24.0761Z" fill="#FAF4E6"/>
<path d="M22.975 27.1322C22.975 27.1322 23.1561 24.5862 19.9015 21.7892C15.245 17.7902 14.7105 16.9107 18.5696 17.5358C22.4287 18.1607 25.2393 21.3949 25.2393 21.3949" fill="#FFCA28"/>
<path d="M14.8481 34.1683L14.7303 32.541L11.5183 32.7766C11.3589 32.7884 11.2107 32.8629 11.1063 32.9841C11.002 33.1052 10.9499 33.2627 10.9616 33.4221L10.9873 33.8405C10.9991 33.9999 11.0736 34.1483 11.1946 34.253C11.3156 34.3577 11.4732 34.4101 11.6327 34.3988L14.8481 34.1683Z" fill="#AC752C"/>
<path d="M14.8486 34.1683L14.7888 33.3555L10.9775 33.6338L10.9878 33.8405C10.9996 33.9999 11.0741 34.1483 11.1951 34.2529C11.3161 34.3576 11.4737 34.4101 11.6333 34.3987L14.8486 34.1683Z" fill="#7D551F"/>
<path d="M29.0343 28.6089C28.4721 28.0142 27.8302 27.5005 27.1269 27.0822C26.4438 26.6622 25.7131 26.3292 24.9958 25.9792C24.3624 25.6701 23.7869 25.3184 23.0972 25.1836L23.0031 25.3167C22.9707 25.3611 22.9365 25.4038 22.9058 25.4481C22.8358 25.549 22.7589 25.6478 22.6821 25.7487L22.6532 25.7862L22.5557 25.9125C22.5216 25.9569 22.4841 25.9996 22.4482 26.0441C22.3714 26.1431 22.2912 26.2387 22.2091 26.3327C21.9701 26.6178 21.7173 26.8962 21.4544 27.166C21.41 27.2126 21.3657 27.257 21.3213 27.2991C21.2512 27.3727 21.1794 27.4443 21.106 27.5126L20.9506 27.6611C20.8978 27.7123 20.8465 27.7601 20.7936 27.808L20.7594 27.8404C20.6808 27.9138 20.5989 27.9873 20.5153 28.0572L20.459 28.1067C20.4275 28.1376 20.3945 28.1667 20.36 28.1938L20.2609 28.2775C20.1754 28.3475 20.0901 28.4193 20.0081 28.4876C19.8902 28.5849 19.7656 28.6821 19.6427 28.7762C19.5197 28.8701 19.4446 28.928 19.3421 28.9998L19.2858 29.0392L19.0366 29.2098C18.9033 29.3039 18.7651 29.3961 18.625 29.4848C18.3405 29.6705 18.0467 29.8479 17.7439 30.0175C17.1973 30.3269 16.6322 30.6023 16.0516 30.8423C15.804 30.9481 15.5513 31.0472 15.2969 31.1395C15.1688 31.1854 15.0391 31.2316 14.9095 31.2744C14.7795 31.317 14.6823 31.3512 14.5679 31.3869C14.4107 31.4348 14.2553 31.4792 14.1 31.5235C14.0601 31.54 14.0214 31.5588 13.9838 31.58C13.9634 31.592 13.9395 31.6056 13.9139 31.6176L13.8745 31.6415L13.8353 31.6671C13.4763 31.8922 13.1958 32.2235 13.0328 32.6148C13.0328 32.6268 13.0328 32.6386 13.0191 32.6522C12.924 32.9167 12.8874 33.1988 12.9115 33.4788C12.9216 33.6386 12.948 33.7972 12.9901 33.9518C13.0179 34.0636 13.0597 34.1714 13.1147 34.2727C13.3167 34.6217 13.6265 34.8955 13.9975 35.0531C14.7523 35.4083 15.7359 35.475 16.3284 35.4766C18.8459 35.4356 21.3206 34.8178 23.562 33.6707C25.8035 32.5237 27.7521 30.8777 29.258 28.8599C29.1862 28.7778 29.1129 28.6941 29.0343 28.6089Z" fill="#FFB300"/>
<path d="M24.9898 25.9863C24.3563 25.6771 23.7809 25.3253 23.091 25.1904L22.9971 25.3237C22.9647 25.368 22.9305 25.4107 22.8998 25.4551C22.869 25.4995 22.8331 25.5438 22.7989 25.5865C22.765 25.6294 22.7172 25.6992 22.676 25.7573L22.647 25.7949L22.5497 25.9212C22.5156 25.9655 22.4779 26.0084 22.442 26.0528C22.4063 26.0971 22.3671 26.1416 22.3294 26.1877L22.2031 26.3414C22.1296 26.4284 22.0527 26.5122 21.9778 26.5992C21.964 26.6145 21.9504 26.6316 21.9351 26.6469L21.8274 26.7682C21.7472 26.8571 21.6669 26.9389 21.5832 27.0312L21.4483 27.1746C21.4039 27.2213 21.3595 27.2656 21.3152 27.3077C21.2435 27.3813 21.1718 27.4513 21.1 27.5212L20.9446 27.6698C20.8916 27.721 20.8405 27.7688 20.7875 27.8167L20.7533 27.8491C20.675 27.9225 20.5929 27.9943 20.5092 28.066L20.4528 28.1156L20.3538 28.2025L20.2548 28.2864C20.1694 28.3563 20.084 28.4279 20.0021 28.4962L19.7714 28.667L19.6365 28.7764C19.5375 28.8496 19.4385 28.9282 19.3361 29L19.2798 29.0392L19.0306 29.21C18.9654 29.2562 18.899 29.2971 18.8307 29.3415L18.6188 29.485C18.5165 29.5516 18.4141 29.613 18.3116 29.6779L18.1408 29.7769C18.0076 29.8589 17.871 29.9393 17.7361 30.0177L17.4594 30.1679L17.0445 30.3831L16.7577 30.5215C16.6154 30.5898 16.4702 30.6564 16.3223 30.7212L16.044 30.8425C15.8732 30.9108 15.7161 30.9774 15.5505 31.0389L15.3609 31.1105C15.337 31.1208 15.3097 31.1293 15.2891 31.1396C15.1612 31.1856 15.0313 31.2318 14.9016 31.2745L14.5602 31.3871C14.403 31.435 14.2477 31.4794 14.0922 31.5237C14.0523 31.5402 14.0136 31.559 13.9762 31.5802C13.9556 31.5922 13.9316 31.6058 13.9061 31.6178L13.8668 31.6417L13.8275 31.6673C13.4683 31.8924 13.188 32.2236 13.025 32.615C13.025 32.6268 13.0249 32.6388 13.0113 32.6524C12.9162 32.9169 12.8796 33.1989 12.9037 33.479C12.914 33.6388 12.9402 33.7974 12.9822 33.952H13.0097C13.6197 33.9569 14.2296 33.9278 14.8367 33.865C15.7182 33.7741 16.5909 33.6115 17.4458 33.3782C17.6422 33.327 17.8386 33.269 18.035 33.2074C21.4416 32.1512 24.4105 30.0121 26.4907 27.115C26.5625 27.0158 26.6309 26.9134 26.699 26.8127C26.1391 26.524 25.5619 26.256 24.9898 25.9863Z" fill="#FFD54F"/>
<path d="M29.6859 28.2593L26.4825 27.1323L22.6543 25.7868L22.6832 25.7493C22.7241 25.6929 22.767 25.6364 22.8062 25.5785C22.8455 25.5205 22.8728 25.4914 22.9069 25.447C22.9411 25.4027 22.9718 25.36 23.0042 25.3156C23.0884 25.2016 23.1705 25.0879 23.2501 24.974C23.3031 24.8989 23.3525 24.8203 23.4038 24.7452C23.5047 24.5898 23.6037 24.4361 23.6959 24.2791C23.7298 24.226 23.7624 24.1731 23.7949 24.1203L23.8239 24.0706L23.9947 23.7838C24.0516 23.6813 24.1084 23.5806 24.1655 23.4816L24.3464 23.1247C24.3959 23.0257 24.4471 22.925 24.495 22.8243C24.5428 22.7234 24.5957 22.609 24.6486 22.5015C24.6639 22.4656 24.6811 22.4315 24.6947 22.3973C24.7271 22.3255 24.758 22.2539 24.7887 22.1804V22.1652C24.8314 22.0592 24.8774 21.9551 24.9201 21.8475C24.9313 21.8242 24.941 21.8002 24.9491 21.7759L24.973 21.716C25.0021 21.6391 25.0277 21.5657 25.0551 21.4906C25.0825 21.4155 25.1044 21.3693 25.125 21.3095C25.1456 21.2498 25.1712 21.1865 25.1935 21.1252L25.2104 21.079C25.2224 21.0415 25.236 21.0023 25.248 20.9629C25.2599 20.9237 25.2736 20.8861 25.2855 20.8434C25.3709 20.5816 25.4512 20.3187 25.5263 20.0545C25.5622 19.9198 25.598 19.788 25.6321 19.6533C25.6818 19.462 25.7262 19.2708 25.7654 19.0744L25.779 19.0147C25.779 18.9975 25.779 18.9823 25.779 18.9669C25.8252 18.7414 25.8644 18.5143 25.9036 18.2838C25.9156 18.2069 25.9275 18.1301 25.9362 18.0534C25.9446 17.9764 25.9566 17.9013 25.9686 17.8227C25.9805 17.7442 25.9907 17.6521 26.001 17.5513C26.001 17.4949 26.0129 17.4419 26.0181 17.3805C26.0319 17.2832 26.0385 17.1825 26.0472 17.0817C26.0556 16.981 26.0625 16.9109 26.0693 16.8119C26.0796 16.6549 26.0864 16.496 26.095 16.3372C26.095 16.2569 26.095 16.1664 26.095 16.0929C26.095 16.0623 26.095 16.0316 26.095 16.0025C26.0967 15.9718 26.0967 15.9409 26.095 15.9102C26.095 15.8505 26.095 15.789 26.095 15.7294C26.095 15.6696 26.095 15.5893 26.095 15.5209C26.095 15.2887 26.0847 15.0598 26.0727 14.8277C26.0727 14.8157 26.0727 14.8037 26.0727 14.7918C26.0608 14.5818 26.0453 14.3701 26.0249 14.1566C25.9805 13.2841 25.6476 11.2537 25.8064 9.80917C25.8797 9.15171 26.0556 8.61387 26.4109 8.37992C26.4546 8.34888 26.5016 8.32253 26.5508 8.30134C26.6027 8.28392 26.6559 8.2703 26.7096 8.26045H26.7181C27.2057 8.19731 27.7002 8.29891 28.1234 8.54906C28.7361 8.90474 29.2759 9.37293 29.715 9.92864C31.5267 12.6459 32.489 15.8408 32.4792 19.1066C32.4695 22.3724 31.4881 25.5615 29.6603 28.268L29.6859 28.2593Z" fill="#FFD770"/>
<path d="M26.4825 27.1315C28.3648 24.5187 29.4394 21.4116 29.5733 18.1942C29.7071 14.977 28.8943 11.7912 27.2357 9.03124C27.1366 8.87073 27.0358 8.70857 26.9334 8.54973C26.8685 8.44903 26.7985 8.34819 26.7335 8.25098C26.6798 8.26082 26.6266 8.27444 26.5747 8.29186C26.5255 8.31306 26.4786 8.33941 26.4348 8.37045C26.0796 8.60787 25.9036 9.14223 25.8303 9.7997C25.6715 11.2374 26.001 13.2746 26.0488 14.1471C26.0693 14.3606 26.0847 14.5723 26.0967 14.7825C26.0967 14.7943 26.0967 14.8062 26.0967 14.8182C26.1086 15.0505 26.1171 15.2793 26.1189 15.5114C26.1189 15.5318 26.1189 15.5558 26.1189 15.5747V15.7403C26.1189 15.8001 26.1189 15.8615 26.1189 15.9213C26.1206 15.952 26.1206 15.9828 26.1189 16.0135C26.1189 16.0426 26.1189 16.0733 26.1189 16.1039C26.1189 16.186 26.1189 16.2747 26.1189 16.3481C26.1103 16.507 26.1035 16.6658 26.0932 16.8228C26.0932 16.9134 26.0812 17.0039 26.0711 17.0927C26.0608 17.1816 26.0523 17.2942 26.042 17.3914C26.042 17.4479 26.03 17.5007 26.0249 17.5622C26.0146 17.6546 26.0045 17.7448 25.9925 17.8339C25.9805 17.9226 25.9702 17.9892 25.9601 18.0643C25.9498 18.1394 25.9395 18.2179 25.9275 18.2948C25.8883 18.5202 25.8491 18.7474 25.8029 18.9778C25.8029 18.9933 25.8029 19.0084 25.8029 19.0257L25.7893 19.0855C25.7501 19.2817 25.7057 19.473 25.656 19.6642C25.622 19.7991 25.5861 19.9306 25.5502 20.0655C25.4751 20.3308 25.3948 20.5938 25.3094 20.8544C25.2975 20.8971 25.2855 20.9346 25.2719 20.974C25.2583 21.0132 25.2463 21.0526 25.2343 21.09L25.2172 21.1362C25.195 21.1977 25.1729 21.2591 25.1489 21.3206C25.125 21.3821 25.1029 21.4419 25.079 21.5016C25.0551 21.5614 25.026 21.6501 24.9969 21.727L24.973 21.7868C24.965 21.8112 24.9553 21.8351 24.9441 21.8584C24.9014 21.9661 24.8553 22.0703 24.8126 22.1761V22.1914C24.7817 22.2649 24.751 22.3366 24.7186 22.4083C24.705 22.4425 24.6879 22.4765 24.6726 22.5124C24.6196 22.6199 24.5701 22.7294 24.5189 22.8353C24.4677 22.9411 24.4199 23.0366 24.3703 23.1357L24.1892 23.4926C24.1323 23.5916 24.0755 23.6923 24.0186 23.7948L23.8478 24.0817L23.7949 24.1073C23.7624 24.1603 23.7298 24.2132 23.6959 24.2662C23.6037 24.4232 23.5047 24.5769 23.4038 24.7322C23.3525 24.8075 23.3031 24.8861 23.2501 24.9612C23.1705 25.0749 23.0884 25.1888 23.0042 25.3026C22.9718 25.347 22.9376 25.3897 22.9069 25.4342C22.8761 25.4786 22.8402 25.523 22.8062 25.5657C22.7719 25.6084 22.7241 25.6783 22.6832 25.7363L22.6543 25.7739L26.4825 27.1315Z" fill="#FFEA8C"/>
<path d="M22.6543 25.7866C22.6543 25.7866 26.0967 27.0791 27.4661 28.4469C29.621 30.6019 30.4492 31.2643 29.1958 37.7564C29.1514 37.9939 29.1122 38.2311 29.0848 38.4719C28.9637 39.5512 28.8442 42.2866 33.0942 35.9552C38.2049 28.3394 30.9563 26.1981 30.9563 26.1981C28.2926 25.428 25.4631 25.3443 22.6543 25.7866Z" fill="#FFCA28"/>
</svg>
