<svg width="228" height="48" viewBox="0 0 228 48" fill="none" xmlns="http://www.w3.org/2000/svg">
<path d="M54.2927 25.3407L54.1818 34.2549L48.1764 34.2211L48.4582 11.4377L61.2188 11.5073L61.1812 14.5588L54.4261 14.5212L54.3284 22.3662L61.0835 22.4038L61.2188 11.5073L67.3125 11.5411L67.1396 25.4084L54.2927 25.3407Z" fill="black"/>
<path d="M86.4712 28.2496L75.3022 28.1876L75.2609 31.5153L87.1195 31.5811L85.8549 34.3489L69.4321 34.2587L69.6313 18.2512L80.8003 18.3132L80.7646 21.2351L75.3905 21.2163L75.3398 25.2582L80.7139 25.2882L80.8003 18.3151L86.5952 18.3471L86.4712 28.2496Z" fill="black"/>
<path d="M89.4891 34.4108L89.6883 18.4033L106.711 18.4973L105.624 21.344L95.4175 21.2876L95.2897 31.5885L106.489 31.6505L105.252 34.4973L89.4891 34.4108Z" fill="black"/>
<path d="M121.006 25.35L127.406 34.6175L120.922 34.5818L114.813 25.9889L114.708 34.5479L108.913 34.516L109.194 11.7327L114.989 11.7646L114.837 24.0479L120.549 18.5705L127.726 18.6099L121.006 25.35Z" fill="black"/>
<path d="M150.374 34.7829L129.928 34.6701L129.965 31.6994L144.285 31.7783L144.411 21.6747L150.535 21.7085L150.374 34.7829ZM136.33 14.8143L136.245 21.6296L144.411 21.6747L144.376 24.5947L130.116 24.529L130.272 11.8887L151.377 12.0052L150.201 14.8914L136.33 14.8143Z" fill="black"/>
<path d="M159.453 21.6391L159.29 34.7943L153.495 34.7623L153.777 11.979L159.572 12.011L159.487 18.7868L164.921 18.8168L164.885 21.6598L159.453 21.6391ZM170.547 34.8544L164.724 34.8225L164.923 18.8149L170.746 18.8469L170.547 34.8544Z" fill="black"/>
<path d="M178.743 34.8995L172.948 34.8676L173.148 18.86L178.942 18.892L178.743 34.8995ZM173.232 12.0842L179.027 12.1162L178.967 17.0299L173.172 16.9979L173.232 12.0842Z" fill="black"/>
<path d="M198.184 28.9034L187.015 28.8414L186.974 32.1692L198.832 32.2349L197.568 35.0027L181.145 34.9126L181.344 18.905L192.513 18.967L192.477 21.8889L187.103 21.8702L187.052 25.912L192.426 25.942L192.513 18.9689L198.308 19.0009L198.184 28.9034Z" fill="black"/>
<path d="M207.175 35.0553L201.202 35.0233L201.484 12.24L207.457 12.2719L207.175 35.0553Z" fill="black"/>
<path d="M227.031 12.379L226.749 35.1624L209.577 35.0684L209.776 19.0609L221.153 19.1229L221.118 21.9659L215.533 21.9452L215.405 32.2461L220.99 32.2762L221.153 19.121L221.238 12.3452L227.031 12.379Z" fill="black"/>
<path d="M30.8103 24.8578C30.8103 24.8578 32.2948 26.5771 33.2606 29.809C33.6571 31.1356 25.9512 34.5348 25.9512 34.5348C25.9512 34.5348 29.4837 31.4851 26.2443 29.9237C23.0048 28.3622 19.5173 29.7113 17.2042 20.7972C16.881 19.5476 15.3496 19.0534 14.6243 19.0534C12.9163 19.0534 7.16266 21.421 7.16266 21.421C7.16266 21.421 6.80001 22.0186 6.4599 22.3474C6.4599 22.3474 6.14423 22.6518 6.11792 22.6762C5.77593 23.0051 5.09196 23.3564 4.75186 23.3358C4.4437 23.317 4.40987 23.3358 4.06789 23.0069C3.8518 22.8002 3.7259 22.3474 3.7259 22.0186C3.7259 21.282 4.65978 20.9099 5.09196 20.7014C5.77593 20.3725 6.49373 20.3725 6.80001 20.7014C6.82444 20.7277 7.14199 21.0302 7.10629 21.0302C7.10629 21.0302 7.10629 21.359 8.13225 20.7014C9.66366 19.7167 13.0647 18.2793 13.6754 17.9035C13.8408 17.802 13.9685 17.6536 14.0381 17.475C14.2166 17.0203 14.6412 16.0752 15.3102 15.4307C15.9941 14.7711 18.0442 13.4539 20.7688 14.8651C25.4927 17.3097 25.9512 17.0504 25.9512 17.0504C25.9512 17.0504 26.9283 15.4307 29.6623 12.4674C32.2516 9.66013 35.1303 7.85626 35.1303 7.85626L36.1562 10.8195C36.1562 10.8195 37.0976 10.1092 40.4291 7.96524C40.3314 6.38872 38.6309 5.13165 36.5395 5.13165C36.5395 5.13165 24.6433 0 20.6842 0C16.7251 0 4.87024 5.13165 4.87024 5.13165C2.71874 5.13165 0.974994 6.46201 0.974994 8.10241C0.974994 8.10241 0.779574 25.8537 2.66613 29.9594C5.34939 35.7919 20.6823 48 20.6823 48C20.6823 48 35.6583 35.9009 38.7662 30.0683C39.6362 28.4373 40.0778 24.6304 40.2938 20.6375C38.133 22.6424 35.0889 24.2227 30.8103 24.8578Z" fill="url(#paint0_linear_7641_67821)"/>
<defs>
<linearGradient id="paint0_linear_7641_67821" x1="0.968568" y1="24.0028" x2="40.4267" y2="24.0028" gradientUnits="userSpaceOnUse">
<stop stopColor="#29ABE2"/>
<stop offset="0.5" stopColor="#29ABE2"/>
<stop offset="0.5226" stopColor="#239BD3"/>
<stop offset="0.5642" stopColor="#1A84BD"/>
<stop offset="0.6086" stopColor="#1373AD"/>
<stop offset="0.6577" stopColor="#0F69A4"/>
<stop offset="0.7202" stopColor="#0E66A1"/>
<stop offset="0.9944" stopColor="#0661A1"/>
</linearGradient>
</defs>
</svg>
