<svg width="28" height="28" viewBox="0 0 28 28" fill="none" xmlns="http://www.w3.org/2000/svg">
<path d="M22.626 4.78418H5.33789V20.4969H22.626V4.78418Z" fill="white"/>
<path fillRule="evenodd" clipRule="evenodd" d="M27.9814 13.9814C27.9814 21.7032 21.7176 27.9628 13.9907 27.9628C6.26384 27.9628 0 21.7032 0 13.9814C0 6.25968 6.26384 0 13.9907 0C21.7176 0 27.9814 6.25968 27.9814 13.9814ZM10.0261 19.5453H7.31092C6.74038 19.5453 6.45855 19.5453 6.28672 19.4354C6.10111 19.3152 5.9877 19.116 5.97395 18.8961C5.96363 18.6935 6.10456 18.4462 6.38638 17.9516L13.0905 6.14241C13.3758 5.64094 13.5202 5.3902 13.7023 5.29747C13.8982 5.19787 14.132 5.19787 14.3279 5.29747C14.51 5.3902 14.6544 5.64094 14.9396 6.14241L16.3179 8.54668L16.3249 8.55895C16.633 9.09693 16.7893 9.36974 16.8575 9.65607C16.9331 9.96863 16.9331 10.2984 16.8575 10.6109C16.7887 10.8994 16.6341 11.1742 16.3213 11.7203L12.7998 17.9413L12.7907 17.9572C12.4805 18.4996 12.3233 18.7745 12.1055 18.9819C11.8683 19.2087 11.5831 19.3734 11.2703 19.4663C10.985 19.5453 10.6654 19.5453 10.0261 19.5453ZM16.8829 19.5453H20.7735C21.3474 19.5453 21.6362 19.5453 21.8081 19.4321C21.9937 19.3118 22.1105 19.1091 22.1209 18.8894C22.1308 18.6934 21.9929 18.4556 21.7228 17.9898C21.7135 17.9739 21.7042 17.9578 21.6947 17.9413L19.7459 14.6097L19.7237 14.5722C19.4498 14.1094 19.3116 13.8757 19.1341 13.7854C18.9383 13.6858 18.7078 13.6858 18.512 13.7854C18.3333 13.8781 18.189 14.122 17.9037 14.6131L15.9618 17.9448L15.9551 17.9562C15.6709 18.4466 15.5288 18.6917 15.5391 18.8927C15.5528 19.1126 15.6662 19.3152 15.8518 19.4354C16.0202 19.5453 16.3089 19.5453 16.8829 19.5453Z" fill="#E84142"/>
</svg>
