<svg width="28" height="33" viewBox="0 0 28 33" fill="none" xmlns="http://www.w3.org/2000/svg">
<path d="M5.50858 5.32333L14.0002 0.421875L22.4919 5.32333L19.3699 7.13403L14.0002 4.04329L8.63054 7.13403L5.50858 5.32333ZM22.4919 11.5048L19.3699 9.69411L14.0002 12.7849L8.63054 9.69411L5.50858 11.5048V15.1262L10.8783 18.217V24.3985L14.0002 26.2092L17.1222 24.3985V18.217L22.4919 15.1262V11.5048ZM22.4919 21.3077V17.6863L19.3699 19.497V23.1184L22.4919 21.3077ZM24.7086 22.5878L19.3387 25.6785V29.2999L27.8305 24.3985V14.5956L24.7086 16.4063V22.5878ZM21.5866 8.41407L24.7086 10.2248V13.8462L27.8305 12.0355V8.41407L24.7086 6.60336L21.5866 8.41407ZM10.8783 26.9898V30.6112L14.0002 32.4219L17.1222 30.6112V26.9898L14.0002 28.8005L10.8783 26.9898ZM5.50858 21.3077L8.63054 23.1184V19.497L5.50858 17.6863V21.3077ZM10.8783 8.41407L14.0002 10.2248L17.1222 8.41407L14.0002 6.60336L10.8783 8.41407ZM3.29188 10.2248L6.41384 8.41407L3.29188 6.60336L0.169922 8.41407V12.0355L3.29188 13.8462V10.2248ZM3.29188 16.4063L0.169922 14.5956V24.3985L8.66157 29.2999V25.6785L3.29188 22.5878V16.4063Z" fill="#F0B90B"/>
</svg>
