<svg width="48" height="48" viewBox="0 0 48 48" fill="none" xmlns="http://www.w3.org/2000/svg">
<path d="M24 47.9998C37.2548 47.9998 48 37.2548 48 24C48 10.7451 37.2548 0 24 0C10.7452 0 0 10.7451 0 24C0 37.2548 10.7452 47.9998 24 47.9998Z" fill="white"/>
<path d="M42.5904 9.02917C40.926 9.35819 39.3388 9.82271 38.0324 10.113C35.0518 10.7808 32.2646 13.0646 31.655 17.2453C31.113 20.9807 32.371 22.5873 31.8194 26.9323C30.8518 34.5195 23.5744 37.1323 20.1776 38.7195C18.213 39.6291 13.4421 41.7195 9.76465 43.3163C13.7517 46.2581 18.6679 48.0001 24.0002 48.0001C37.2582 48.0001 48 37.2581 48 24.0001C48 18.3485 46.0452 13.1517 42.7742 9.05819C42.7162 9.04851 42.6582 9.03885 42.5904 9.02917Z" fill="url(#paint0_linear_6855_33298)"/>
<path d="M21.3 20.4774C23.1484 16.4806 22.4806 16.4709 23.8838 12.7161C25.6548 7.95482 31.1612 9.30966 32.6806 9.51288C35.187 9.8516 35.8452 8.96128 41.129 8.10966C41.3902 8.07096 41.6418 8.03224 41.8936 8.0032C37.5 3.09676 31.1128 0 24 0C14.4484 0 6.20322 5.57418 2.34194 13.6548C10.2581 15.6193 18.8032 19.8871 21.3 20.4774ZM16.0548 4.18064C16.7516 4.28708 20.1386 8.49676 20.7774 19.3064C20.7774 19.3064 16.4226 18.2613 15.4839 16.0161C14.7097 14.1677 15.7161 11.7387 16.0548 4.18064ZM42.7354 9.00966C42.7452 9.02902 42.7644 9.0387 42.7742 9.05804C42.716 9.04836 42.6484 9.04836 42.5902 9.0387C42.6386 9.01934 42.687 9.01934 42.7354 9.00966ZM0 24C0 22.0838 0.22258 20.2258 0.648386 18.4451C1.51935 19.1709 2.44838 19.9742 3.43548 20.8936C9.68708 26.6902 19.858 31.2676 23.5644 27.0096C23.5742 27.0192 23.5838 27.0192 23.5838 27.029C22.9064 27.9192 20.3226 30.7354 15.3871 29.8644L7.58708 41.5064C2.92258 37.1322 0 30.9096 0 24Z" fill="url(#paint1_linear_6855_33298)"/>
<defs>
<linearGradient id="paint0_linear_6855_33298" x1="38.4132" y1="15.3151" x2="32.7512" y2="46.5081" gradientUnits="userSpaceOnUse">
<stop stopColor="#FF496A"/>
<stop offset="1" stopColor="#E42648"/>
</linearGradient>
<linearGradient id="paint1_linear_6855_33298" x1="11.5841" y1="35.3534" x2="24.103" y2="-1.0018e-05" gradientUnits="userSpaceOnUse">
<stop offset="0.00181229" stopColor="#1158F1"/>
<stop offset="1" stopColor="#119BED"/>
</linearGradient>
</defs>
</svg>
