<svg width="28" height="28" viewBox="0 0 28 28" fill="none" xmlns="http://www.w3.org/2000/svg">
<path d="M27.5809 17.3867C25.7111 24.8867 18.1148 29.4511 10.6138 27.5809C3.11598 25.7111 -1.44841 18.1142 0.422209 10.6148C2.29119 3.11387 9.88755 -1.45087 17.3862 0.418928C24.8866 2.28873 29.4507 9.88639 27.5807 17.3868L27.5809 17.3867H27.5809Z" fill="#F7931A"/>
<path d="M20.1937 11.9844C20.4724 10.1213 19.0539 9.11982 17.1143 8.45173L17.7436 5.928L16.2073 5.5452L15.5948 8.00248C15.1909 7.90175 14.7761 7.80684 14.3639 7.71274L14.9809 5.23925L13.4456 4.85645L12.816 7.37935C12.4818 7.30325 12.1535 7.22805 11.835 7.14881L11.8368 7.14087L9.71827 6.61183L9.3096 8.25266C9.3096 8.25266 10.4494 8.51393 10.4254 8.53001C11.0475 8.68528 11.16 9.0971 11.1413 9.42351L10.4245 12.2986C10.4674 12.3095 10.5229 12.3252 10.5843 12.3499C10.533 12.3372 10.4785 12.3233 10.4219 12.3097L9.41724 16.3373C9.34122 16.5263 9.14824 16.81 8.7133 16.7023C8.72869 16.7246 7.59671 16.4236 7.59671 16.4236L6.83398 18.1822L8.83319 18.6805C9.20511 18.7738 9.56957 18.8714 9.92849 18.9632L9.29277 21.5158L10.8273 21.8986L11.4568 19.3731C11.876 19.4869 12.2829 19.5918 12.6811 19.6908L12.0537 22.2045L13.59 22.5873L14.2257 20.0394C16.8453 20.5352 18.8151 20.3353 19.6442 17.9658C20.3123 16.0581 19.611 14.9577 18.2328 14.2401C19.2366 14.0086 19.9927 13.3484 20.1943 11.9846L20.1938 11.9843L20.1937 11.9844ZM16.6837 16.9063C16.2089 18.8141 12.9969 17.7828 11.9555 17.5242L12.7992 14.1424C13.8405 14.4023 17.1799 14.9168 16.6838 16.9063H16.6837ZM17.1588 11.9567C16.7257 13.692 14.0523 12.8104 13.1851 12.5942L13.95 9.52712C14.8172 9.74329 17.61 10.1468 17.1589 11.9567H17.1588Z" fill="white"/>
</svg>
