<svg width="32" height="33" viewBox="0 0 32 33" fill="none" xmlns="http://www.w3.org/2000/svg">
<path d="M16 32.3359C24.8366 32.3359 32 25.1725 32 16.3359C32 7.49938 24.8366 0.335938 16 0.335938C7.16344 0.335938 0 7.49938 0 16.3359C0 25.1725 7.16344 32.3359 16 32.3359Z" fill="#F0B90B"/>
<path d="M10.3011 8.9711L15.9371 5.69043L21.5731 8.9711L19.501 10.1831L15.9371 8.11436L12.3731 10.1831L10.3011 8.9711ZM21.5731 13.1085L19.501 11.8965L15.9371 13.9652L12.3731 11.8965L10.3011 13.1085V15.5324L13.865 17.6011V21.7385L15.9371 22.9505L18.0092 21.7385V17.6011L21.5731 15.5324V13.1085ZM21.5731 19.6698V17.2459L19.501 18.4579V20.8818L21.5731 19.6698ZM23.0443 20.5265L19.4803 22.5952V25.0192L25.1164 21.7385V15.1772L23.0443 16.3892V20.5265ZM20.9722 11.0398L23.0443 12.2518V14.6757L25.1164 13.4637V11.0398L23.0443 9.82783L20.9722 11.0398ZM13.865 23.4729V25.8968L15.9371 27.1088L18.0092 25.8968V23.4729L15.9371 24.6848L13.865 23.4729ZM10.3011 19.6698L12.3731 20.8818V18.4579L10.3011 17.2459V19.6698ZM13.865 11.0398L15.9371 12.2518L18.0092 11.0398L15.9371 9.82783L13.865 11.0398ZM8.82988 12.2518L10.9019 11.0398L8.82988 9.82783L6.75781 11.0398V13.4637L8.82988 14.6757V12.2518ZM8.82988 16.3892L6.75781 15.1772V21.7385L12.3938 25.0192V22.5952L8.82988 20.5265V16.3892Z" fill="black"/>
</svg>
