<svg width="30" height="31" viewBox="0 0 30 31" fill="none" xmlns="http://www.w3.org/2000/svg">
<path d="M14.9989 0.581055C23.1388 0.581055 29.7489 7.18813 29.7489 15.3311C29.7489 23.471 23.1418 30.0811 14.9989 30.0811C6.85906 30.0811 0.251953 23.471 0.251953 15.3311C0.251953 7.19109 6.85906 0.581055 14.9989 0.581055Z" fill="white" stroke="#F4F4F4" stroke-width="0.5"/>
<path d="M15.0008 6.17969L17.2613 8.49469L11.5691 14.1869L9.30859 11.9263L15.0008 6.17969Z" fill="#F0B90B"/>
<path d="M18.4324 9.61133L20.6929 11.9263L11.5691 21.0501L9.30859 18.7896L18.4324 9.61133Z" fill="#F0B90B"/>
<path d="M8.13651 13.043L10.397 15.358L8.13651 17.6185L5.87598 15.358L8.13651 13.043Z" fill="#F0B90B"/>
<path d="M21.8641 13.043L24.1246 15.358L15.0008 24.4818L12.7402 22.2213L21.8641 13.043Z" fill="#F0B90B"/>
</svg>
