<svg width="41" height="41" viewBox="0 0 41 41" fill="none" xmlns="http://www.w3.org/2000/svg">
<path d="M0.5 10.75C0.5 5.22715 4.97715 0.75 10.5 0.75H30.5C36.0228 0.75 40.5 5.22715 40.5 10.75V30.75C40.5 36.2728 36.0228 40.75 30.5 40.75H10.5C4.97715 40.75 0.5 36.2728 0.5 30.75V10.75Z" fill="#F0F0F0"/>
<path d="M25.834 14.0834H19.1673C18.432 14.0834 17.834 14.6814 17.834 15.4167V18.0834H15.1673C14.432 18.0834 13.834 18.6814 13.834 19.4167V26.0834C13.834 26.8187 14.432 27.4167 15.1673 27.4167H21.834C22.5693 27.4167 23.1673 26.8187 23.1673 26.0834V23.4167H25.834C26.5693 23.4167 27.1673 22.8187 27.1673 22.0834V15.4167C27.1673 14.6814 26.5693 14.0834 25.834 14.0834ZM15.1673 26.0834V19.4167H21.834L21.8353 26.0834H15.1673ZM25.834 22.0834H23.1673V19.4167C23.1673 18.6814 22.5693 18.0834 21.834 18.0834H19.1673V15.4167H25.834V22.0834Z" fill="#212030"/>
<path d="M10.5 2.25H30.5V-0.75H10.5V2.25ZM39 10.75V30.75H42V10.75H39ZM30.5 39.25H10.5V42.25H30.5V39.25ZM2 30.75V10.75H-1V30.75H2ZM10.5 39.25C5.80558 39.25 2 35.4444 2 30.75H-1C-1 37.1013 4.14873 42.25 10.5 42.25V39.25ZM39 30.75C39 35.4444 35.1944 39.25 30.5 39.25V42.25C36.8513 42.25 42 37.1013 42 30.75H39ZM30.5 2.25C35.1944 2.25 39 6.05558 39 10.75H42C42 4.39873 36.8513 -0.75 30.5 -0.75V2.25ZM10.5 -0.75C4.14873 -0.75 -1 4.39873 -1 10.75H2C2 6.05558 5.80558 2.25 10.5 2.25V-0.75Z" fill="url(#paint0_linear_7215_25543)"/>
<defs>
<linearGradient id="paint0_linear_7215_25543" x1="6.08531" y1="6.63675" x2="34.4912" y2="35.0448" gradientUnits="userSpaceOnUse">
<stop stopColor="#05E8FC"/>
<stop offset="1" stopColor="#FE0291"/>
</linearGradient>
</defs>
</svg>
