<svg width="24" height="25" viewBox="0 0 24 25" fill="none" xmlns="http://www.w3.org/2000/svg">
<path d="M20 2.33594H10C8.897 2.33594 8 3.23294 8 4.33594V8.33594H4C2.897 8.33594 2 9.23294 2 10.3359V20.3359C2 21.4389 2.897 22.3359 4 22.3359H14C15.103 22.3359 16 21.4389 16 20.3359V16.3359H20C21.103 16.3359 22 15.4389 22 14.3359V4.33594C22 3.23294 21.103 2.33594 20 2.33594ZM4 20.3359V10.3359H14L14.002 20.3359H4ZM20 14.3359H16V10.3359C16 9.23294 15.103 8.33594 14 8.33594H10V4.33594H20V14.3359Z" fill="#5C5B63"/>
</svg>
