<svg width="28" height="28" viewBox="0 0 28 28" fill="none" xmlns="http://www.w3.org/2000/svg">
<path d="M14 0C21.7327 0 28 6.26856 28 14C28 21.7327 21.7327 28 14 28C6.26856 28 0 21.7321 0 14C0 6.26856 6.26856 0 14 0Z" fill="#F5AC37"/>
<path d="M14.5182 14.9818H19.8379C19.9513 14.9818 20.0049 14.9818 20.0131 14.8331C20.0566 14.2919 20.0566 13.7476 20.0131 13.2058C20.0131 13.1006 19.9608 13.0571 19.8468 13.0571H9.25951C9.12847 13.0571 9.09319 13.1006 9.09319 13.2234V14.7808C9.09319 14.9818 9.09319 14.9818 9.30298 14.9818H14.5182ZM19.419 11.237C19.4341 11.1973 19.4341 11.1538 19.419 11.1148C19.3302 10.9214 19.225 10.7368 19.1027 10.5635C18.9188 10.2674 18.702 9.99463 18.4551 9.74956C18.3385 9.60151 18.2037 9.46857 18.0525 9.3558C17.2952 8.71131 16.395 8.25518 15.4273 8.02586C14.939 7.91624 14.4401 7.86395 13.9398 7.86836H9.24124C9.1102 7.86836 9.09256 7.92065 9.09256 8.03468V11.1406C9.09256 11.2717 9.09256 11.3069 9.25888 11.3069H19.356C19.356 11.3069 19.4436 11.2893 19.4612 11.237H19.4184H19.419ZM19.419 16.8018C19.2703 16.7855 19.1204 16.7855 18.9717 16.8018H9.26833C9.13729 16.8018 9.09319 16.8018 9.09319 16.977V20.0136C9.09319 20.1535 9.09319 20.1888 9.26833 20.1888H13.7483C13.9625 20.2051 14.1767 20.19 14.3865 20.1453C15.0367 20.0987 15.6761 19.9576 16.286 19.7251C16.5077 19.6482 16.7219 19.548 16.9242 19.4277H16.9853C18.0355 18.8815 18.8885 18.0234 19.4266 16.9701C19.4266 16.9701 19.4877 16.8378 19.419 16.8031V16.8018ZM7.33484 21.7631V21.7109V19.6722V18.981V16.9247C7.33484 16.8107 7.33484 16.7937 7.19498 16.7937H5.29614C5.19093 16.7937 5.14746 16.7937 5.14746 16.6538V14.9912H7.17734C7.29074 14.9912 7.33484 14.9912 7.33484 14.8425V13.1976C7.33484 13.0924 7.33484 13.0665 7.19498 13.0665H5.29614C5.19093 13.0665 5.14746 13.0665 5.14746 12.9267V11.3869C5.14746 11.2906 5.14746 11.2647 5.28732 11.2647H7.16852C7.29956 11.2647 7.33484 11.2647 7.33484 11.0984V6.38217C7.33484 6.24231 7.33484 6.20703 7.50998 6.20703H14.0721C14.5484 6.22593 15.0215 6.27822 15.4896 6.36453C16.4542 6.54282 17.3809 6.88744 18.2283 7.37947C18.7902 7.71023 19.3075 8.10965 19.768 8.56956C20.1145 8.92929 20.427 9.31863 20.7042 9.73318C20.9795 10.1534 21.2082 10.6026 21.3878 11.0719C21.4098 11.1942 21.527 11.2767 21.6492 11.2559H23.2154C23.4164 11.2559 23.4164 11.2559 23.4252 11.4487V12.8838C23.4252 13.0237 23.3729 13.059 23.2324 13.059H22.0247C21.9025 13.059 21.8672 13.059 21.876 13.2165C21.9239 13.7495 21.9239 14.2843 21.876 14.8173C21.876 14.966 21.876 14.9836 22.043 14.9836H23.4246C23.4857 15.0624 23.4246 15.1412 23.4246 15.2205C23.4334 15.322 23.4334 15.4247 23.4246 15.5261V16.5851C23.4246 16.7338 23.3811 16.7779 23.2494 16.7779H21.5957C21.4804 16.7559 21.3682 16.8296 21.3418 16.9442C20.948 17.968 20.318 18.8859 19.504 19.6218C19.2067 19.8895 18.8942 20.1415 18.5679 20.374C18.2176 20.5756 17.8767 20.7854 17.5176 20.9517C16.8568 21.2491 16.1638 21.4683 15.4525 21.6075C14.7771 21.7285 14.0923 21.7833 13.405 21.7739H7.33232V21.765L7.33484 21.7631Z" fill="#FEFEFD"/>
</svg>
