<svg width="16" height="17" viewBox="0 0 16 17" fill="none" xmlns="http://www.w3.org/2000/svg">
<path d="M8.66732 5.00228H7.33398V7.66895H4.66732V9.00228H7.33398V11.6689H8.66732V9.00228H11.334V7.66895H8.66732V5.00228Z" fill="#AFAFAF"/>
<path d="M8.00065 1.66895C4.32465 1.66895 1.33398 4.65961 1.33398 8.33561C1.33398 12.0116 4.32465 15.0023 8.00065 15.0023C11.6767 15.0023 14.6673 12.0116 14.6673 8.33561C14.6673 4.65961 11.6767 1.66895 8.00065 1.66895ZM8.00065 13.6689C5.05998 13.6689 2.66732 11.2763 2.66732 8.33561C2.66732 5.39495 5.05998 3.00228 8.00065 3.00228C10.9413 3.00228 13.334 5.39495 13.334 8.33561C13.334 11.2763 10.9413 13.6689 8.00065 13.6689Z" fill="#AFAFAF"/>
</svg>
