<svg width="24" height="20" viewBox="0 0 24 20" fill="none" xmlns="http://www.w3.org/2000/svg">
<path d="M20.317 2.36993C18.7873 1.66805 17.147 1.15093 15.4319 0.854758C15.4007 0.849042 15.3695 0.863327 15.3534 0.891897C15.1424 1.26711 14.9087 1.75661 14.7451 2.14135C12.9004 1.86519 11.0652 1.86519 9.25832 2.14135C9.09465 1.74806 8.85248 1.26711 8.64057 0.891897C8.62449 0.86428 8.59328 0.849995 8.56205 0.854758C6.84791 1.14999 5.20756 1.6671 3.67693 2.36993C3.66368 2.37564 3.65233 2.38517 3.64479 2.39755C0.533392 7.04591 -0.31895 11.58 0.0991801 16.0579C0.101072 16.0798 0.11337 16.1008 0.130398 16.1141C2.18321 17.6216 4.17171 18.5368 6.12328 19.1435C6.15451 19.153 6.18761 19.1416 6.20748 19.1158C6.66913 18.4854 7.08064 17.8207 7.43348 17.1216C7.4543 17.0807 7.43442 17.0321 7.39186 17.0159C6.73913 16.7683 6.1176 16.4664 5.51973 16.1236C5.47244 16.096 5.46865 16.0284 5.51216 15.996C5.63797 15.9017 5.76382 15.8036 5.88396 15.7046C5.90569 15.6865 5.93598 15.6827 5.96153 15.6941C9.88928 17.4874 14.1415 17.4874 18.023 15.6941C18.0485 15.6817 18.0788 15.6855 18.1015 15.7036C18.2216 15.8027 18.3475 15.9017 18.4742 15.996C18.5177 16.0284 18.5149 16.096 18.4676 16.1236C17.8697 16.4731 17.2482 16.7683 16.5945 17.015C16.552 17.0312 16.533 17.0807 16.5538 17.1216C16.9143 17.8197 17.3258 18.4844 17.7789 19.1149C17.7978 19.1416 17.8319 19.153 17.8631 19.1435C19.8241 18.5368 21.8126 17.6216 23.8654 16.1141C23.8834 16.1008 23.8948 16.0808 23.8967 16.0589C24.3971 10.8819 23.0585 6.38499 20.3482 2.39849C20.3416 2.38517 20.3303 2.37564 20.317 2.36993ZM8.02002 13.3313C6.8375 13.3313 5.86313 12.2457 5.86313 10.9124C5.86313 9.57912 6.8186 8.49348 8.02002 8.49348C9.23087 8.49348 10.1958 9.58866 10.1769 10.9124C10.1769 12.2457 9.22141 13.3313 8.02002 13.3313ZM15.9947 13.3313C14.8123 13.3313 13.8379 12.2457 13.8379 10.9124C13.8379 9.57912 14.7933 8.49348 15.9947 8.49348C17.2056 8.49348 18.1705 9.58866 18.1516 10.9124C18.1516 12.2457 17.2056 13.3313 15.9947 13.3313Z" fill="#5C5B63"/>
</svg>
 