<svg width="12" height="14" viewBox="0 0 12 14" fill="none" xmlns="http://www.w3.org/2000/svg">
<path fillRule="evenodd" clipRule="evenodd" d="M1.33268 12.0001H10.666C10.8428 12.0001 11.0124 12.0703 11.1374 12.1953C11.2624 12.3204 11.3327 12.4899 11.3327 12.6667C11.3327 12.8436 11.2624 13.0131 11.1374 13.1382C11.0124 13.2632 10.8428 13.3334 10.666 13.3334H1.33268C1.15587 13.3334 0.986302 13.2632 0.861278 13.1382C0.736254 13.0131 0.666016 12.8436 0.666016 12.6667C0.666016 12.4899 0.736254 12.3204 0.861278 12.1953C0.986302 12.0703 1.15587 12.0001 1.33268 12.0001ZM6.66602 8.11675L8.82802 5.95541L9.77068 6.89808L5.99935 10.6694L2.22802 6.89808L3.17068 5.95541L5.33268 8.11675V0.666748H6.66602V8.11675Z" fill="#737373"/>
</svg>
