<svg width="24" height="24" viewBox="0 0 24 24" fill="none" xmlns="http://www.w3.org/2000/svg">
<path d="M11.001 10.001H13.001V15.001H11.001V10.001ZM11 16.001H13V18.001H11V16.001Z" fill="#FE003E"/>
<path d="M13.7689 4.20067C13.4209 3.54567 12.7429 3.13867 12.0009 3.13867C11.2589 3.13867 10.5809 3.54567 10.2329 4.20167L2.89493 18.0647C2.73209 18.3691 2.65143 18.7107 2.6609 19.0558C2.67037 19.401 2.76964 19.7376 2.94893 20.0327C3.12562 20.3291 3.37657 20.5742 3.67697 20.744C3.97738 20.9138 4.31687 21.0022 4.66193 21.0007H19.3399C20.0479 21.0007 20.6889 20.6387 21.0539 20.0327C21.2329 19.7375 21.332 19.4009 21.3415 19.0558C21.351 18.7108 21.2705 18.3692 21.1079 18.0647L13.7689 4.20067ZM4.66193 19.0007L12.0009 5.13767L19.3449 19.0007H4.66193Z" fill="#FE003E"/>
</svg>
