<svg width="32" height="33" viewBox="0 0 32 33" fill="none" xmlns="http://www.w3.org/2000/svg">
<path d="M31.75 16.3359C31.75 25.0344 24.6985 32.0859 16 32.0859C7.30152 32.0859 0.25 25.0344 0.25 16.3359C0.25 7.63745 7.30152 0.585938 16 0.585938C24.6985 0.585938 31.75 7.63745 31.75 16.3359Z" fill="white" stroke="#F4F4F4" stroke-width="0.5"/>
<path d="M15.9992 3L15.8203 3.6077V21.2402L15.9992 21.4187L24.1839 16.5807L15.9992 3Z" fill="#343434"/>
<path d="M15.9974 3L7.8125 16.5807L15.9974 21.4187V3Z" fill="#8C8C8C"/>
<path d="M15.9993 22.9683L15.8984 23.0913V29.3723L15.9993 29.6666L24.1889 18.1328L15.9993 22.9683Z" fill="#3C3C3B"/>
<path d="M15.9974 29.6666V22.9683L7.8125 18.1328L15.9974 29.6666Z" fill="#8C8C8C"/>
<path d="M16 21.4177L24.1847 16.5797L16 12.8594V21.4177Z" fill="#141414"/>
<path d="M7.8125 16.5797L15.9974 21.4177V12.8594L7.8125 16.5797Z" fill="#393939"/>
</svg>
