<svg width="280" height="72" viewBox="0 0 280 72" fill="none" xmlns="http://www.w3.org/2000/svg">
<path d="M73.7915 13.144C74.3817 13.144 74.811 13.3587 75.0793 13.7879L89.4062 33.1588L103.841 13.7879C104.109 13.3587 104.538 13.144 105.128 13.144H112.158C112.426 13.144 112.641 13.2514 112.748 13.466C112.855 13.7343 112.802 13.9489 112.641 14.2172L93.377 39.2223V49.5248C93.377 50.3297 93.0014 50.7053 92.1965 50.7053H86.4013C85.5964 50.7053 85.1672 50.3297 85.1672 49.5248V39.2223L66.1182 14.2172C65.9573 13.9489 65.9036 13.7343 66.0109 13.466C66.0646 13.2514 66.2792 13.144 66.6012 13.144H73.7915Z" fill="white"/>
<path d="M152.448 13.144C153.253 13.144 153.628 13.5197 153.628 14.3245V19.4221C153.628 20.227 153.253 20.6026 152.448 20.6026H125.564C124.545 20.6026 123.794 20.8709 123.364 21.4075C122.935 21.9441 122.721 22.6953 122.721 23.6075V25.4319C122.721 27.4173 123.633 28.4368 125.511 28.4368H145.633C148.745 28.4368 151.106 29.2417 152.662 30.7978C154.218 32.4076 155.023 34.7149 155.023 37.6662V41.9589C155.023 44.5882 154.272 46.6809 152.716 48.2906C151.16 49.9004 148.799 50.7053 145.526 50.7053H115.799C114.994 50.7053 114.564 50.3297 114.564 49.5248V44.4272C114.564 43.6223 114.994 43.2467 115.799 43.2467H143.97C144.989 43.2467 145.74 42.9784 146.17 42.4418C146.599 41.9052 146.813 41.154 146.813 40.2418V38.0418C146.813 36.0564 145.901 35.0369 144.023 35.0369H123.901C120.789 35.0369 118.428 34.232 116.872 32.6222C115.316 31.0661 114.511 28.7588 114.511 25.8075V21.8904C114.511 19.2612 115.262 17.1685 116.818 15.5587C118.374 13.9489 120.735 13.144 124.008 13.144H152.448Z" fill="white"/>
<path d="M168.064 13.144C168.869 13.144 169.245 13.5197 169.245 14.3245V35.7344C169.245 37.1832 169.352 38.3637 169.621 39.2759C169.835 40.2418 170.211 40.993 170.747 41.5296C171.284 42.1199 172.035 42.4955 172.894 42.7101C173.86 42.9784 174.986 43.0857 176.382 43.0857H198.114C198.918 43.0857 199.294 43.4613 199.294 44.2662V49.5248C199.294 50.3297 198.918 50.7053 198.114 50.7053H176.06C173.323 50.7053 171.016 50.437 169.138 49.9541C167.26 49.4711 165.703 48.6126 164.523 47.5394C163.289 46.3589 162.43 44.9101 161.894 43.1394C161.303 41.315 161.035 39.115 161.035 36.5393V14.3245C161.035 13.5197 161.464 13.144 162.269 13.144H168.064Z" fill="white"/>
<path d="M210.396 43.1924C211.201 43.1924 211.577 43.568 211.577 44.3729V49.5241C211.577 50.329 211.201 50.7046 210.396 50.7046H205.137C204.333 50.7046 203.903 50.329 203.903 49.5241V44.3729C203.903 43.568 204.333 43.1924 205.137 43.1924H210.396Z" fill="white"/>
<path d="M264.966 13.144C267.703 13.144 270.01 13.4123 271.942 13.8953C273.82 14.4319 275.376 15.2367 276.61 16.3636C277.791 17.4904 278.65 18.9929 279.186 20.7636C279.723 22.5343 279.991 24.7344 279.991 27.31V36.5393C279.991 39.115 279.723 41.315 279.186 43.1394C278.65 44.9101 277.791 46.3589 276.61 47.5394C275.376 48.6126 273.82 49.4711 271.942 49.9541C270.01 50.437 267.703 50.7053 264.966 50.7053H248.386C245.649 50.7053 243.342 50.437 241.464 49.9541C239.586 49.4711 238.03 48.6126 236.849 47.5394C235.615 46.3589 234.756 44.9101 234.22 43.1394C233.63 41.315 233.361 39.115 233.361 36.5393V27.31C233.361 24.7344 233.63 22.5343 234.22 20.7636C234.756 18.9929 235.615 17.4904 236.849 16.3636C238.03 15.2367 239.586 14.4319 241.464 13.8953C243.342 13.4123 245.649 13.144 248.386 13.144H264.966ZM241.571 35.9491C241.571 37.3442 241.678 38.5247 241.947 39.4369C242.161 40.4028 242.537 41.154 243.074 41.6906C243.61 42.2808 244.361 42.6564 245.274 42.8711C246.186 43.1394 247.313 43.2467 248.708 43.2467H264.645C266.04 43.2467 267.22 43.1394 268.132 42.8711C269.045 42.6564 269.742 42.2808 270.279 41.6906C270.815 41.154 271.191 40.4028 271.459 39.4369C271.674 38.5247 271.781 37.3442 271.781 35.9491V27.9002C271.781 26.5051 271.674 25.3246 271.459 24.3588C271.191 23.4466 270.815 22.6953 270.279 22.1051C269.742 21.5685 269.045 21.1929 268.132 20.9246C267.22 20.7099 266.04 20.6026 264.645 20.6026H248.708C247.313 20.6026 246.186 20.7099 245.274 20.9246C244.361 21.1929 243.61 21.5685 243.074 22.1051C242.537 22.6953 242.161 23.4466 241.947 24.3588C241.678 25.3246 241.571 26.5051 241.571 27.9002V35.9491Z" fill="white"/>
<path fillRule="evenodd" clipRule="evenodd" d="M226.659 49.5194C226.659 50.3183 226.265 50.7179 225.477 50.7179H219.682C218.859 50.7179 218.449 50.3183 218.449 49.5194V26.6718C218.449 25.8729 218.859 25.4733 219.682 25.4733H225.477C226.265 25.4733 226.659 25.8729 226.659 26.6718V49.5194ZM218.449 14.3159C218.449 13.5436 218.859 13.144 219.682 13.144H225.477C226.265 13.144 226.659 13.5436 226.659 14.3159V20.1742C226.659 20.973 226.265 21.346 225.477 21.346H219.682C218.859 21.346 218.449 20.973 218.449 20.1742V14.3159Z" fill="white"/>
<path fillRule="evenodd" clipRule="evenodd" d="M5.4375 50.7979L9.19863 71.6874C9.22719 71.8464 9.35336 71.9702 9.51285 71.9959C9.67234 72.0216 9.83088 71.9435 9.908 71.8017C11.8743 68.1848 18.8428 55.366 20.292 52.7004C20.3773 52.5437 20.4149 52.3695 20.4016 52.1981L5.4375 50.7979Z" fill="url(#paint0_linear_13621_55853)"/>
<path fillRule="evenodd" clipRule="evenodd" d="M5.43753 50.7982L20.4016 52.1984L20.263 51.7418C18.0987 48.273 4.60342 26.6436 0.71184 20.4068C0.615193 20.2516 0.421902 20.1874 0.251461 20.2531C0.0810201 20.3188 -0.0184834 20.4963 0.0138909 20.6758L5.43753 50.7982Z" fill="url(#paint1_linear_13621_55853)"/>
<path fillRule="evenodd" clipRule="evenodd" d="M37.1053 44.0701L22.2418 71.4045C22.158 71.5583 22.1899 71.7492 22.3189 71.8672C22.4484 71.9853 22.6412 72.0006 22.7869 71.9034C28.3391 68.217 50.2293 53.6805 53.5586 51.47L53.8628 51.1363L37.1053 44.0701Z" fill="url(#paint2_linear_13621_55853)"/>
<path fillRule="evenodd" clipRule="evenodd" d="M37.1055 44.0716L53.863 51.1378C53.9425 51.0002 53.9844 50.8417 53.9844 50.6784C53.9844 46.7292 53.9844 21.0402 53.9844 14.5301C53.9844 14.3559 53.8663 14.204 53.6973 14.1611C53.5288 14.1178 53.3521 14.1949 53.2688 14.3482L37.1055 44.0716Z" fill="url(#paint3_linear_13621_55853)"/>
<path fillRule="evenodd" clipRule="evenodd" d="M42.7723 10.6272L42.7747 10.6305C42.8932 10.9005 42.8804 11.2104 42.7395 11.4694L26.7866 40.7676C26.7056 40.9162 26.5518 41.0109 26.3823 41.0157C26.2129 41.0209 26.0538 40.9352 25.9643 40.7914L14.7305 22.7528L42.7723 10.6272Z" fill="url(#paint4_linear_13621_55853)"/>
<path fillRule="evenodd" clipRule="evenodd" d="M14.7306 22.7522L1.01439 0.728129C0.912031 0.563401 0.919173 0.352968 1.03343 0.196334C1.14722 0.0396995 1.3448 -0.0326662 1.53333 0.0139908C7.58732 1.51654 35.9405 8.55271 42.1326 10.0891C42.4177 10.16 42.6539 10.358 42.7724 10.6266L14.7306 22.7522Z" fill="url(#paint5_linear_13621_55853)"/>
<defs>
<linearGradient id="paint0_linear_13621_55853" x1="13.7929" y1="52.6928" x2="8.90226" y2="69.583" gradientUnits="userSpaceOnUse">
<stop stopColor="#D275F7"/>
<stop offset="1" stopColor="#FA9D3E"/>
</linearGradient>
<linearGradient id="paint1_linear_13621_55853" x1="2.99523" y1="36.4478" x2="17.0655" y2="58.2006" gradientUnits="userSpaceOnUse">
<stop stopColor="#D275F7"/>
<stop offset="1" stopColor="#7A87F7"/>
</linearGradient>
<linearGradient id="paint2_linear_13621_55853" x1="26.8446" y1="72.8489" x2="53.8625" y2="42.6681" gradientUnits="userSpaceOnUse">
<stop stopColor="#D275F7"/>
<stop offset="1" stopColor="#0EF0FE"/>
</linearGradient>
<linearGradient id="paint3_linear_13621_55853" x1="57.4032" y1="28.9471" x2="44.5146" y2="43.6657" gradientUnits="userSpaceOnUse">
<stop stopColor="#D275F7"/>
<stop offset="1" stopColor="#7A87F7"/>
</linearGradient>
<linearGradient id="paint4_linear_13621_55853" x1="28.9499" y1="16.5994" x2="28.5256" y2="32.3622" gradientUnits="userSpaceOnUse">
<stop stopColor="#7A87F7"/>
<stop offset="1" stopColor="#D275F7"/>
</linearGradient>
<linearGradient id="paint5_linear_13621_55853" x1="0.157187" y1="1.53053" x2="37.1822" y2="21.0372" gradientUnits="userSpaceOnUse">
<stop stopColor="#0EF0FE"/>
<stop offset="1" stopColor="#D275F7"/>
</linearGradient>
</defs>
</svg>
