<svg width="28" height="28" viewBox="0 0 28 28" fill="none" xmlns="http://www.w3.org/2000/svg">
<path d="M14 28C21.732 28 28 21.732 28 14C28 6.26801 21.732 0 14 0C6.26801 0 0 6.26801 0 14C0 21.732 6.26801 28 14 28Z" fill="#13B5EC"/>
<path fillRule="evenodd" clipRule="evenodd" d="M15.05 11.2875L18.2 9.45V13.125L15.05 11.2875ZM18.2 19.1625L14 21.6125L9.8 19.1625V14.875L14 17.325L18.2 14.875V19.1625ZM9.8 9.45L12.95 11.2875L9.8 13.125V9.45ZM14.525 12.1625L17.675 14L14.525 15.8375V12.1625ZM13.475 15.8375L10.325 14L13.475 12.1625V15.8375ZM17.675 8.575L14 10.675L10.325 8.575L14 6.3875L17.675 8.575ZM8.75 8.225V19.6875L14 22.6625L19.25 19.6875V8.225L14 5.25L8.75 8.225Z" fill="white"/>
</svg>
