<svg width="24" height="20" viewBox="0 0 24 20" fill="none" xmlns="http://www.w3.org/2000/svg">
<path d="M23.643 2.93659C22.808 3.30659 21.911 3.55659 20.968 3.66959C21.941 3.08738 22.6689 2.17105 23.016 1.09159C22.1018 1.63458 21.1013 2.01678 20.058 2.22159C19.3564 1.47245 18.4271 0.975915 17.4143 0.809063C16.4016 0.642211 15.3621 0.81438 14.4572 1.29884C13.5524 1.7833 12.8328 2.55295 12.4102 3.48829C11.9875 4.42363 11.8855 5.47234 12.12 6.47159C10.2677 6.37858 8.45562 5.89714 6.80142 5.05849C5.14722 4.21985 3.68784 3.04275 2.518 1.60359C2.118 2.29359 1.888 3.09359 1.888 3.94559C1.88755 4.71258 2.07643 5.46783 2.43788 6.14432C2.79932 6.82081 3.32216 7.39763 3.96 7.82359C3.22027 7.80005 2.49687 7.60017 1.85 7.24059V7.30059C1.84992 8.37633 2.22203 9.41897 2.90318 10.2516C3.58433 11.0842 4.53257 11.6555 5.587 11.8686C4.90078 12.0543 4.18133 12.0817 3.483 11.9486C3.78049 12.8742 4.35999 13.6836 5.14036 14.2635C5.92074 14.8434 6.86291 15.1648 7.835 15.1826C6.18483 16.478 4.14688 17.1807 2.049 17.1776C1.67738 17.1777 1.30607 17.156 0.936996 17.1126C3.06647 18.4818 5.54534 19.2084 8.077 19.2056C16.647 19.2056 21.332 12.1076 21.332 5.95159C21.332 5.75159 21.327 5.54959 21.318 5.34959C22.2293 4.69056 23.0159 3.87448 23.641 2.93959L23.643 2.93659Z" fill="url(#paint0_linear_7224_620)"/>
<defs>
<linearGradient id="paint0_linear_7224_620" x1="2.8448" y1="155.877" x2="25.4558" y2="155.877" gradientUnits="userSpaceOnUse">
<stop stopColor="#F37AD1"/>
<stop offset="0.5" stopColor="#9882F4"/>
<stop offset="1" stopColor="#55EED0"/>
</linearGradient>
</defs>
</svg>
