<svg width="1171" height="301" viewBox="0 0 1171 301" fill="none" xmlns="http://www.w3.org/2000/svg">
<path d="M1171 70.3262V299.999H1V254.414L28.3889 250.781L84.2881 219.402L115.857 257.081L215.685 189.539L288.209 185.273L371.825 189.539L451.175 162.236L523.699 185.273L660.355 140.082H716.744L768.574 124.485L803.127 140.082L902.586 119.459L963.072 124.485L1011.77 140.082L1065.36 124.485H1112.66L1171 70.3262Z" fill="url(#paint0_linear_4442_192184)"/>
<path d="M1168.51 72.0156L1112.66 124.485H1065.36L1011.77 140.082L963.072 124.485L902.586 119.458L803.127 140.082L768.574 124.485L716.744 140.082H660.355L523.699 185.272L451.175 162.235L371.825 189.538L288.209 185.272L215.685 189.538L115.857 257.08L84.2881 219.401L28.3889 250.781L1 254.414" stroke="#48D5BC" stroke-width="2"/>
<path d="M1168.51 72.0156L1112.66 124.485H1065.36L1011.77 140.082L963.072 124.485L902.586 119.458L803.127 140.082L768.574 124.485L716.744 140.082H660.355" stroke="#AFAFAF" stroke-width="2"/>
<g clip-path="url(#clip0_4442_192184)">
<circle cx="660" cy="140.002" r="3" fill="#48D5BC"/>
</g>
<defs>
<linearGradient id="paint0_linear_4442_192184" x1="586" y1="70.3262" x2="586" y2="299.999" gradientUnits="userSpaceOnUse">
<stop stopColor="#AFAFAF" stop-opacity="0.1"/>
<stop offset="0.998978" stopColor="#AFAFAF" stop-opacity="0"/>
</linearGradient>
<clipPath id="clip0_4442_192184">
<rect width="6" height="300" fill="white" transform="translate(657 0.00195312)"/>
</clipPath>
</defs>
</svg>
