<svg width="1171" height="230" viewBox="0 0 1171 230" fill="none" xmlns="http://www.w3.org/2000/svg">
<path d="M1171 0.326172V229.999H1V184.414L28.3889 180.781L84.2881 149.402L115.857 187.081L215.685 119.539L288.209 115.273L371.825 119.539L451.175 92.2356L523.699 115.273L660.355 70.0825H716.744L768.574 54.4855L803.127 70.0825L902.586 49.4586L963.072 54.4855L1011.77 70.0825L1065.36 54.4855H1112.66L1171 0.326172Z" fill="url(#paint0_linear_4411_191101)"/>
<path d="M1168.51 2.01562L1112.66 54.4851H1065.36L1011.77 70.0821L963.072 54.4851L902.586 49.4582L803.127 70.0821L768.574 54.4851L716.744 70.0821H660.355L523.699 115.272L451.175 92.2352L371.825 119.538L288.209 115.272L215.685 119.538L115.857 187.08L84.2881 149.401L28.3889 180.781L1 184.414" stroke="#48D5BC" stroke-width="2"/>
<defs>
<linearGradient id="paint0_linear_4411_191101" x1="586" y1="0.326172" x2="586" y2="229.999" gradientUnits="userSpaceOnUse">
<stop stopColor="#56F6DA" stop-opacity="0.2"/>
<stop offset="0.998978" stopColor="#56F6DA" stop-opacity="0"/>
</linearGradient>
</defs>
</svg>
