<svg width="16" height="17" viewBox="0 0 16 17" fill="none" xmlns="http://www.w3.org/2000/svg">
<path d="M7.99962 4.50586C7.30432 4.50674 6.63774 4.78334 6.14609 5.27499C5.65443 5.76665 5.37784 6.43322 5.37695 7.12853H6.71029C6.71029 6.41719 7.28895 5.83919 7.99962 5.83919C8.71029 5.83919 9.28895 6.41719 9.28895 7.12853C9.28895 7.52719 8.96829 7.81653 8.47829 8.21253C8.31821 8.33793 8.16447 8.4712 8.01762 8.61186C7.35229 9.27653 7.33295 9.98253 7.33295 10.0612V10.5059H8.66629L8.66562 10.0839C8.66629 10.0732 8.68762 9.82653 8.95962 9.55519C9.05962 9.45519 9.18562 9.35519 9.31629 9.24986C9.83562 8.82919 10.6216 8.19386 10.6216 7.12853C10.6211 6.43323 10.3447 5.76655 9.85311 5.27484C9.36152 4.78313 8.69492 4.50657 7.99962 4.50586ZM7.33295 11.1725H8.66629V12.5059H7.33295V11.1725Z" fill="#19CFDD"/>
<path d="M7.99967 1.83887C4.32367 1.83887 1.33301 4.82953 1.33301 8.50553C1.33301 12.1815 4.32367 15.1722 7.99967 15.1722C11.6757 15.1722 14.6663 12.1815 14.6663 8.50553C14.6663 4.82953 11.6757 1.83887 7.99967 1.83887ZM7.99967 13.8389C5.05901 13.8389 2.66634 11.4462 2.66634 8.50553C2.66634 5.56487 5.05901 3.1722 7.99967 3.1722C10.9403 3.1722 13.333 5.56487 13.333 8.50553C13.333 11.4462 10.9403 13.8389 7.99967 13.8389Z" fill="#19CFDD"/>
</svg>
