<svg width="41" height="41" viewBox="0 0 41 41" fill="none" xmlns="http://www.w3.org/2000/svg">
<path d="M0.5 10.75C0.5 5.22715 4.97715 0.75 10.5 0.75H30.5C36.0228 0.75 40.5 5.22715 40.5 10.75V30.75C40.5 36.2728 36.0228 40.75 30.5 40.75H10.5C4.97715 40.75 0.5 36.2728 0.5 30.75V10.75Z" fill="#F0F0F0"/>
<path d="M25.1667 25.4167H15.8333V16.0833H20.5V14.75H15.8333C15.4797 14.75 15.1406 14.8905 14.8905 15.1405C14.6405 15.3906 14.5 15.7297 14.5 16.0833V25.4167C14.5 25.7703 14.6405 26.1094 14.8905 26.3595C15.1406 26.6095 15.4797 26.75 15.8333 26.75H25.1667C25.9 26.75 26.5 26.15 26.5 25.4167V20.75H25.1667V25.4167ZM21.8333 14.75V16.0833H24.2267L17.6733 22.6367L18.6133 23.5767L25.1667 17.0233V19.4167H26.5V14.75H21.8333Z" fill="#212030"/>
<path d="M10.5 2.25H30.5V-0.75H10.5V2.25ZM39 10.75V30.75H42V10.75H39ZM30.5 39.25H10.5V42.25H30.5V39.25ZM2 30.75V10.75H-1V30.75H2ZM10.5 39.25C5.80558 39.25 2 35.4444 2 30.75H-1C-1 37.1013 4.14873 42.25 10.5 42.25V39.25ZM39 30.75C39 35.4444 35.1944 39.25 30.5 39.25V42.25C36.8513 42.25 42 37.1013 42 30.75H39ZM30.5 2.25C35.1944 2.25 39 6.05558 39 10.75H42C42 4.39873 36.8513 -0.75 30.5 -0.75V2.25ZM10.5 -0.75C4.14873 -0.75 -1 4.39873 -1 10.75H2C2 6.05558 5.80558 2.25 10.5 2.25V-0.75Z" fill="url(#paint0_linear_7395_44827)"/>
<defs>
<linearGradient id="paint0_linear_7395_44827" x1="6.08531" y1="6.63675" x2="34.4912" y2="35.0448" gradientUnits="userSpaceOnUse">
<stop stopColor="#05E8FC"/>
<stop offset="1" stopColor="#FE0291"/>
</linearGradient>
</defs>
</svg>
