<svg width="187" height="49" viewBox="0 0 187 49" fill="none" xmlns="http://www.w3.org/2000/svg">
<path d="M49.1891 9.08984C49.5826 9.08984 49.8688 9.23293 50.0476 9.51911L59.5989 22.433L69.2218 9.51911C69.4007 9.23293 69.6868 9.08984 70.0803 9.08984H74.7666C74.9454 9.08984 75.0885 9.16139 75.1601 9.30448C75.2316 9.48334 75.1958 9.62643 75.0885 9.8053L62.2461 26.4753V33.3437C62.2461 33.8803 61.9957 34.1307 61.4591 34.1307H57.5957C57.0591 34.1307 56.7729 33.8803 56.7729 33.3437V26.4753L44.0736 9.8053C43.9663 9.62643 43.9305 9.48334 44.0021 9.30448C44.0378 9.16139 44.1809 9.08984 44.3956 9.08984H49.1891Z" fill="white"/>
<path d="M101.627 9.08984C102.164 9.08984 102.414 9.34025 102.414 9.87684V13.2752C102.414 13.8118 102.164 14.0622 101.627 14.0622H83.7051C83.0254 14.0622 82.5246 14.2411 82.2384 14.5988C81.9523 14.9566 81.8092 15.4574 81.8092 16.0655V17.2818C81.8092 18.6054 82.4173 19.285 83.6693 19.285H97.0841C99.1589 19.285 100.733 19.8216 101.77 20.859C102.808 21.9322 103.344 23.4704 103.344 25.4379V28.2997C103.344 30.0526 102.844 31.4477 101.806 32.5209C100.769 33.5941 99.1947 34.1307 97.0126 34.1307H77.1945C76.6579 34.1307 76.3717 33.8803 76.3717 33.3437V29.9453C76.3717 29.4087 76.6579 29.1583 77.1945 29.1583H95.9751C96.6548 29.1583 97.1556 28.9794 97.4418 28.6217C97.728 28.264 97.8711 27.7631 97.8711 27.155V25.6883C97.8711 24.3647 97.263 23.6851 96.0109 23.6851H82.5962C80.5213 23.6851 78.9473 23.1485 77.9099 22.0753C76.8725 21.0379 76.3359 19.4997 76.3359 17.5322V14.9208C76.3359 13.1679 76.8368 11.7728 77.8742 10.6996C78.9116 9.62643 80.4856 9.08984 82.6677 9.08984H101.627Z" fill="white"/>
<path d="M112.038 9.08984C112.574 9.08984 112.825 9.34025 112.825 9.87684V24.1501C112.825 25.116 112.896 25.903 113.075 26.5111C113.218 27.155 113.469 27.6558 113.826 28.0136C114.184 28.4071 114.685 28.6575 115.257 28.8006C115.901 28.9794 116.652 29.051 117.583 29.051H132.07C132.607 29.051 132.857 29.3014 132.857 29.838V33.3437C132.857 33.8803 132.607 34.1307 132.07 34.1307H117.368C115.544 34.1307 114.005 33.9518 112.753 33.6299C111.501 33.3079 110.464 32.7355 109.677 32.0201C108.854 31.2331 108.282 30.2672 107.924 29.0867C107.53 27.8705 107.352 26.4038 107.352 24.6867V9.87684C107.352 9.34025 107.638 9.08984 108.174 9.08984H112.038Z" fill="white"/>
<path d="M140.258 29.1221C140.795 29.1221 141.045 29.3725 141.045 29.9091V33.3432C141.045 33.8798 140.795 34.1302 140.258 34.1302H136.752C136.216 34.1302 135.93 33.8798 135.93 33.3432V29.9091C135.93 29.3725 136.216 29.1221 136.752 29.1221H140.258Z" fill="white"/>
<path d="M176.639 9.08984C178.464 9.08984 180.002 9.26871 181.29 9.59066C182.542 9.94839 183.579 10.485 184.402 11.2362C185.189 11.9874 185.761 12.9891 186.119 14.1696C186.477 15.35 186.656 16.8167 186.656 18.5338V24.6867C186.656 26.4038 186.477 27.8705 186.119 29.0867C185.761 30.2672 185.189 31.2331 184.402 32.0201C183.579 32.7355 182.542 33.3079 181.29 33.6299C180.002 33.9518 178.464 34.1307 176.639 34.1307H165.586C163.761 34.1307 162.223 33.9518 160.971 33.6299C159.719 33.3079 158.682 32.7355 157.895 32.0201C157.072 31.2331 156.499 30.2672 156.142 29.0867C155.748 27.8705 155.569 26.4038 155.569 24.6867V18.5338C155.569 16.8167 155.748 15.35 156.142 14.1696C156.499 12.9891 157.072 11.9874 157.895 11.2362C158.682 10.485 159.719 9.94839 160.971 9.59066C162.223 9.26871 163.761 9.08984 165.586 9.08984H176.639ZM161.043 24.2932C161.043 25.2233 161.114 26.0103 161.293 26.6184C161.436 27.2623 161.686 27.7631 162.044 28.1209C162.402 28.5144 162.903 28.7648 163.511 28.9079C164.119 29.0867 164.87 29.1583 165.8 29.1583H176.425C177.355 29.1583 178.142 29.0867 178.75 28.9079C179.358 28.7648 179.823 28.5144 180.181 28.1209C180.539 27.7631 180.789 27.2623 180.968 26.6184C181.111 26.0103 181.183 25.2233 181.183 24.2932V18.9273C181.183 17.9972 181.111 17.2102 180.968 16.5663C180.789 15.9582 180.539 15.4574 180.181 15.0639C179.823 14.7061 179.358 14.4557 178.75 14.2769C178.142 14.1338 177.355 14.0622 176.425 14.0622H165.8C164.87 14.0622 164.119 14.1338 163.511 14.2769C162.903 14.4557 162.402 14.7061 162.044 15.0639C161.686 15.4574 161.436 15.9582 161.293 16.5663C161.114 17.2102 161.043 17.9972 161.043 18.9273V24.2932Z" fill="white"/>
<path fillRule="evenodd" clipRule="evenodd" d="M151.101 33.3401C151.101 33.8727 150.838 34.1391 150.313 34.1391H146.45C145.901 34.1391 145.628 33.8727 145.628 33.3401V18.1084C145.628 17.5758 145.901 17.3094 146.45 17.3094H150.313C150.838 17.3094 151.101 17.5758 151.101 18.1084V33.3401ZM145.628 9.87108C145.628 9.35625 145.901 9.08984 146.45 9.08984H150.313C150.838 9.08984 151.101 9.35625 151.101 9.87108V13.7766C151.101 14.3092 150.838 14.5578 150.313 14.5578H146.45C145.901 14.5578 145.628 14.3092 145.628 13.7766V9.87108Z" fill="white"/>
<path fillRule="evenodd" clipRule="evenodd" d="M3.61914 34.1924L6.12656 48.1187C6.1456 48.2247 6.22971 48.3072 6.33604 48.3244C6.44237 48.3415 6.54806 48.2895 6.59948 48.1949C7.91032 45.7836 12.556 37.2378 13.5222 35.4607C13.579 35.3563 13.6041 35.2401 13.5952 35.1258L3.61914 34.1924Z" fill="url(#paint0_linear_13395_16699)"/>
<path fillRule="evenodd" clipRule="evenodd" d="M3.61981 34.193L13.5958 35.1264L13.5035 34.822C12.0606 32.5095 3.06374 18.0899 0.469352 13.9321C0.40492 13.8286 0.27606 13.7858 0.162432 13.8296C0.0488051 13.8734 -0.0175306 13.9917 0.00405225 14.1114L3.61981 34.193Z" fill="url(#paint1_linear_13395_16699)"/>
<path fillRule="evenodd" clipRule="evenodd" d="M24.731 29.707L14.822 47.9299C14.7661 48.0325 14.7874 48.1597 14.8734 48.2384C14.9597 48.3172 15.0883 48.3273 15.1854 48.2626C18.8869 45.805 33.4803 36.114 35.6999 34.6403L35.9027 34.4178L24.731 29.707Z" fill="url(#paint2_linear_13395_16699)"/>
<path fillRule="evenodd" clipRule="evenodd" d="M24.7314 29.7081L35.9031 34.4188C35.9561 34.3271 35.984 34.2214 35.984 34.1126C35.984 31.4798 35.984 14.3538 35.984 10.0137C35.984 9.89755 35.9053 9.7963 35.7927 9.76774C35.6803 9.73885 35.5626 9.79027 35.507 9.89248L24.7314 29.7081Z" fill="url(#paint3_linear_13395_16699)"/>
<path fillRule="evenodd" clipRule="evenodd" d="M28.51 7.41211L28.5116 7.41433C28.5906 7.5943 28.582 7.80092 28.4881 7.97358L17.8528 27.5057C17.7989 27.6048 17.6963 27.6679 17.5834 27.6711C17.4704 27.6746 17.3644 27.6175 17.3047 27.5216L9.81543 15.4958L28.51 7.41211Z" fill="url(#paint4_linear_13395_16699)"/>
<path fillRule="evenodd" clipRule="evenodd" d="M9.81519 15.4953L0.671052 0.812568C0.602812 0.702749 0.607573 0.562461 0.683748 0.458038C0.759606 0.353615 0.891323 0.305371 1.01701 0.336476C5.053 1.33817 23.9551 6.02895 28.0832 7.05318C28.2733 7.10048 28.4307 7.23251 28.5097 7.41152L9.81519 15.4953Z" fill="url(#paint5_linear_13395_16699)"/>
<defs>
<linearGradient id="paint0_linear_13395_16699" x1="9.18942" y1="35.4556" x2="5.92898" y2="46.7158" gradientUnits="userSpaceOnUse">
<stop stopColor="#D275F7"/>
<stop offset="1" stopColor="#FA9D3E"/>
</linearGradient>
<linearGradient id="paint1_linear_13395_16699" x1="1.99161" y1="24.6261" x2="11.3718" y2="39.1279" gradientUnits="userSpaceOnUse">
<stop stopColor="#D275F7"/>
<stop offset="1" stopColor="#7A87F7"/>
</linearGradient>
<linearGradient id="paint2_linear_13395_16699" x1="17.8905" y1="48.8929" x2="35.9024" y2="28.7724" gradientUnits="userSpaceOnUse">
<stop stopColor="#D275F7"/>
<stop offset="1" stopColor="#0EF0FE"/>
</linearGradient>
<linearGradient id="paint3_linear_13395_16699" x1="38.2633" y1="19.6251" x2="29.6708" y2="29.4374" gradientUnits="userSpaceOnUse">
<stop stopColor="#D275F7"/>
<stop offset="1" stopColor="#7A87F7"/>
</linearGradient>
<linearGradient id="paint4_linear_13395_16699" x1="19.2951" y1="11.3936" x2="19.0122" y2="21.9021" gradientUnits="userSpaceOnUse">
<stop stopColor="#7A87F7"/>
<stop offset="1" stopColor="#D275F7"/>
</linearGradient>
<linearGradient id="paint5_linear_13395_16699" x1="0.0995832" y1="1.3475" x2="24.7829" y2="14.3519" gradientUnits="userSpaceOnUse">
<stop stopColor="#0EF0FE"/>
<stop offset="1" stopColor="#D275F7"/>
</linearGradient>
</defs>
</svg>
