<svg width="28" height="28" viewBox="0 0 28 28" fill="none" xmlns="http://www.w3.org/2000/svg">
<path d="M27.75 14C27.75 21.594 21.5939 27.75 14 27.75C6.40608 27.75 0.25 21.594 0.25 14C0.25 6.40609 6.40608 0.25 14 0.25C21.5939 0.25 27.75 6.40609 27.75 14Z" fill="white" stroke="#F4F4F4" stroke-width="0.5"/>
<path d="M18.6768 10.8902C18.3444 10.7003 17.9171 10.7003 17.5373 10.8902L14.8785 12.457L13.0744 13.454L10.4631 15.0208C10.1308 15.2107 9.70346 15.2107 9.32363 15.0208L7.28209 13.7863C6.94975 13.5964 6.71236 13.2166 6.71236 12.7893V10.4154C6.71236 10.0356 6.90227 9.65579 7.28209 9.4184L9.32363 8.23145C9.65598 8.04154 10.0833 8.04154 10.4631 8.23145L12.5046 9.46588C12.837 9.65579 13.0744 10.0356 13.0744 10.4629V12.0297L14.8785 10.9852V9.37092C14.8785 8.9911 14.6886 8.61128 14.3088 8.37389L10.5106 6.14243C10.1782 5.95252 9.75093 5.95252 9.37111 6.14243L5.47794 8.42136C5.09811 8.61128 4.9082 8.9911 4.9082 9.37092V13.8338C4.9082 14.2136 5.09811 14.5935 5.47794 14.8309L9.32363 17.0623C9.65598 17.2522 10.0833 17.2522 10.4631 17.0623L13.0744 15.543L14.8785 14.4985L17.4898 12.9792C17.8222 12.7893 18.2495 12.7893 18.6293 12.9792L20.6708 14.1662C21.0032 14.3561 21.2405 14.7359 21.2405 15.1632V17.5371C21.2405 17.9169 21.0506 18.2967 20.6708 18.5341L18.6768 19.7211C18.3444 19.911 17.9171 19.911 17.5373 19.7211L15.4957 18.5341C15.1634 18.3442 14.926 17.9644 14.926 17.5371V16.0178L13.1219 17.0623V18.6291C13.1219 19.0089 13.3118 19.3887 13.6916 19.6261L17.5373 21.8576C17.8696 22.0475 18.2969 22.0475 18.6768 21.8576L22.5224 19.6261C22.8548 19.4362 23.0922 19.0564 23.0922 18.6291V14.1187C23.0922 13.7389 22.9023 13.3591 22.5224 13.1217L18.6768 10.8902Z" fill="#8247E5"/>
</svg>
