<svg width="16" height="17" viewBox="0 0 16 17" fill="none" xmlns="http://www.w3.org/2000/svg">
<path d="M8.66634 5.4974H7.33301V8.16406H4.66634V9.4974H7.33301V12.1641H8.66634V9.4974H11.333V8.16406H8.66634V5.4974Z" fill="#2EA5E8"/>
<path d="M7.99967 2.16406C4.32367 2.16406 1.33301 5.15473 1.33301 8.83073C1.33301 12.5067 4.32367 15.4974 7.99967 15.4974C11.6757 15.4974 14.6663 12.5067 14.6663 8.83073C14.6663 5.15473 11.6757 2.16406 7.99967 2.16406ZM7.99967 14.1641C5.05901 14.1641 2.66634 11.7714 2.66634 8.83073C2.66634 5.89006 5.05901 3.4974 7.99967 3.4974C10.9403 3.4974 13.333 5.89006 13.333 8.83073C13.333 11.7714 10.9403 14.1641 7.99967 14.1641Z" fill="#2EA5E8"/>
</svg>
