<svg width="18" height="16" viewBox="0 0 18 16" fill="none" xmlns="http://www.w3.org/2000/svg">
<path d="M16.5633 2.55781L18 1.17734V0.875H13.0242L9.47813 9.74375L5.44453 0.875H0.227344V1.17734L1.90547 3.20703C2.06953 3.35703 2.15391 3.57734 2.13281 3.79766V11.7734C2.18438 12.0617 2.09297 12.3547 1.89141 12.5633L0 14.8672V15.1648H5.35781V14.8625L3.46875 12.5656C3.36754 12.4629 3.2914 12.3381 3.24628 12.2011C3.20116 12.0641 3.18826 11.9186 3.20859 11.7758V4.87578L7.9125 15.1695H8.45859L12.5039 4.87578V13.0766C12.5039 13.2922 12.5039 13.3367 12.3633 13.4797L10.9078 14.893V15.1953H17.9672V14.893L16.5633 13.5125C16.4414 13.4188 16.3781 13.2617 16.4039 13.1094V2.96094C16.3918 2.88562 16.4002 2.80843 16.4282 2.73748C16.4563 2.66654 16.5029 2.60447 16.5633 2.55781Z" fill="#5C5B63"/>

</svg>
