<svg width="32" height="33" viewBox="0 0 32 33" fill="none" xmlns="http://www.w3.org/2000/svg">
<path d="M30.3618 1.6413L17.9092 10.8792L20.2248 5.43498L30.3618 1.6413Z" fill="#E17726"/>
<path fillRule="evenodd" clipRule="evenodd" d="M30.416 1.612C30.4307 1.63896 30.4232 1.67261 30.3986 1.69089L17.9459 10.9288C17.9236 10.9453 17.893 10.9449 17.8711 10.9277C17.8493 10.9105 17.8417 10.8808 17.8526 10.8552L20.1682 5.41101C20.1748 5.39549 20.1875 5.38335 20.2033 5.37744L30.3403 1.58375C30.3691 1.57299 30.4013 1.58504 30.416 1.612ZM20.2712 5.48353L18.0547 10.6947L29.9744 1.8522L20.2712 5.48353Z" fill="#E17726"/>
<path d="M1.63867 1.6413L13.9805 10.9654L11.7757 5.43498L1.63867 1.6413Z" fill="#E27625"/>
<path fillRule="evenodd" clipRule="evenodd" d="M1.58379 1.61177C1.59852 1.58496 1.6307 1.57303 1.65935 1.58375L11.7964 5.37744C11.8126 5.38352 11.8256 5.39618 11.832 5.41231L14.0368 10.9427C14.047 10.9684 14.0389 10.9977 14.0169 11.0145C13.9949 11.0313 13.9645 11.0313 13.9424 11.0147L1.60064 1.69057C1.57623 1.67213 1.56906 1.63857 1.58379 1.61177ZM2.0127 1.8475L13.8407 10.7834L11.7277 5.48324L2.0127 1.8475Z" fill="#E27625"/>
<path d="M25.8787 23.061L22.5654 28.1357L29.6601 30.0941L31.6924 23.1719L25.8787 23.061Z" fill="#E27625"/>
<path fillRule="evenodd" clipRule="evenodd" d="M25.8272 23.0272C25.8388 23.0094 25.8588 22.9989 25.88 22.9993L31.6937 23.1101C31.7129 23.1105 31.7308 23.1198 31.7422 23.1353C31.7535 23.1507 31.757 23.1706 31.7516 23.1891L29.7193 30.1113C29.7098 30.1436 29.6762 30.1623 29.6438 30.1533L22.5491 28.1949C22.5302 28.1897 22.5148 28.1757 22.5079 28.1573C22.5009 28.1389 22.5032 28.1183 22.5139 28.1019L25.8272 23.0272ZM25.9117 23.1231L22.6632 28.0986L29.6182 30.0185L31.6107 23.2317L25.9117 23.1231Z" fill="#E27625"/>
<path d="M0.320312 23.1719L2.34033 30.0941L9.4227 28.1357L6.1217 23.061L0.320312 23.1719Z" fill="#E27625"/>
<path fillRule="evenodd" clipRule="evenodd" d="M6.12058 22.9993C6.14184 22.9989 6.1618 23.0095 6.17339 23.0273L9.47439 28.1019C9.4851 28.1184 9.48731 28.139 9.48035 28.1573C9.4734 28.1757 9.4581 28.1897 9.43918 28.1949L2.3568 30.1533C2.32435 30.1623 2.2907 30.1435 2.28127 30.1112L0.261255 23.189C0.255883 23.1705 0.259394 23.1507 0.270753 23.1352C0.282113 23.1198 0.300023 23.1105 0.319199 23.1101L6.12058 22.9993ZM0.402049 23.2317L2.3825 30.0184L9.32527 28.0986L6.08877 23.1231L0.402049 23.2317Z" fill="#E27625"/>
<path d="M9.04106 14.4883L7.07031 17.469L14.0911 17.7893L13.8571 10.2142L9.04106 14.4883Z" fill="#E27625"/>
<path fillRule="evenodd" clipRule="evenodd" d="M13.8815 10.1574C13.9035 10.1669 13.918 10.1882 13.9187 10.2121L14.1527 17.7871C14.1532 17.8043 14.1466 17.8209 14.1344 17.8329C14.1222 17.845 14.1055 17.8514 14.0884 17.8506L7.06757 17.5303C7.04542 17.5293 7.02553 17.5165 7.01548 17.4967C7.00543 17.477 7.00678 17.4533 7.019 17.4348L8.98975 14.4541C8.99271 14.4496 8.99623 14.4455 9.00024 14.442L13.8163 10.1679C13.8341 10.1521 13.8596 10.148 13.8815 10.1574ZM9.08804 14.5288L7.18161 17.4122L14.0276 17.7245L13.7996 10.3474L9.08804 14.5288Z" fill="#E27625"/>
<path d="M22.9592 14.4883L18.0693 10.128L17.9092 17.7893L24.93 17.469L22.9592 14.4883Z" fill="#E27625"/>
<path fillRule="evenodd" clipRule="evenodd" d="M18.0448 10.0717C18.0668 10.0621 18.0924 10.0662 18.1104 10.0821L23.0003 14.4424C23.0042 14.446 23.0077 14.45 23.0107 14.4544L24.9814 17.4352C24.9936 17.4537 24.995 17.4773 24.9849 17.4971C24.9749 17.5168 24.955 17.5297 24.9328 17.5307L17.912 17.8509C17.895 17.8517 17.8784 17.8454 17.8662 17.8335C17.854 17.8216 17.8473 17.8051 17.8477 17.7881L18.0078 10.1268C18.0083 10.1028 18.0227 10.0813 18.0448 10.0717ZM18.1281 10.263L17.9722 17.7249L24.8188 17.4126L22.9123 14.529L18.1281 10.263Z" fill="#E27625"/>
<path d="M9.42285 28.1357L13.6723 26.0787L10.0141 23.2211L9.42285 28.1357Z" fill="#E27625"/>
<path fillRule="evenodd" clipRule="evenodd" d="M9.9905 23.1644C10.011 23.1559 10.0345 23.159 10.0521 23.1727L13.7102 26.0303C13.727 26.0434 13.7358 26.0642 13.7336 26.0854C13.7313 26.1065 13.7183 26.125 13.6992 26.1343L9.44975 28.1912C9.42948 28.2011 9.40547 28.199 9.38714 28.1859C9.36881 28.1729 9.35908 28.1508 9.36177 28.1285L9.95299 23.2139C9.95565 23.1918 9.96998 23.1729 9.9905 23.1644ZM10.0622 23.337L9.49752 28.0313L13.5565 26.0665L10.0622 23.337Z" fill="#E27625"/>
<path d="M18.3281 26.0787L22.5652 28.1357L21.9863 23.2211L18.3281 26.0787Z" fill="#E27625"/>
<path fillRule="evenodd" clipRule="evenodd" d="M22.0101 23.1644C22.0306 23.173 22.0449 23.192 22.0476 23.214L22.6265 28.1286C22.6291 28.151 22.6193 28.173 22.601 28.186C22.5826 28.199 22.5586 28.201 22.5384 28.1912L18.3013 26.1342C18.2822 26.125 18.2692 26.1065 18.2669 26.0853C18.2647 26.0642 18.2735 26.0434 18.2903 26.0303L21.9485 23.1727C21.966 23.159 21.9896 23.1559 22.0101 23.1644ZM18.4439 26.0666L22.491 28.0313L21.938 23.3372L18.4439 26.0666Z" fill="#E27625"/>
<path d="M22.5652 28.1358L18.3281 26.0788L18.673 28.8378L18.6361 30.008L22.5652 28.1358Z" fill="#D5BFB2"/>
<path fillRule="evenodd" clipRule="evenodd" d="M18.2923 26.0285C18.3107 26.0154 18.3348 26.0133 18.3551 26.0232L22.5922 28.0802C22.6135 28.0905 22.627 28.1121 22.6269 28.1358C22.6268 28.1595 22.6132 28.181 22.5918 28.1912L18.6626 30.0634C18.6432 30.0726 18.6204 30.0711 18.6024 30.0593C18.5844 30.0476 18.5739 30.0273 18.5746 30.0058L18.6114 28.8405L18.2671 26.0863C18.2643 26.0638 18.274 26.0417 18.2923 26.0285ZM18.4034 26.1836L18.7342 28.83C18.7346 28.8332 18.7347 28.8364 18.7346 28.8396L18.7009 29.9087L22.4232 28.1351L18.4034 26.1836Z" fill="#D5BFB2"/>
<path d="M9.42285 28.1358L13.3643 30.008L13.3397 28.8378L13.6723 26.0788L9.42285 28.1358Z" fill="#D5BFB2"/>
<path fillRule="evenodd" clipRule="evenodd" d="M13.7081 26.0285C13.7264 26.0416 13.7362 26.0636 13.7335 26.086L13.4014 28.8407L13.426 30.0065C13.4264 30.0278 13.4158 30.0479 13.3979 30.0595C13.3799 30.0711 13.3573 30.0726 13.338 30.0634L9.39649 28.1912C9.37509 28.181 9.36142 28.1595 9.36133 28.1358C9.36124 28.1121 9.37475 28.0905 9.39608 28.0801L13.6455 26.0232C13.6658 26.0134 13.6898 26.0154 13.7081 26.0285ZM9.56535 28.1351L13.3007 29.9094L13.2782 28.839C13.2781 28.8361 13.2783 28.8332 13.2786 28.8303L13.5977 26.1832L9.56535 28.1351Z" fill="#D5BFB2"/>
<path d="M13.4377 21.3983L9.91504 20.3636L12.4031 19.2181L13.4377 21.3983Z" fill="#233447"/>
<path fillRule="evenodd" clipRule="evenodd" d="M12.3774 19.162C12.4081 19.1479 12.4443 19.1611 12.4588 19.1916L13.4935 21.3717C13.5039 21.3936 13.5004 21.4196 13.4846 21.4381C13.4689 21.4566 13.4437 21.464 13.4205 21.4572L9.89775 20.4226C9.87311 20.4153 9.85555 20.3936 9.85368 20.368C9.85181 20.3423 9.86602 20.3183 9.88935 20.3075L12.3774 19.162ZM10.0901 20.3507L13.3232 21.3003L12.3736 19.2994L10.0901 20.3507Z" fill="#233447"/>
<path d="M18.5625 21.3983L19.5971 19.2181L22.0975 20.3636L18.5625 21.3983Z" fill="#233447"/>
<path fillRule="evenodd" clipRule="evenodd" d="M19.5406 19.1916C19.555 19.1611 19.5913 19.148 19.6219 19.162L22.1223 20.3075C22.1456 20.3182 22.1599 20.3423 22.158 20.3679C22.1562 20.3936 22.1386 20.4154 22.1139 20.4226L18.5789 21.4572C18.5556 21.464 18.5305 21.4565 18.5147 21.4381C18.499 21.4196 18.4955 21.3936 18.5059 21.3717L19.5406 19.1916ZM19.6258 19.2993L18.6761 21.3004L21.9209 20.3507L19.6258 19.2993Z" fill="#233447"/>
<path d="M9.42307 28.1357L10.0389 23.061L6.12207 23.1719L9.42307 28.1357Z" fill="#CC6228"/>
<path fillRule="evenodd" clipRule="evenodd" d="M10.0835 23.0194C10.0956 23.0326 10.1013 23.0505 10.0992 23.0683L9.48329 28.1429C9.48019 28.1685 9.46147 28.1895 9.43638 28.1954C9.41129 28.2014 9.38515 28.1911 9.37088 28.1696L6.06987 23.2058C6.05748 23.1872 6.05617 23.1633 6.06647 23.1434C6.07676 23.1235 6.09704 23.1108 6.11941 23.1101L10.0363 22.9993C10.0542 22.9988 10.0715 23.0061 10.0835 23.0194ZM6.23397 23.2301L9.38111 27.9626L9.96826 23.1244L6.23397 23.2301Z" fill="#CC6228"/>
<path d="M21.9619 23.061L22.5655 28.1357L25.8788 23.1719L21.9619 23.061Z" fill="#CC6228"/>
<path fillRule="evenodd" clipRule="evenodd" d="M21.9165 23.0193C21.9286 23.0061 21.9458 22.9988 21.9637 22.9993L25.8806 23.1101C25.903 23.1108 25.9233 23.1235 25.9335 23.1434C25.9438 23.1633 25.9425 23.1873 25.9301 23.2059L22.6167 28.1697C22.6024 28.1912 22.5763 28.2014 22.5512 28.1954C22.5261 28.1894 22.5074 28.1684 22.5044 28.1428L21.9008 23.0681C21.8987 23.0503 21.9044 23.0325 21.9165 23.0193ZM22.0316 23.1244L22.607 27.9625L25.7658 23.2301L22.0316 23.1244Z" fill="#CC6228"/>
<path d="M24.93 17.4689L17.9092 17.7891L18.562 21.398L19.5966 19.2179L22.097 20.3634L24.93 17.4689Z" fill="#CC6228"/>
<path fillRule="evenodd" clipRule="evenodd" d="M24.9862 17.4438C24.9966 17.4669 24.9917 17.494 24.974 17.5121L22.1411 20.4066C22.1229 20.4252 22.095 20.4303 22.0714 20.4195L19.6263 19.2993L18.6177 21.4246C18.6062 21.4487 18.5805 21.4627 18.5539 21.4592C18.5274 21.4557 18.5062 21.4355 18.5015 21.4091L17.8486 17.8002C17.8455 17.7827 17.85 17.7647 17.8611 17.7508C17.8722 17.737 17.8887 17.7285 17.9064 17.7277L24.9272 17.4075C24.9525 17.4063 24.9759 17.4207 24.9862 17.4438ZM17.9824 17.8476L18.5886 21.1987L19.5411 19.1916C19.5555 19.1612 19.5917 19.148 19.6223 19.162L22.0834 20.2895L24.7767 17.5376L17.9824 17.8476Z" fill="#CC6228"/>
<path d="M9.91558 20.3634L12.4036 19.2179L13.4383 21.398L14.0911 17.7891L7.07031 17.4689L9.91558 20.3634Z" fill="#CC6228"/>
<path fillRule="evenodd" clipRule="evenodd" d="M7.01414 17.4439C7.02446 17.4208 7.04788 17.4063 7.07318 17.4075L14.094 17.7277C14.1117 17.7285 14.1282 17.737 14.1393 17.7508C14.1504 17.7647 14.1549 17.7827 14.1518 17.8002L13.499 21.4091C13.4942 21.4355 13.473 21.4557 13.4465 21.4592C13.4199 21.4627 13.3942 21.4487 13.3827 21.4246L12.3742 19.2994L9.9414 20.4195C9.9178 20.4303 9.88993 20.4252 9.87172 20.4067L7.02646 17.5122C7.0087 17.4941 7.00382 17.467 7.01414 17.4439ZM7.22423 17.5377L9.92921 20.2895L12.378 19.1621C12.4086 19.148 12.4449 19.1612 12.4593 19.1916L13.4119 21.1987L14.018 17.8476L7.22423 17.5377Z" fill="#CC6228"/>
<path d="M7.07031 17.4689L10.0141 23.221L9.91558 20.3634L7.07031 17.4689Z" fill="#E27525"/>
<path fillRule="evenodd" clipRule="evenodd" d="M7.03435 17.419C7.05902 17.4013 7.09298 17.4041 7.1143 17.4258L9.95957 20.3204C9.97037 20.3314 9.97666 20.346 9.9772 20.3614L10.0757 23.219C10.0767 23.2478 10.0576 23.2735 10.0296 23.2807C10.0017 23.288 9.9725 23.2749 9.95936 23.2492L7.01556 17.4971C7.0017 17.47 7.00968 17.4368 7.03435 17.419ZM7.3085 17.7991L9.94311 22.9471L9.85492 20.3896L7.3085 17.7991Z" fill="#E27525"/>
<path d="M22.0972 20.3634L21.9863 23.221L24.9301 17.4689L22.0972 20.3634Z" fill="#E27525"/>
<path fillRule="evenodd" clipRule="evenodd" d="M24.9662 17.419C24.9909 17.4368 24.9989 17.47 24.985 17.4971L22.0412 23.2492C22.028 23.2749 21.9988 23.288 21.9708 23.2807C21.9428 23.2734 21.9237 23.2476 21.9249 23.2187L22.0357 20.3611C22.0363 20.3459 22.0425 20.3314 22.0532 20.3205L24.8862 17.4259C24.9075 17.4042 24.9415 17.4012 24.9662 17.419ZM22.1579 20.3896L22.0588 22.9445L24.6907 17.8017L22.1579 20.3896Z" fill="#E27525"/>
<path d="M14.0903 17.7891L13.4375 21.398L14.2627 25.6597L14.4475 20.0431L14.0903 17.7891Z" fill="#E27525"/>
<path fillRule="evenodd" clipRule="evenodd" d="M14.092 17.7276C14.1221 17.7279 14.1475 17.7499 14.1522 17.7795L14.5094 20.0336C14.51 20.0374 14.5102 20.0413 14.5101 20.0453L14.3253 25.6619C14.3243 25.6932 14.2999 25.7188 14.2687 25.7212C14.2374 25.7237 14.2093 25.7023 14.2033 25.6716L13.3781 21.4098C13.3766 21.4023 13.3766 21.3947 13.3779 21.3872L14.0307 17.7782C14.0361 17.7487 14.062 17.7273 14.092 17.7276ZM13.5012 21.3977L14.2202 25.1109L14.3868 20.0471L14.0873 18.1574L13.5012 21.3977Z" fill="#E27525"/>
<path d="M17.9093 17.7891L17.5645 20.0308L17.7369 25.6597L18.5621 21.398L17.9093 17.7891Z" fill="#E27525"/>
<path fillRule="evenodd" clipRule="evenodd" d="M17.9086 17.7276C17.9387 17.7272 17.9646 17.7486 17.97 17.7782L18.6228 21.3872C18.6242 21.3947 18.6241 21.4023 18.6227 21.4098L17.7974 25.6716C17.7915 25.7024 17.7633 25.7238 17.732 25.7212C17.7007 25.7187 17.6764 25.6931 17.6754 25.6617L17.503 20.0328C17.5028 20.029 17.5031 20.0253 17.5036 20.0215L17.8485 17.7798C17.8531 17.7501 17.8785 17.728 17.9086 17.7276ZM17.9143 18.1623L17.6262 20.0347L17.7816 25.1054L18.4996 21.3977L17.9143 18.1623Z" fill="#E27525"/>
<path d="M18.5616 21.398L17.7363 25.6598L18.3276 26.0786L21.9858 23.221L22.0966 20.3634L18.5616 21.398Z" fill="#F5841F"/>
<path fillRule="evenodd" clipRule="evenodd" d="M22.1345 20.315C22.1502 20.3272 22.159 20.3462 22.1582 20.366L22.0474 23.2236C22.0467 23.2417 22.038 23.2585 22.0237 23.2697L18.3655 26.1273C18.3441 26.144 18.3142 26.1447 18.292 26.129L17.7008 25.7102C17.6811 25.6962 17.6713 25.672 17.6759 25.6483L18.5012 21.3865C18.5056 21.3639 18.5222 21.3456 18.5443 21.3391L22.0794 20.3045C22.0984 20.2989 22.1189 20.3028 22.1345 20.315ZM18.615 21.4468L17.8044 25.6327L18.3258 26.002L21.9254 23.1902L22.0318 20.4467L18.615 21.4468Z" fill="#F5841F"/>
<path d="M9.91504 20.3634L10.0136 23.221L13.6718 26.0786L14.263 25.6598L13.4377 21.398L9.91504 20.3634Z" fill="#F5841F"/>
<path fillRule="evenodd" clipRule="evenodd" d="M9.87735 20.3149C9.89298 20.3028 9.91348 20.2989 9.93246 20.3045L13.4552 21.3391C13.4773 21.3456 13.4939 21.3639 13.4983 21.3865L14.3235 25.6483C14.3281 25.672 14.3184 25.6962 14.2987 25.7102L13.7074 26.129C13.6852 26.1447 13.6554 26.144 13.6339 26.1273L9.97573 23.2697C9.96137 23.2585 9.95272 23.2415 9.95209 23.2233L9.85355 20.3657C9.85287 20.3459 9.86172 20.3271 9.87735 20.3149ZM9.97959 20.4467L10.0742 23.1903L13.6736 26.002L14.195 25.6327L13.3845 21.4468L9.97959 20.4467Z" fill="#F5841F"/>
<path d="M18.6361 30.0077L18.673 28.8376L18.3528 28.5666H13.6476L13.3397 28.8376L13.3643 30.0077L9.42285 28.1355L10.8024 29.2687L13.5984 31.2025H18.3897L21.1981 29.2687L22.5653 28.1355L18.6361 30.0077Z" fill="#C0AC9D"/>
<path fillRule="evenodd" clipRule="evenodd" d="M9.37092 28.1026C9.38759 28.0764 9.42124 28.0667 9.44934 28.08L13.3007 29.9094L13.2782 28.839C13.2778 28.8209 13.2855 28.8035 13.2991 28.7915L13.607 28.5205C13.6183 28.5106 13.6327 28.5051 13.6477 28.5051H18.3529C18.3674 28.5051 18.3815 28.5103 18.3926 28.5197L18.7129 28.7907C18.7272 28.8028 18.7353 28.8209 18.7347 28.8397L18.7009 29.9088L22.5388 28.08C22.5669 28.0667 22.6005 28.0763 22.6172 28.1025C22.634 28.1287 22.6286 28.1632 22.6046 28.183L21.2374 29.3162C21.236 29.3174 21.2346 29.3185 21.2331 29.3195L18.4247 31.2533C18.4145 31.2604 18.4023 31.2642 18.3898 31.2642H13.5984C13.5859 31.2642 13.5737 31.2604 13.5634 31.2533L10.7674 29.3195C10.766 29.3185 10.7647 29.3175 10.7633 29.3164L9.38383 28.1832C9.35979 28.1635 9.35425 28.1289 9.37092 28.1026ZM9.84979 28.4066L10.8396 29.2196L13.6177 31.141H18.3707L21.1609 29.2196L22.1447 28.4043L18.6627 30.0634C18.6433 30.0727 18.6205 30.0711 18.6025 30.0594C18.5845 30.0476 18.5739 30.0274 18.5746 30.0059L18.6106 28.8655L18.3303 28.6283H13.6709L13.402 28.865L13.426 30.0065C13.4264 30.0279 13.4158 30.0479 13.3979 30.0595C13.3799 30.0711 13.3573 30.0726 13.338 30.0635L9.84979 28.4066Z" fill="#C0AC9D"/>
<path d="M18.3283 26.0787L17.7371 25.6599H14.2636L13.6724 26.0787L13.3398 28.8377L13.6478 28.5668H18.3529L18.6732 28.8377L18.3283 26.0787Z" fill="#161616"/>
<path fillRule="evenodd" clipRule="evenodd" d="M14.2271 25.6098C14.2375 25.6024 14.25 25.5984 14.2627 25.5984H17.7362C17.7489 25.5984 17.7614 25.6024 17.7718 25.6098L18.363 26.0286C18.3771 26.0386 18.3863 26.054 18.3885 26.0712L18.7334 28.8302C18.7365 28.8554 18.7239 28.8799 18.7016 28.892C18.6793 28.9041 18.6519 28.9013 18.6325 28.8849L18.3295 28.6285H13.6701L13.3796 28.8841C13.3604 28.901 13.3328 28.9043 13.3102 28.8924C13.2876 28.8805 13.2747 28.8559 13.2778 28.8305L13.6104 26.0715C13.6124 26.0542 13.6217 26.0386 13.6359 26.0286L14.2271 25.6098ZM14.2823 25.7216L13.7294 26.1133L13.4194 28.685L13.6062 28.5207C13.6174 28.5108 13.6319 28.5053 13.6469 28.5053H18.352C18.3666 28.5053 18.3807 28.5105 18.3918 28.5199L18.5916 28.6889L18.2696 26.1134L17.7166 25.7216H14.2823Z" fill="#161616"/>
<path d="M30.8916 11.4827L31.9386 6.38341L30.362 1.6413L18.3281 10.5712L22.9594 14.4881L29.4998 16.3973L30.9409 14.7098L30.3127 14.2541L31.3104 13.3426L30.5468 12.7514L31.5444 11.9877L30.8916 11.4827Z" fill="#763E1A"/>
<path fillRule="evenodd" clipRule="evenodd" d="M30.3806 1.58269C30.3994 1.58863 30.4143 1.60325 30.4205 1.62199L31.9971 6.3641C32.0005 6.37436 32.0012 6.38533 31.999 6.39592L30.9597 11.4576L31.5822 11.9391C31.5973 11.9508 31.6061 11.9689 31.6061 11.988C31.606 12.0071 31.5971 12.0251 31.5819 12.0367L30.6478 12.7518L31.3482 13.294C31.3626 13.3052 31.3713 13.3221 31.372 13.3402C31.3728 13.3584 31.3654 13.3759 31.352 13.3882L30.4101 14.2487L30.9771 14.6601C30.991 14.6702 31.0001 14.6856 31.0021 14.7027C31.0042 14.7197 30.999 14.7369 30.9878 14.7499L29.5467 16.4374C29.531 16.4558 29.5059 16.4633 29.4826 16.4565L22.9422 14.5473C22.9339 14.5449 22.9262 14.5408 22.9197 14.5353L18.2884 10.6184C18.2741 10.6062 18.266 10.5882 18.2666 10.5694C18.2672 10.5506 18.2764 10.5331 18.2915 10.5219L30.3254 1.59196C30.3412 1.58019 30.3618 1.57675 30.3806 1.58269ZM18.4273 10.5745L22.9892 14.4328L29.4789 16.3271L30.8508 14.7206L30.2766 14.304C30.2616 14.2932 30.2523 14.2761 30.2513 14.2577C30.2503 14.2392 30.2576 14.2212 30.2713 14.2087L31.2149 13.3466L30.5091 12.8002C30.494 12.7885 30.4852 12.7704 30.4852 12.7513C30.4853 12.7322 30.4942 12.7142 30.5094 12.7026L31.4435 11.9876L30.854 11.5315C30.8354 11.5172 30.8266 11.4935 30.8314 11.4705L31.875 6.3873L30.3305 1.74156L18.4273 10.5745Z" fill="#763E1A"/>
<path d="M0.0615234 6.38341L1.1208 11.4827L0.443356 11.9877L1.45336 12.7514L0.689699 13.3426L1.68739 14.2541L1.05921 14.7098L2.50032 16.3973L9.04074 14.4881L13.672 10.5712L1.63812 1.6413L0.0615234 6.38341Z" fill="#763E1A"/>
<path fillRule="evenodd" clipRule="evenodd" d="M1.61965 1.58275C1.63848 1.57681 1.65902 1.58026 1.67488 1.59203L13.7088 10.522C13.7239 10.5332 13.733 10.5507 13.7336 10.5695C13.7342 10.5883 13.7262 10.6063 13.7118 10.6185L9.08057 14.5353C9.07399 14.5409 9.06633 14.545 9.05806 14.5474L2.51764 16.4566C2.49438 16.4634 2.46929 16.4559 2.45355 16.4374L1.01244 14.75C1.00129 14.7369 0.996095 14.7198 0.99812 14.7027C1.00015 14.6857 1.00921 14.6702 1.02311 14.6601L1.59014 14.2488L0.648223 13.3883C0.634805 13.376 0.627487 13.3584 0.628227 13.3403C0.628967 13.3221 0.637689 13.3052 0.65206 13.2941L1.35208 12.7521L0.406275 12.037C0.390821 12.0253 0.381767 12.0071 0.381833 11.9877C0.381899 11.9683 0.391077 11.9501 0.40661 11.9385L1.05258 11.457L0.00128725 6.39612C-0.000920778 6.38549 -0.000279805 6.37446 0.00314523 6.36416L1.57974 1.62205C1.58597 1.60331 1.60081 1.5887 1.61965 1.58275ZM1.66979 1.74163L0.125255 6.38729L1.18116 11.4704C1.18603 11.4938 1.17687 11.518 1.15767 11.5323L0.545993 11.9883L1.49057 12.7024C1.50586 12.714 1.5149 12.732 1.51501 12.7512C1.51512 12.7704 1.50629 12.7885 1.49113 12.8003L0.785332 13.3467L1.72899 14.2088C1.74266 14.2213 1.74998 14.2392 1.74894 14.2577C1.7479 14.2762 1.7386 14.2932 1.72362 14.3041L1.1494 14.7207L2.52135 16.3272L9.01101 14.4328L13.573 10.5746L1.66979 1.74163Z" fill="#763E1A"/>
<path d="M29.4998 16.3974L22.9594 14.4883L24.9301 17.469L21.9863 23.2212L25.8786 23.1719H31.6923L29.4998 16.3974Z" fill="#F5841F"/>
<path fillRule="evenodd" clipRule="evenodd" d="M22.9099 14.4516C22.9252 14.4308 22.9519 14.4217 22.9767 14.429L29.5171 16.3381C29.5367 16.3439 29.5522 16.3589 29.5585 16.3783L31.7509 23.1527C31.757 23.1715 31.7537 23.192 31.7421 23.2079C31.7305 23.2239 31.712 23.2333 31.6923 23.2333H25.8786L21.9872 23.2826C21.9656 23.2828 21.9454 23.2718 21.9341 23.2534C21.9227 23.2351 21.9217 23.2121 21.9316 23.1929L24.859 17.4728L22.9081 14.5221C22.8938 14.5005 22.8945 14.4724 22.9099 14.4516ZM23.1035 14.5943L24.9816 17.4349C24.9938 17.4534 24.9951 17.4771 24.985 17.4969L22.0878 23.1581L25.8786 23.1101L31.6077 23.1101L29.4513 16.4472L23.1035 14.5943Z" fill="#F5841F"/>
<path d="M9.04087 14.4883L2.50045 16.3974L0.320312 23.1719H6.1217L10.0139 23.2212L7.07012 17.469L9.04087 14.4883Z" fill="#F5841F"/>
<path fillRule="evenodd" clipRule="evenodd" d="M9.0905 14.4516C9.10583 14.4724 9.10655 14.5005 9.0923 14.5221L7.14139 17.4728L10.0688 23.1929C10.0786 23.2121 10.0777 23.2351 10.0663 23.2534C10.0549 23.2718 10.0348 23.2828 10.0132 23.2826L6.12176 23.2333H0.320375C0.300692 23.2333 0.282194 23.2239 0.270602 23.208C0.25901 23.1921 0.255721 23.1716 0.261751 23.1528L2.44189 16.3784C2.44815 16.3589 2.46364 16.3439 2.48326 16.3381L9.02367 14.429C9.04848 14.4217 9.07517 14.4308 9.0905 14.4516ZM2.54913 16.4472L0.404891 23.1101H6.12254L9.91263 23.1581L7.01536 17.4969C7.00524 17.4771 7.00655 17.4534 7.01881 17.4349L8.89688 14.5943L2.54913 16.4472Z" fill="#F5841F"/>
<path d="M17.9093 17.7891L18.3281 10.5713L20.225 5.435H11.7754L13.6722 10.5713L14.091 17.7891L14.2511 20.0555L14.2635 25.6598H17.7369L17.7492 20.0555L17.9093 17.7891Z" fill="#F5841F"/>
<path fillRule="evenodd" clipRule="evenodd" d="M11.7249 5.39992C11.7364 5.38339 11.7553 5.37354 11.7755 5.37354H20.225C20.2452 5.37354 20.264 5.38339 20.2756 5.39992C20.2871 5.41644 20.2898 5.43756 20.2828 5.45646L18.3891 10.5841L17.9709 17.7928L17.9708 17.7936L17.8109 20.0578L17.7986 25.66C17.7985 25.694 17.7709 25.7215 17.737 25.7215H14.2635C14.2296 25.7215 14.202 25.694 14.2019 25.66L14.1896 20.0578L14.0296 17.7936L14.0296 17.7928L13.6113 10.5841L11.7177 5.45646C11.7107 5.43756 11.7134 5.41644 11.7249 5.39992ZM11.8638 5.49671L13.7301 10.55C13.7322 10.5558 13.7334 10.5617 13.7338 10.5678L14.1525 17.7849L14.1526 17.7857L14.3126 20.0513C14.3127 20.0527 14.3128 20.0541 14.3128 20.0555L14.325 25.5983H17.6755L17.6877 20.0555C17.6877 20.0541 17.6877 20.0527 17.6878 20.0513L17.8479 17.7857L17.848 17.7849L18.2667 10.5678C18.2671 10.5617 18.2683 10.5558 18.2704 10.55L20.1366 5.49671H11.8638Z" fill="#F5841F"/>
</svg>
