<svg width="21" height="21" viewBox="0 0 21 21" fill="none" xmlns="http://www.w3.org/2000/svg">
<path fillRule="evenodd" clipRule="evenodd" d="M15.8056 14.815C15.7367 14.8167 15.6679 14.8175 15.599 14.8175C10.5365 14.8175 6.43229 10.7134 6.43229 5.65087C6.43229 5.5817 6.43229 5.51254 6.43479 5.4442C5.70305 6.03006 5.10309 6.76365 4.67406 7.59708C4.24503 8.43051 3.99658 9.34505 3.94493 10.281C3.89328 11.2169 4.03958 12.1533 4.37429 13.0289C4.709 13.9044 5.2246 14.6996 5.88742 15.3624C6.55025 16.0252 7.3454 16.5408 8.22098 16.8755C9.09656 17.2103 10.0329 17.3566 10.9688 17.3049C11.9048 17.2532 12.8193 17.0048 13.6527 16.5758C14.4862 16.1467 15.2198 15.5468 15.8056 14.815ZM16.8206 13.0517C15.4767 13.274 14.0976 13.1261 12.8314 12.6238C11.5652 12.1216 10.4596 11.284 9.6335 10.2009C8.80734 9.11786 8.29176 7.83025 8.14209 6.47631C7.99242 5.12237 8.21431 3.75323 8.78396 2.51587C6.93431 2.92847 5.28057 3.95926 4.09557 5.43817C2.91056 6.91709 2.26508 8.75576 2.26563 10.6509C2.26563 15.2534 5.99646 18.9842 10.599 18.9842C12.494 18.9846 14.3326 18.3391 15.8115 17.1541C17.2904 15.9691 18.3212 14.3154 18.734 12.4659C18.134 12.7425 17.4923 12.9417 16.8206 13.0517Z" fill="#AFAFAF"/>
</svg>
