<svg width="20" height="20" viewBox="0 0 20 20" fill="none" xmlns="http://www.w3.org/2000/svg">
<path d="M18.625 0.625H1.375C0.960156 0.625 0.625 0.960156 0.625 1.375V18.625C0.625 19.0398 0.960156 19.375 1.375 19.375H18.625C19.0398 19.375 19.375 19.0398 19.375 18.625V1.375C19.375 0.960156 19.0398 0.625 18.625 0.625ZM16 5.44609L15.0438 6.3625C14.9594 6.42578 14.9195 6.52891 14.9359 6.62969V13.3727C14.9195 13.4758 14.9594 13.5789 15.0438 13.6398L15.9813 14.5563V14.7602H11.275V14.5656L12.243 13.6258C12.3391 13.5297 12.3391 13.5016 12.3391 13.3586V7.90234L9.64375 14.7367H9.28047L6.14453 7.90234V12.4844C6.11641 12.6766 6.18437 12.8711 6.32031 13.0094L7.58125 14.5352V14.7391H4V14.5352L5.26094 13.0094C5.32737 12.9408 5.37681 12.8575 5.4053 12.7664C5.43379 12.6752 5.44054 12.5786 5.425 12.4844V7.1875C5.44141 7.03984 5.38516 6.89687 5.27266 6.79609L4.15234 5.44609V5.24219H7.63281L10.3187 11.1367L12.6836 5.24688H16V5.44609Z" fill="white"/>
</svg>
