<svg width="48" height="48" viewBox="0 0 48 48" fill="none" xmlns="http://www.w3.org/2000/svg">
<path fillRule="evenodd" clipRule="evenodd" d="M1.82876 28.2157C1.82286 28.3432 1.81988 28.4711 1.81988 28.5995C1.81988 29.0846 1.86219 29.5637 1.94453 30.0356H1.81988V30.7784C1.81988 31.141 1.84348 31.5002 1.88985 31.8556C2.7936 38.7896 12.3474 44.2455 24 44.2455C35.6526 44.2455 45.2064 38.7896 46.1102 31.8556C46.1565 31.5002 46.1801 31.141 46.1801 30.7784V30.0356H46.0555C46.1378 29.5637 46.1801 29.0846 46.1801 28.5995C46.1801 28.4711 46.1771 28.3432 46.1712 28.2157C45.8367 20.9555 36.0383 15.1324 24 15.1324C11.9617 15.1324 2.16334 20.9555 1.82876 28.2157ZM0.00711127 28.2157C0.172089 23.786 3.18222 20.0649 7.3718 17.5211C11.7148 14.8843 17.5982 13.3125 24 13.3125C30.4018 13.3125 36.2852 14.8843 40.6282 17.5211C44.8178 20.0649 47.8279 23.786 47.9929 28.2157H48V30.7784C48 35.377 44.9382 39.2398 40.6282 41.8567C36.2852 44.4936 30.4018 46.0654 24 46.0654C17.5982 46.0654 11.7148 44.4936 7.3718 41.8567C3.06176 39.2398 0 35.377 0 30.7784V28.2157H0.00711127Z" fill="#606063"/>
<path d="M46.1795 30.7794C46.1795 38.217 36.2491 44.2464 23.9994 44.2464C11.7497 44.2464 1.81934 38.217 1.81934 30.7794V28.6475H46.1795V30.7794Z" fill="#BEBEBE"/>
<path d="M46.1795 28.6008C46.1795 36.0385 36.2491 42.0678 23.9994 42.0678C11.7497 42.0678 1.81934 36.0385 1.81934 28.6008C1.81934 21.1632 11.7497 15.1338 23.9994 15.1338C36.2491 15.1338 46.1795 21.1632 46.1795 28.6008Z" fill="#FAF9FA"/>
<path fillRule="evenodd" clipRule="evenodd" d="M5.23227 24.7959C5.23227 24.8043 5.23227 24.8127 5.23227 24.8211C5.23227 25.4335 5.32102 26.0333 5.49111 26.6158H5.23206V27.4044C5.23206 27.7526 5.26071 28.0966 5.31675 28.4358C6.16233 33.5563 13.2367 37.5531 21.8386 37.5531C30.4404 37.5531 37.5148 33.5563 38.3604 28.4358C38.4164 28.0966 38.4451 27.7526 38.4451 27.4044V26.6158H38.1864C38.3519 26.0491 38.4404 25.4662 38.4451 24.8712C38.4453 24.8545 38.4453 24.8378 38.4453 24.8211C38.4453 24.8127 38.4453 24.8043 38.4453 24.7959C38.4229 19.2025 30.9965 14.6725 21.8388 14.6725C12.681 14.6725 5.2546 19.2025 5.23227 24.7959ZM3.41239 24.7959H3.41211V27.4044C3.41211 31.0809 5.84319 34.1145 9.14701 36.1335C12.482 38.1717 16.9738 39.3731 21.8386 39.3731C26.7034 39.3731 31.1951 38.1717 34.5302 36.1335C37.834 34.1145 40.265 31.0809 40.265 27.4044V24.8779C40.2652 24.859 40.2652 24.8401 40.2652 24.8211C40.2652 21.1447 37.8342 18.1111 34.5303 16.092C31.1953 14.0539 26.7036 12.8525 21.8388 12.8525C16.9739 12.8525 12.4823 14.0539 9.14722 16.092C5.85094 18.1064 3.42349 21.1308 3.41239 24.7959Z" fill="#633001"/>
<path d="M38.4455 27.4035C38.4455 33.0085 31.0105 37.5522 21.839 37.5522C12.6674 37.5522 5.23242 33.0085 5.23242 27.4035V25.0225H38.4455V27.4035Z" fill="#FEDC90"/>
<path d="M38.4455 24.8215C38.4455 30.4264 31.0105 34.9702 21.839 34.9702C12.6674 34.9702 5.23242 30.4264 5.23242 24.8215C5.23242 19.2166 12.6674 14.6729 21.839 14.6729C31.0105 14.6729 38.4455 19.2166 38.4455 24.8215Z" fill="#D1884F"/>
<path fillRule="evenodd" clipRule="evenodd" d="M10.2372 19.3358C10.2372 19.3443 10.2371 19.3527 10.2371 19.3611C10.2371 19.9736 10.3259 20.5732 10.4959 21.1558H10.2369V21.9445C10.2369 22.2926 10.2656 22.6366 10.3216 22.9757C11.1672 28.0963 18.2416 32.0931 26.8434 32.0931C35.4453 32.0931 42.5197 28.0963 43.3653 22.9757C43.4213 22.6366 43.45 22.2926 43.45 21.9445V21.1558H43.1913C43.3568 20.5892 43.4453 20.0062 43.45 19.4112C43.4501 19.3945 43.4502 19.3779 43.4502 19.3611C43.4502 19.3527 43.4502 19.3443 43.4502 19.3358C43.4278 13.7425 36.0014 9.21252 26.8437 9.21252C17.6859 9.21252 10.2595 13.7425 10.2372 19.3358ZM8.41728 19.3358H8.41699V21.9445C8.41699 25.6208 10.848 28.6545 14.1519 30.6736C17.4869 32.7117 21.9786 33.913 26.8434 33.913C31.7083 33.913 36.2 32.7117 39.5351 30.6736C42.8389 28.6545 45.2699 25.6208 45.2699 21.9445V19.418C45.27 19.399 45.2701 19.3801 45.2701 19.3611C45.2701 15.6847 42.8391 12.6511 39.5352 10.632C36.2002 8.59386 31.7085 7.39258 26.8437 7.39258C21.9788 7.39258 17.4871 8.59386 14.152 10.632C10.8558 12.6465 8.42837 15.6708 8.41728 19.3358Z" fill="#633001"/>
<path d="M43.4494 21.9446C43.4494 27.5495 36.0144 32.0933 26.8428 32.0933C17.6714 32.0933 10.2363 27.5495 10.2363 21.9446V19.5635H43.4494V21.9446Z" fill="#FEDC90"/>
<path d="M43.4494 19.3615C43.4494 24.9665 36.0144 29.5102 26.8428 29.5102C17.6714 29.5102 10.2363 24.9665 10.2363 19.3615C10.2363 13.7566 17.6714 9.21289 26.8428 9.21289C36.0144 9.21289 43.4494 13.7566 43.4494 19.3615Z" fill="#D1884F"/>
<path fillRule="evenodd" clipRule="evenodd" d="M5.23227 13.8759C5.23227 13.8843 5.23227 13.8928 5.23227 13.9012C5.23227 14.5136 5.32102 15.1133 5.49111 15.6958H5.23206V16.4845C5.23206 16.8327 5.26071 17.1767 5.31675 17.5158C6.16233 22.6363 13.2367 26.6332 21.8386 26.6332C30.4404 26.6332 37.5148 22.6363 38.3604 17.5158C38.4164 17.1767 38.4451 16.8327 38.4451 16.4845V15.6958H38.1864C38.3519 15.1292 38.4404 14.5463 38.4451 13.9512C38.4453 13.9346 38.4453 13.9179 38.4453 13.9012C38.4453 13.8928 38.4453 13.8843 38.4453 13.8759C38.4229 8.28262 30.9965 3.75256 21.8388 3.75256C12.681 3.75256 5.2546 8.28262 5.23227 13.8759ZM3.41239 13.8759H3.41211V16.4845C3.41211 20.161 5.84319 23.1946 9.14701 25.2136C12.482 27.2518 16.9738 28.4531 21.8386 28.4531C26.7034 28.4531 31.1951 27.2518 34.5302 25.2136C37.834 23.1946 40.265 20.161 40.265 16.4845V13.958C40.2652 13.9391 40.2652 13.9202 40.2652 13.9012C40.2652 10.2248 37.8342 7.19114 34.5303 5.17208C31.1953 3.13397 26.7036 1.93262 21.8388 1.93262C16.9739 1.93262 12.4823 3.13397 9.14722 5.17208C5.85094 7.18652 3.42349 10.2109 3.41239 13.8759Z" fill="#633001"/>
<path d="M38.4455 16.4847C38.4455 22.0896 31.0105 26.6333 21.839 26.6333C12.6674 26.6333 5.23242 22.0896 5.23242 16.4847V14.1035H38.4455V16.4847Z" fill="#FEDC90"/>
<path d="M38.4455 13.9016C38.4455 19.5065 31.0105 24.0502 21.839 24.0502C12.6674 24.0502 5.23242 19.5065 5.23242 13.9016C5.23242 8.29664 12.6674 3.75293 21.839 3.75293C31.0105 3.75293 38.4455 8.29664 38.4455 13.9016Z" fill="#D1884F"/>
<path fillRule="evenodd" clipRule="evenodd" d="M9.16016 14.5328C9.16016 16.4041 10.5199 18.0801 12.665 19.2077L11.1788 21.782L11.1791 21.7822H11.1788V28.2973C11.1788 29.1588 11.8772 29.8572 12.7387 29.8572C13.6002 29.8572 14.2986 29.1588 14.2986 28.2973V23.1159L15.8976 20.3463C16.92 20.5631 18.0175 20.6809 19.1598 20.6809C24.6824 20.6809 29.1594 17.9283 29.1594 14.5328C29.1594 11.1373 24.6824 8.38477 19.1598 8.38477C13.6372 8.38477 9.16016 11.1373 9.16016 14.5328Z" fill="url(#paint0_linear_6855_33202)"/>
<path fillRule="evenodd" clipRule="evenodd" d="M12.6656 19.2083C12.428 19.0835 12.2 18.9518 11.9824 18.8139C10.236 17.707 9.16075 16.1975 9.16075 14.5335C9.16075 11.138 13.6378 8.38543 19.1604 8.38543C24.683 8.38543 29.16 11.138 29.16 14.5335C29.16 17.929 24.683 20.6815 19.1604 20.6815C18.0181 20.6815 16.9206 20.5638 15.8982 20.347L14.2992 23.1165V28.298C14.2992 29.1595 13.6008 29.8579 12.7393 29.8579C11.8778 29.8579 11.1794 29.1595 11.1794 28.298V21.7828L12.6656 19.2083ZM9.58699 21.8102V28.298C9.58699 30.039 10.9983 31.4503 12.7393 31.4503C14.4803 31.4503 15.8916 30.039 15.8916 28.298V23.5433L16.721 22.1067C17.5087 22.2165 18.3251 22.274 19.1604 22.274C22.1676 22.274 24.9664 21.5278 27.0652 20.2374C29.1381 18.9629 30.7524 16.9912 30.7524 14.5335C30.7524 12.0758 29.1381 10.104 27.0652 8.82959C24.9664 7.53921 22.1676 6.79297 19.1604 6.79297C16.1532 6.79297 13.3544 7.53921 11.2556 8.82959C9.18272 10.104 7.56836 12.0758 7.56836 14.5335C7.56836 16.6905 8.80377 18.4667 10.5203 19.7394L9.81128 20.9674C9.74372 21.0805 9.68975 21.2028 9.6517 21.3319C9.60512 21.4892 9.58407 21.6506 9.58699 21.8102Z" fill="#633001"/>
<path d="M12.2842 11.9418C12.2842 13.7007 14.5248 15.1266 17.2889 15.1266C20.0529 15.1266 22.2936 13.7007 22.2936 11.9418C22.2936 10.1828 20.0529 8.75684 17.2889 8.75684C14.5248 8.75684 12.2842 10.1828 12.2842 11.9418Z" fill="#9E7200"/>
<path d="M12.2842 10.5771H22.2936V11.9421H12.2842V10.5771Z" fill="#9E7200"/>
<path d="M12.2842 10.5774C12.2842 12.3364 14.5248 13.7624 17.2889 13.7624C20.0529 13.7624 22.2936 12.3364 22.2936 10.5774C22.2936 8.8185 20.0529 7.39258 17.2889 7.39258C14.5248 7.39258 12.2842 8.8185 12.2842 10.5774Z" fill="#F0B90B"/>
<path d="M15.3904 10.1933L16.801 9.29561C17.0991 9.10589 17.4801 9.10589 17.7781 9.29561L19.1888 10.1933C19.4697 10.3721 19.4697 10.7822 19.1888 10.961L17.7781 11.8587C17.4801 12.0484 17.0991 12.0484 16.801 11.8587L15.3904 10.961C15.1094 10.7822 15.1094 10.3721 15.3904 10.1933Z" fill="#9E7200"/>
<path fillRule="evenodd" clipRule="evenodd" d="M12.8948 6.9816C14.0927 6.21922 15.6505 5.7998 17.2886 5.7998C18.9267 5.7998 20.4844 6.21922 21.6824 6.9816C22.8615 7.73189 23.8857 8.96432 23.8857 10.5771V11.9421C23.8857 13.5549 22.8615 14.7873 21.6824 15.5376C20.4844 16.3 18.9267 16.7194 17.2886 16.7194C15.6505 16.7194 14.0927 16.3 12.8948 15.5376C11.7157 14.7873 10.6914 13.5549 10.6914 11.9421V10.5771C10.6914 8.96432 11.7157 7.73189 12.8948 6.9816ZM17.2886 7.39227C14.5246 7.39227 12.2839 8.81819 12.2839 10.5771V11.9421C12.2839 13.701 14.5246 15.127 17.2886 15.127C20.0526 15.127 22.2933 13.701 22.2933 11.9421V10.5771C22.2933 8.81819 20.0526 7.39227 17.2886 7.39227Z" fill="#633001"/>
<defs>
<linearGradient id="paint0_linear_6855_33202" x1="19.268" y1="8.59056" x2="19.268" y2="29.6956" gradientUnits="userSpaceOnUse">
<stop stopColor="#9F4A08"/>
<stop offset="0.37" stopColor="#7D3900"/>
<stop offset="1" stopColor="#8D4104"/>
</linearGradient>
</defs>
</svg>
