<svg width="29" height="29" viewBox="0 0 29 29" fill="none" xmlns="http://www.w3.org/2000/svg">
<circle cx="14.05" cy="14.05" r="13.8" fill="white" stroke="#F4F4F4" stroke-width="0.5"/>
<path d="M14.0505 2.92676C9.64639 2.92676 6.04688 6.5051 6.04688 10.9304C6.04688 11.8197 6.19509 12.6878 6.47035 13.5347C6.66091 14.1064 7.29612 14.424 7.88898 14.2335C8.46066 14.0429 8.77827 13.4077 8.58771 12.8148C8.3548 12.1584 8.24893 11.4597 8.2701 10.761C8.3548 7.77551 10.7686 5.31937 13.7541 5.17116C17.0783 5.00177 19.8309 7.64847 19.8309 10.9304C19.8309 14.0005 17.4171 16.5202 14.3893 16.6896C14.3893 16.6896 13.2671 16.7531 12.7166 16.8378C12.4413 16.8802 12.2296 16.9225 12.0813 16.9437C12.0178 16.9649 11.9543 16.9013 11.9755 16.8378L12.166 15.9062L13.2035 11.1209C13.3306 10.5281 12.9495 9.93522 12.3566 9.80818C11.7637 9.68113 11.1709 10.0623 11.0438 10.6551C11.0438 10.6551 8.54536 22.3006 8.52419 22.4276C8.39714 23.0205 8.77827 23.6134 9.37113 23.7404C9.96399 23.8674 10.5568 23.4863 10.6839 22.8935C10.7051 22.7664 11.0438 21.2207 11.0438 21.2207C11.2979 20.035 12.2719 19.1669 13.4153 19.0187C13.6694 18.9763 14.6645 18.9128 14.6645 18.9128C18.7934 18.5952 22.0541 15.1439 22.0541 10.9304C22.0541 6.5051 18.4546 2.92676 14.0505 2.92676Z" fill="#0B0E11"/>
<path d="M14.6223 21.3477C13.9024 21.1995 13.1825 21.6442 13.0343 22.3852C12.886 23.1051 13.3307 23.825 14.0718 23.9733C14.7917 24.1215 15.5116 23.6768 15.6598 22.9358C15.808 22.1947 15.3634 21.4959 14.6223 21.3477Z" fill="#E6007A"/>
</svg>
