<svg className="move_on" width="24" height="24" viewBox="0 0 24 24" fill="none" xmlns="http://www.w3.org/2000/svg">
<path d="M24 11.7553C24 18.2354 18.6274 23.4886 12 23.4886C5.37258 23.4886 0 18.2354 0 11.7553C0 5.27517 5.37258 0.0219727 12 0.0219727C18.6274 0.0219727 24 5.27517 24 11.7553ZM3 11.7553C3 16.6154 7.02944 20.5553 12 20.5553C16.9706 20.5553 21 16.6154 21 11.7553C21 6.8952 16.9706 2.95531 12 2.95531C7.02944 2.95531 3 6.8952 3 11.7553Z" fill="#E9E9E9"/>
<mask id="mask0_7125_51127" style="mask-type:alpha" maskUnits="userSpaceOnUse" x="0" y="0" width="24" height="12">
<path d="M22.5 11.7553C23.3284 11.7553 24.0101 11.0809 23.9021 10.2595C23.5657 7.69939 22.3721 5.30344 20.4853 3.45859C18.2348 1.25816 15.1826 0.021973 12 0.0219727C8.8174 0.0219723 5.76516 1.25816 3.51472 3.45858C1.62794 5.30344 0.434347 7.69939 0.0978661 10.2595C-0.010088 11.0809 0.671574 11.7553 1.5 11.7553C2.32843 11.7553 2.98674 11.0787 3.13034 10.2628C3.44363 8.48285 4.3124 6.82699 5.63604 5.53277C7.32387 3.88245 9.61305 2.95531 12 2.95531C14.3869 2.95531 16.6761 3.88245 18.364 5.53277C19.6876 6.82699 20.5564 8.48285 20.8697 10.2628C21.0133 11.0787 21.6716 11.7553 22.5 11.7553Z" fill="url(#paint0_linear_7125_51127)"/>
</mask>
<g mask="url(#mask0_7125_51127)">
<path d="M24 11.7553C24 18.2354 18.6274 23.4886 12 23.4886C5.37258 23.4886 0 18.2354 0 11.7553C0 5.27517 5.37258 0.0219727 12 0.0219727C18.6274 0.0219727 24 5.27517 24 11.7553ZM3 11.7553C3 16.6154 7.02944 20.5553 12 20.5553C16.9706 20.5553 21 16.6154 21 11.7553C21 6.8952 16.9706 2.95531 12 2.95531C7.02944 2.95531 3 6.8952 3 11.7553Z" fill="url(#paint1_linear_7125_51127)"/>
</g>
<defs>
<linearGradient id="paint0_linear_7125_51127" x1="24" y1="23.4886" x2="0.539257" y2="-0.505301" gradientUnits="userSpaceOnUse">
<stop stopColor="#ED2391"/>
<stop offset="1" stopColor="#19CFDD"/>
</linearGradient>
<linearGradient id="paint1_linear_7125_51127" x1="2.01653" y1="197.241" x2="25.9161" y2="197.241" gradientUnits="userSpaceOnUse">
<stop stopColor="#F37AD1"/>
<stop offset="0.5" stopColor="#9882F4"/>
<stop offset="1" stopColor="#55EED0"/>
</linearGradient>
</defs>
</svg>
