<svg width="28" height="29" viewBox="0 0 28 29" fill="none" xmlns="http://www.w3.org/2000/svg">
<path d="M6.57472 22.9113C7.5314 23.8704 8.66544 24.6344 9.91372 25.1607C11.2064 25.7086 12.5965 25.9896 14.0006 25.9867C16.0932 25.9892 18.1386 25.3642 19.8724 24.1923C21.5609 23.0537 22.8822 21.4491 23.6757 19.5735C24.2196 18.2796 24.5 16.8902 24.5006 15.4867C24.5014 14.1078 24.2301 12.7424 23.7024 11.4685C23.1747 10.1947 22.4009 9.03747 21.4252 8.06315L19.7756 9.71282C20.1457 10.0835 20.4797 10.4886 20.7731 10.9227C21.3701 11.8052 21.7875 12.7967 22.0016 13.8405C22.2215 14.9273 22.2215 16.0472 22.0016 17.134C21.8937 17.659 21.7342 18.1721 21.5256 18.6658C21.1132 19.6351 20.5188 20.5163 19.7744 21.2617C19.4057 21.6315 18.9986 21.9663 18.5657 22.258C17.6829 22.8563 16.6905 23.2742 15.6456 23.4877C14.5584 23.7077 13.4381 23.7077 12.3509 23.4877C10.2295 23.0501 8.36871 21.7882 7.1775 19.9792C5.98629 18.1701 5.56217 15.9621 5.99839 13.8405C6.21468 12.7965 6.63236 11.8046 7.22805 10.9203C7.81665 10.0511 8.56585 9.30229 9.43539 8.71415C10.783 7.80236 12.3735 7.31663 14.0006 7.31999L14.0297 7.32115V9.65332L18.6672 6.15332L14.0297 2.65332L14.0297 4.98782L14.0006 4.98665C12.5962 4.98469 11.2059 5.26561 9.91255 5.81265C8.66639 6.34154 7.53359 7.10519 6.57589 8.06199C5.12105 9.5127 4.12569 11.3598 3.71405 13.3727C3.42995 14.7685 3.42995 16.2072 3.71405 17.603C4.12834 19.614 5.12288 21.4595 6.57472 22.9113Z" fill="#212030"/>
</svg>
