<svg width="30" height="56" viewBox="0 0 30 56" fill="none" xmlns="http://www.w3.org/2000/svg">
<ellipse cx="5.82742" cy="5.90182" rx="4.04978" ry="4.04977" fill="#959595"/>
<ellipse cx="23.9807" cy="50.0307" rx="4.04977" ry="4.04977" fill="#959595"/>
<path d="M2.74013 22.5996C1.47075 20.9567 1.77361 18.5957 3.41659 17.3263L22.1807 2.82901C23.8237 1.55963 26.1846 1.86249 27.454 3.50547C28.7234 5.14845 28.4205 7.50939 26.7775 8.77877L8.01343 23.2761C6.37045 24.5455 4.00951 24.2426 2.74013 22.5996Z" fill="#959595"/>
<path d="M2.73915 37.4021C1.46977 35.7591 1.77263 33.3982 3.41561 32.1288L22.1797 17.6315C23.8227 16.3621 26.1836 16.665 27.453 18.308C28.7224 19.9509 28.4195 22.3119 26.7766 23.5813L8.01245 38.0786C6.36947 39.348 4.00853 39.0451 2.73915 37.4021Z" fill="#959595"/>
<path d="M2.46132 52.7647C1.19194 51.1217 1.4948 48.7608 3.13778 47.4914L21.9019 32.994C23.5449 31.7247 25.9058 32.0275 27.1752 33.6705C28.4446 35.3135 28.1417 37.6744 26.4987 38.9438L7.73462 53.4411C6.09164 54.7105 3.7307 54.4077 2.46132 52.7647Z" fill="#959595"/>
</svg>
