<svg width="24" height="28" viewBox="0 0 24 28" fill="none" xmlns="http://www.w3.org/2000/svg">
<path fillRule="evenodd" clipRule="evenodd" d="M23.6803 16.2079V18.0911C23.6803 23.3642 15.9967 26.3774 13.6615 27.1307L12.8329 27.432V24.1928L13.2848 24.0422C16.976 22.6862 20.6671 20.351 20.6671 18.0911V16.2079H23.6803ZM12.0042 0.765381L15.1681 1.74466V5.05916L12.0042 4.07988L11.7782 4.1552V11.6128H15.0927V14.7013H11.7782V27.3567L10.8743 27.0553C10.4976 26.9047 9.81966 26.6787 8.99104 26.3021L8.61439 26.1514V1.74466L12.0042 0.765381ZM7.71043 2.12131V5.4358L3.41664 6.7164V11.6128H7.71043V25.8501L6.73115 25.3981C3.79329 23.8915 0.328125 21.4056 0.328125 17.8652V16.2079H3.41664V17.8652C3.41664 18.6185 3.79329 19.3717 4.54659 20.125V14.7013H0.328125V4.30586L7.71043 2.12131ZM16.072 2.04598L23.605 4.38119V14.7767H19.1605V19.2964C19.1605 19.2964 18.1813 20.577 16.072 21.6316V2.04598ZM19.2359 6.26443V11.6128H20.5918V6.7164L19.2359 6.26443Z" fill="#050101"/>
</svg>
