<svg width="26" height="26" viewBox="0 0 26 26" fill="none" xmlns="http://www.w3.org/2000/svg">
<path d="M15.4753 0.501221C15.6643 0.501227 15.8485 0.561228 16.0012 0.672582C16.154 0.783937 16.2675 0.940899 16.3253 1.12086L17.3074 4.17265C17.7199 4.37443 18.1146 4.60122 18.4914 4.85658L21.6271 4.18158C21.812 4.1421 22.0046 4.16233 22.1773 4.23935C22.3499 4.31637 22.4937 4.4462 22.5878 4.61015L25.0628 8.89408C25.1573 9.05793 25.1973 9.24756 25.1771 9.43563C25.1569 9.6237 25.0775 9.80049 24.9503 9.94051L22.7985 12.3155C22.8298 12.7709 22.8298 13.2279 22.7985 13.6834L24.9503 16.0619C25.0775 16.202 25.1569 16.3787 25.1771 16.5668C25.1973 16.7549 25.1573 16.9445 25.0628 17.1084L22.5878 21.3941C22.4934 21.5577 22.3495 21.6872 22.1769 21.7638C22.0043 21.8405 21.8118 21.8605 21.6271 21.8209L18.4914 21.1459C18.1164 21.3994 17.7199 21.628 17.3092 21.8298L16.3253 24.8816C16.2675 25.0615 16.154 25.2185 16.0012 25.3299C15.8485 25.4412 15.6643 25.5012 15.4753 25.5012H10.5253C10.3363 25.5012 10.1521 25.4412 9.99936 25.3299C9.84661 25.2185 9.73314 25.0615 9.6753 24.8816L8.69494 21.8316C8.28355 21.6304 7.88674 21.4007 7.50744 21.1441L4.37351 21.8209C4.18863 21.8603 3.99599 21.8401 3.82334 21.7631C3.65069 21.6861 3.50694 21.5562 3.4128 21.3923L0.937798 17.1084C0.843288 16.9445 0.803257 16.7549 0.823476 16.5668C0.843695 16.3787 0.92312 16.202 1.0503 16.0619L3.20208 13.6834C3.17091 13.2291 3.17091 12.7733 3.20208 12.3191L1.0503 9.94051C0.92312 9.80049 0.843695 9.6237 0.823476 9.43563C0.803257 9.24756 0.843288 9.05793 0.937798 8.89408L3.4128 4.60836C3.5072 4.44475 3.65106 4.31528 3.82369 4.23859C3.99632 4.16191 4.18882 4.14194 4.37351 4.18158L7.50744 4.85836C7.88601 4.60301 8.28244 4.37265 8.69494 4.17086L9.67708 1.12086C9.73474 0.941479 9.84767 0.784932 9.9997 0.673631C10.1517 0.56233 10.3351 0.501981 10.5235 0.501221H15.4735H15.4753ZM14.8217 2.28694H11.1789L10.1646 5.44229L9.48065 5.77622C9.14443 5.94075 8.81987 6.12809 8.50923 6.33694L7.87708 6.76551L4.63423 6.06551L2.8128 9.22265L5.03601 11.6834L4.98244 12.4405C4.95678 12.8139 4.95678 13.1886 4.98244 13.5619L5.03601 14.3191L2.80923 16.7798L4.63244 19.9369L7.8753 19.2387L8.50744 19.6655C8.81808 19.8743 9.14265 20.0617 9.47887 20.2262L10.1628 20.5601L11.1789 23.7155H14.8253L15.8432 20.5584L16.5253 20.2262C16.8611 20.0621 17.1851 19.8747 17.4949 19.6655L18.1253 19.2387L21.3699 19.9369L23.1914 16.7798L20.9664 14.3191L21.0199 13.5619C21.0457 13.188 21.0457 12.8127 21.0199 12.4387L20.9664 11.6816L23.1932 9.22265L21.3699 6.06551L18.1253 6.76194L17.4949 6.33694C17.1852 6.12768 16.8612 5.94031 16.5253 5.77622L15.8432 5.44408L14.8235 2.28694H14.8217ZM13.0003 7.64408C14.4211 7.64408 15.7837 8.20849 16.7884 9.21315C17.793 10.2178 18.3574 11.5804 18.3574 13.0012C18.3574 14.422 17.793 15.7846 16.7884 16.7893C15.7837 17.794 14.4211 18.3584 13.0003 18.3584C11.5795 18.3584 10.2169 17.794 9.21222 16.7893C8.20757 15.7846 7.64315 14.422 7.64315 13.0012C7.64315 11.5804 8.20757 10.2178 9.21222 9.21315C10.2169 8.20849 11.5795 7.64408 13.0003 7.64408ZM13.0003 9.42979C12.0531 9.42979 11.1447 9.80607 10.4749 10.4758C9.80514 11.1456 9.42887 12.054 9.42887 13.0012C9.42887 13.9484 9.80514 14.8568 10.4749 15.5266C11.1447 16.1964 12.0531 16.5727 13.0003 16.5727C13.9475 16.5727 14.8559 16.1964 15.5257 15.5266C16.1954 14.8568 16.5717 13.9484 16.5717 13.0012C16.5717 12.054 16.1954 11.1456 15.5257 10.4758C14.8559 9.80607 13.9475 9.42979 13.0003 9.42979Z" fill="#212030"/>
</svg>
