<svg width="28" height="29" viewBox="0 0 28 29" fill="none" xmlns="http://www.w3.org/2000/svg">
<path fillRule="evenodd" clipRule="evenodd" d="M13.9043 15.0774H25.6666V13.583H13.9043V15.0774Z" fill="#AFAFAF"/>
<path fillRule="evenodd" clipRule="evenodd" d="M5.47864 13.5829H2.33594V15.0773H5.47864C5.81114 16.5747 7.11781 17.6925 8.67822 17.6925C10.4895 17.6925 11.9595 16.1862 11.9595 14.3301C11.9595 12.4741 10.4895 10.9678 8.67822 10.9678C7.11781 10.9678 5.81114 12.0856 5.47864 13.5829ZM8.67822 12.4622C9.68447 12.4622 10.5011 13.299 10.5011 14.3301C10.5011 15.3613 9.68447 16.1981 8.67822 16.1981C7.67197 16.1981 6.85531 15.3613 6.85531 14.3301C6.85531 13.299 7.67197 12.4622 8.67822 12.4622Z" fill="#AFAFAF"/>
<path fillRule="evenodd" clipRule="evenodd" d="M14 5.8623H2.33507V7.35668H14V5.8623Z" fill="#AFAFAF"/>
<path fillRule="evenodd" clipRule="evenodd" d="M22.4252 7.35662H25.5679V5.86224H22.4252C22.0927 4.36487 20.786 3.24707 19.2256 3.24707C17.4143 3.24707 15.9443 4.75341 15.9443 6.60943C15.9443 8.46545 17.4143 9.97179 19.2256 9.97179C20.786 9.97179 22.0927 8.85399 22.4252 7.35662ZM19.2256 4.74145C20.2318 4.74145 21.0485 5.57831 21.0485 6.60943C21.0485 7.64055 20.2318 8.47741 19.2256 8.47741C18.2193 8.47741 17.4027 7.64055 17.4027 6.60943C17.4027 5.57831 18.2193 4.74145 19.2256 4.74145Z" fill="#AFAFAF"/>
<path fillRule="evenodd" clipRule="evenodd" d="M11.1797 21.3047H2.33247V22.7991H11.1797V21.3047Z" fill="#AFAFAF"/>
<path fillRule="evenodd" clipRule="evenodd" d="M19.6068 22.799H25.6662V21.3046H19.6068C19.2743 19.8073 17.9676 18.6895 16.4072 18.6895C14.596 18.6895 13.126 20.1958 13.126 22.0518C13.126 23.9078 14.596 25.4142 16.4072 25.4142C17.9676 25.4142 19.2743 24.2964 19.6068 22.799ZM16.4072 20.1838C17.4135 20.1838 18.2301 21.0207 18.2301 22.0518C18.2301 23.0829 17.4135 23.9198 16.4072 23.9198C15.401 23.9198 14.5843 23.0829 14.5843 22.0518C14.5843 21.0207 15.401 20.1838 16.4072 20.1838Z" fill="#AFAFAF"/>
</svg>
