<svg width="21" height="21" viewBox="0 0 21 21" fill="none" xmlns="http://www.w3.org/2000/svg">
<path d="M11.3307 19.0834H9.66406V16.5834H11.3307V19.0834ZM15.8007 17.2318L14.0332 15.4643L15.2116 14.2859L16.9799 16.0543L15.8024 17.2318H15.8007ZM5.19406 17.2318L4.01573 16.0534L5.7824 14.2851L6.96156 15.4634L5.1949 17.2309V17.2318H5.19406ZM10.4974 14.9226C9.39078 14.9221 8.32966 14.4821 7.54748 13.6993C6.7653 12.9165 6.32612 11.855 6.32656 10.7484C6.327 9.6418 6.76703 8.58069 7.54984 7.7985C8.33264 7.01632 9.39411 6.57714 10.5007 6.57758C11.0487 6.5778 11.5912 6.68594 12.0973 6.89583C12.6035 7.10572 13.0633 7.41325 13.4506 7.80086C13.8379 8.18847 14.1451 8.64856 14.3546 9.15488C14.5641 9.66119 14.6718 10.2038 14.6716 10.7518C14.6713 11.2997 14.5632 11.8422 14.3533 12.3484C14.1434 12.8545 13.8359 13.3144 13.4483 13.7017C13.0607 14.089 12.6006 14.3961 12.0943 14.6056C11.588 14.8151 11.0453 14.9228 10.4974 14.9226ZM10.4974 8.24425C10.1683 8.24447 9.84252 8.3095 9.53858 8.43563C9.23464 8.56177 8.95852 8.74653 8.72599 8.97937C8.49346 9.21221 8.30906 9.48858 8.18334 9.79268C8.05761 10.0968 7.99301 10.4227 7.99323 10.7518C7.99345 11.0808 8.05848 11.4066 8.18461 11.7106C8.31074 12.0145 8.4955 12.2906 8.72835 12.5232C8.96119 12.7557 9.23756 12.9401 9.54166 13.0658C9.84577 13.1915 10.1717 13.2561 10.5007 13.2559C11.1653 13.2555 11.8025 12.991 12.2721 12.5208C12.7418 12.0506 13.0053 11.413 13.0049 10.7484C13.0045 10.0838 12.74 9.44664 12.2698 8.97701C11.7995 8.50739 11.162 8.24381 10.4974 8.24425ZM18.8307 11.5834H16.3307V9.91675H18.8307V11.5834ZM4.66406 11.5834H2.16406V9.91675H4.66406V11.5834ZM15.2107 7.21508L14.0332 6.03592L15.8007 4.26758L16.9799 5.44675L15.2116 7.21425L15.2107 7.21508ZM5.78323 7.21508L4.01656 5.44758L5.19573 4.26925L6.96239 6.03758L5.78406 7.21425V7.21508H5.78323ZM11.3307 4.91675H9.66406V2.41675H11.3307V4.91675Z" fill="#212030"/>
</svg>
