<svg width="667" height="384" viewBox="0 0 667 384" fill="none" xmlns="http://www.w3.org/2000/svg">
<path d="M88.6203 249.601C53.9879 259.35 30.12 317.354 1.09473 326.866V350.327H661V208.787C628.688 208.787 624.376 252.017 609.17 240.116C593.964 228.216 577.991 146.397 560.251 150.724C542.511 155.052 532.775 40.2284 495.394 51.0467C458.013 61.8649 430.501 185.427 400.723 132.417C370.945 79.4076 364.615 107.378 332.936 96.5596C301.258 85.7413 287.38 215.339 257.375 211.197C227.37 207.056 219.36 314.847 188.74 304.849C151.634 292.734 154.864 285.948 138.365 270.233C121.866 254.518 107.079 244.404 88.6203 249.601Z" fill="url(#paint0_linear_13412_23780)"/>
<path d="M1.09473 326.866C30.12 317.354 53.9879 259.35 88.6203 249.601C107.079 244.404 121.866 254.518 138.365 270.233C154.864 285.948 151.634 292.734 188.74 304.849C219.36 314.847 227.37 207.056 257.375 211.197C287.38 215.339 301.258 85.7413 332.936 96.5596C364.615 107.378 370.945 79.4076 400.723 132.417C430.501 185.427 458.013 61.8649 495.394 51.0467C532.775 40.2284 542.511 155.052 560.251 150.724C577.991 146.397 593.964 228.216 609.17 240.116C623.537 251.36 628.179 213.387 655.903 209.165" stroke="#48D5BC" stroke-width="2" stroke-linecap="round" stroke-linejoin="round"/>
<g filter="url(#filter0_d_13412_23780)">
<rect x="651" y="204.182" width="10" height="10" rx="5" fill="#48D5BC"/>
</g>
<path d="M1.868 372.161C1.868 370.556 2.12933 369.305 2.652 368.409C3.17467 367.504 4.08933 367.051 5.396 367.051C6.69333 367.051 7.60333 367.504 8.126 368.409C8.64867 369.305 8.91 370.556 8.91 372.161C8.91 373.794 8.64867 375.064 8.126 375.969C7.60333 376.874 6.69333 377.327 5.396 377.327C4.08933 377.327 3.17467 376.874 2.652 375.969C2.12933 375.064 1.868 373.794 1.868 372.161ZM7.65 372.161C7.65 371.349 7.594 370.663 7.482 370.103C7.37933 369.534 7.16 369.076 6.824 368.731C6.49733 368.386 6.02133 368.213 5.396 368.213C4.76133 368.213 4.276 368.386 3.94 368.731C3.61333 369.076 3.394 369.534 3.282 370.103C3.17933 370.663 3.128 371.349 3.128 372.161C3.128 373.001 3.17933 373.706 3.282 374.275C3.394 374.844 3.61333 375.302 3.94 375.647C4.276 375.992 4.76133 376.165 5.396 376.165C6.02133 376.165 6.49733 375.992 6.824 375.647C7.16 375.302 7.37933 374.844 7.482 374.275C7.594 373.706 7.65 373.001 7.65 372.161ZM10.323 368.367V367.205H12.955V377.327H11.667V368.367H10.323ZM15.7594 377.411C15.5167 377.411 15.3114 377.327 15.1434 377.159C14.9754 376.991 14.8914 376.786 14.8914 376.543C14.8914 376.3 14.9754 376.095 15.1434 375.927C15.3114 375.759 15.5167 375.675 15.7594 375.675C15.9927 375.675 16.1887 375.759 16.3474 375.927C16.5154 376.095 16.5994 376.3 16.5994 376.543C16.5994 376.786 16.5154 376.991 16.3474 377.159C16.1887 377.327 15.9927 377.411 15.7594 377.411ZM18.0828 372.161C18.0828 370.556 18.3442 369.305 18.8668 368.409C19.3895 367.504 20.3042 367.051 21.6108 367.051C22.9082 367.051 23.8182 367.504 24.3408 368.409C24.8635 369.305 25.1248 370.556 25.1248 372.161C25.1248 373.794 24.8635 375.064 24.3408 375.969C23.8182 376.874 22.9082 377.327 21.6108 377.327C20.3042 377.327 19.3895 376.874 18.8668 375.969C18.3442 375.064 18.0828 373.794 18.0828 372.161ZM23.8648 372.161C23.8648 371.349 23.8088 370.663 23.6968 370.103C23.5942 369.534 23.3748 369.076 23.0388 368.731C22.7122 368.386 22.2362 368.213 21.6108 368.213C20.9762 368.213 20.4908 368.386 20.1548 368.731C19.8282 369.076 19.6088 369.534 19.4968 370.103C19.3942 370.663 19.3428 371.349 19.3428 372.161C19.3428 373.001 19.3942 373.706 19.4968 374.275C19.6088 374.844 19.8282 375.302 20.1548 375.647C20.4908 375.992 20.9762 376.165 21.6108 376.165C22.2362 376.165 22.7122 375.992 23.0388 375.647C23.3748 375.302 23.5942 374.844 23.6968 374.275C23.8088 373.706 23.8648 373.001 23.8648 372.161ZM26.8739 372.161C26.8739 370.556 27.1352 369.305 27.6579 368.409C28.1805 367.504 29.0952 367.051 30.4019 367.051C31.6992 367.051 32.6092 367.504 33.1319 368.409C33.6545 369.305 33.9159 370.556 33.9159 372.161C33.9159 373.794 33.6545 375.064 33.1319 375.969C32.6092 376.874 31.6992 377.327 30.4019 377.327C29.0952 377.327 28.1805 376.874 27.6579 375.969C27.1352 375.064 26.8739 373.794 26.8739 372.161ZM32.6559 372.161C32.6559 371.349 32.5999 370.663 32.4879 370.103C32.3852 369.534 32.1659 369.076 31.8299 368.731C31.5032 368.386 31.0272 368.213 30.4019 368.213C29.7672 368.213 29.2819 368.386 28.9459 368.731C28.6192 369.076 28.3999 369.534 28.2879 370.103C28.1852 370.663 28.1339 371.349 28.1339 372.161C28.1339 373.001 28.1852 373.706 28.2879 374.275C28.3999 374.844 28.6192 375.302 28.9459 375.647C29.2819 375.992 29.7672 376.165 30.4019 376.165C31.0272 376.165 31.5032 375.992 31.8299 375.647C32.1659 375.302 32.3852 374.844 32.4879 374.275C32.5999 373.706 32.6559 373.001 32.6559 372.161ZM45.3753 375.157H41.1193L40.3353 377.327H38.9913L42.5193 367.625H43.9893L47.5033 377.327H46.1593L45.3753 375.157ZM45.0113 374.121L43.2473 369.193L41.4833 374.121H45.0113ZM58.9389 367.639V377.327H57.6649V370.103L54.4449 377.327H53.5489L50.3149 370.089V377.327H49.0409V367.639H50.4129L53.9969 375.647L57.5809 367.639H58.9389Z" fill="#737373"/>
<path d="M200.356 372.161C200.356 370.556 200.617 369.305 201.14 368.409C201.663 367.504 202.577 367.051 203.884 367.051C205.181 367.051 206.091 367.504 206.614 368.409C207.137 369.305 207.398 370.556 207.398 372.161C207.398 373.794 207.137 375.064 206.614 375.969C206.091 376.874 205.181 377.327 203.884 377.327C202.577 377.327 201.663 376.874 201.14 375.969C200.617 375.064 200.356 373.794 200.356 372.161ZM206.138 372.161C206.138 371.349 206.082 370.663 205.97 370.103C205.867 369.534 205.648 369.076 205.312 368.731C204.985 368.386 204.509 368.213 203.884 368.213C203.249 368.213 202.764 368.386 202.428 368.731C202.101 369.076 201.882 369.534 201.77 370.103C201.667 370.663 201.616 371.349 201.616 372.161C201.616 373.001 201.667 373.706 201.77 374.275C201.882 374.844 202.101 375.302 202.428 375.647C202.764 375.992 203.249 376.165 203.884 376.165C204.509 376.165 204.985 375.992 205.312 375.647C205.648 375.302 205.867 374.844 205.97 374.275C206.082 373.706 206.138 373.001 206.138 372.161ZM210.785 374.611C210.878 375.143 211.093 375.554 211.429 375.843C211.774 376.132 212.236 376.277 212.815 376.277C213.59 376.277 214.159 375.974 214.523 375.367C214.896 374.76 215.074 373.738 215.055 372.301C214.859 372.721 214.532 373.052 214.075 373.295C213.618 373.528 213.109 373.645 212.549 373.645C211.924 373.645 211.364 373.519 210.869 373.267C210.384 373.006 210.001 372.628 209.721 372.133C209.441 371.638 209.301 371.041 209.301 370.341C209.301 369.342 209.59 368.54 210.169 367.933C210.748 367.317 211.569 367.009 212.633 367.009C213.94 367.009 214.854 367.434 215.377 368.283C215.909 369.132 216.175 370.397 216.175 372.077C216.175 373.253 216.068 374.224 215.853 374.989C215.648 375.754 215.293 376.338 214.789 376.739C214.294 377.14 213.613 377.341 212.745 377.341C211.793 377.341 211.051 377.084 210.519 376.571C209.987 376.058 209.684 375.404 209.609 374.611H210.785ZM212.759 372.567C213.384 372.567 213.898 372.376 214.299 371.993C214.7 371.601 214.901 371.074 214.901 370.411C214.901 369.711 214.705 369.146 214.313 368.717C213.921 368.288 213.37 368.073 212.661 368.073C212.008 368.073 211.485 368.278 211.093 368.689C210.71 369.1 210.519 369.641 210.519 370.313C210.519 370.994 210.71 371.54 211.093 371.951C211.476 372.362 212.031 372.567 212.759 372.567ZM218.581 377.411C218.339 377.411 218.133 377.327 217.965 377.159C217.797 376.991 217.713 376.786 217.713 376.543C217.713 376.3 217.797 376.095 217.965 375.927C218.133 375.759 218.339 375.675 218.581 375.675C218.815 375.675 219.011 375.759 219.169 375.927C219.337 376.095 219.421 376.3 219.421 376.543C219.421 376.786 219.337 376.991 219.169 377.159C219.011 377.327 218.815 377.411 218.581 377.411ZM220.905 372.161C220.905 370.556 221.166 369.305 221.689 368.409C222.212 367.504 223.126 367.051 224.433 367.051C225.73 367.051 226.64 367.504 227.163 368.409C227.686 369.305 227.947 370.556 227.947 372.161C227.947 373.794 227.686 375.064 227.163 375.969C226.64 376.874 225.73 377.327 224.433 377.327C223.126 377.327 222.212 376.874 221.689 375.969C221.166 375.064 220.905 373.794 220.905 372.161ZM226.687 372.161C226.687 371.349 226.631 370.663 226.519 370.103C226.416 369.534 226.197 369.076 225.861 368.731C225.534 368.386 225.058 368.213 224.433 368.213C223.798 368.213 223.313 368.386 222.977 368.731C222.65 369.076 222.431 369.534 222.319 370.103C222.216 370.663 222.165 371.349 222.165 372.161C222.165 373.001 222.216 373.706 222.319 374.275C222.431 374.844 222.65 375.302 222.977 375.647C223.313 375.992 223.798 376.165 224.433 376.165C225.058 376.165 225.534 375.992 225.861 375.647C226.197 375.302 226.416 374.844 226.519 374.275C226.631 373.706 226.687 373.001 226.687 372.161ZM229.696 372.161C229.696 370.556 229.957 369.305 230.48 368.409C231.003 367.504 231.917 367.051 233.224 367.051C234.521 367.051 235.431 367.504 235.954 368.409C236.477 369.305 236.738 370.556 236.738 372.161C236.738 373.794 236.477 375.064 235.954 375.969C235.431 376.874 234.521 377.327 233.224 377.327C231.917 377.327 231.003 376.874 230.48 375.969C229.957 375.064 229.696 373.794 229.696 372.161ZM235.478 372.161C235.478 371.349 235.422 370.663 235.31 370.103C235.207 369.534 234.988 369.076 234.652 368.731C234.325 368.386 233.849 368.213 233.224 368.213C232.589 368.213 232.104 368.386 231.768 368.731C231.441 369.076 231.222 369.534 231.11 370.103C231.007 370.663 230.956 371.349 230.956 372.161C230.956 373.001 231.007 373.706 231.11 374.275C231.222 374.844 231.441 375.302 231.768 375.647C232.104 375.992 232.589 376.165 233.224 376.165C233.849 376.165 234.325 375.992 234.652 375.647C234.988 375.302 235.207 374.844 235.31 374.275C235.422 373.706 235.478 373.001 235.478 372.161ZM248.197 375.157H243.941L243.157 377.327H241.813L245.341 367.625H246.811L250.325 377.327H248.981L248.197 375.157ZM247.833 374.121L246.069 369.193L244.305 374.121H247.833ZM261.761 367.639V377.327H260.487V370.103L257.267 377.327H256.371L253.137 370.089V377.327H251.863V367.639H253.235L256.819 375.647L260.403 367.639H261.761Z" fill="#737373"/>
<path d="M405.201 372.161C405.201 370.556 405.462 369.305 405.985 368.409C406.508 367.504 407.422 367.051 408.729 367.051C410.026 367.051 410.936 367.504 411.459 368.409C411.982 369.305 412.243 370.556 412.243 372.161C412.243 373.794 411.982 375.064 411.459 375.969C410.936 376.874 410.026 377.327 408.729 377.327C407.422 377.327 406.508 376.874 405.985 375.969C405.462 375.064 405.201 373.794 405.201 372.161ZM410.983 372.161C410.983 371.349 410.927 370.663 410.815 370.103C410.712 369.534 410.493 369.076 410.157 368.731C409.83 368.386 409.354 368.213 408.729 368.213C408.094 368.213 407.609 368.386 407.273 368.731C406.946 369.076 406.727 369.534 406.615 370.103C406.512 370.663 406.461 371.349 406.461 372.161C406.461 373.001 406.512 373.706 406.615 374.275C406.727 374.844 406.946 375.302 407.273 375.647C407.609 375.992 408.094 376.165 408.729 376.165C409.354 376.165 409.83 375.992 410.157 375.647C410.493 375.302 410.712 374.844 410.815 374.275C410.927 373.706 410.983 373.001 410.983 372.161ZM420.446 368.311H415.532V371.503C415.747 371.204 416.064 370.962 416.484 370.775C416.904 370.579 417.357 370.481 417.842 370.481C418.617 370.481 419.247 370.644 419.732 370.971C420.217 371.288 420.563 371.704 420.768 372.217C420.983 372.721 421.09 373.258 421.09 373.827C421.09 374.499 420.964 375.101 420.712 375.633C420.46 376.165 420.073 376.585 419.55 376.893C419.037 377.201 418.397 377.355 417.632 377.355C416.652 377.355 415.859 377.103 415.252 376.599C414.645 376.095 414.277 375.423 414.146 374.583H415.392C415.513 375.115 415.77 375.53 416.162 375.829C416.554 376.128 417.049 376.277 417.646 376.277C418.383 376.277 418.939 376.058 419.312 375.619C419.685 375.171 419.872 374.583 419.872 373.855C419.872 373.127 419.685 372.567 419.312 372.175C418.939 371.774 418.388 371.573 417.66 371.573C417.165 371.573 416.731 371.694 416.358 371.937C415.994 372.17 415.728 372.492 415.56 372.903H414.356V367.191H420.446V368.311ZM423.399 377.411C423.156 377.411 422.951 377.327 422.783 377.159C422.615 376.991 422.531 376.786 422.531 376.543C422.531 376.3 422.615 376.095 422.783 375.927C422.951 375.759 423.156 375.675 423.399 375.675C423.632 375.675 423.828 375.759 423.987 375.927C424.155 376.095 424.239 376.3 424.239 376.543C424.239 376.786 424.155 376.991 423.987 377.159C423.828 377.327 423.632 377.411 423.399 377.411ZM425.722 372.161C425.722 370.556 425.984 369.305 426.506 368.409C427.029 367.504 427.944 367.051 429.25 367.051C430.548 367.051 431.458 367.504 431.98 368.409C432.503 369.305 432.764 370.556 432.764 372.161C432.764 373.794 432.503 375.064 431.98 375.969C431.458 376.874 430.548 377.327 429.25 377.327C427.944 377.327 427.029 376.874 426.506 375.969C425.984 375.064 425.722 373.794 425.722 372.161ZM431.504 372.161C431.504 371.349 431.448 370.663 431.336 370.103C431.234 369.534 431.014 369.076 430.678 368.731C430.352 368.386 429.876 368.213 429.25 368.213C428.616 368.213 428.13 368.386 427.794 368.731C427.468 369.076 427.248 369.534 427.136 370.103C427.034 370.663 426.982 371.349 426.982 372.161C426.982 373.001 427.034 373.706 427.136 374.275C427.248 374.844 427.468 375.302 427.794 375.647C428.13 375.992 428.616 376.165 429.25 376.165C429.876 376.165 430.352 375.992 430.678 375.647C431.014 375.302 431.234 374.844 431.336 374.275C431.448 373.706 431.504 373.001 431.504 372.161ZM434.513 372.161C434.513 370.556 434.775 369.305 435.297 368.409C435.82 367.504 436.735 367.051 438.041 367.051C439.339 367.051 440.249 367.504 440.771 368.409C441.294 369.305 441.555 370.556 441.555 372.161C441.555 373.794 441.294 375.064 440.771 375.969C440.249 376.874 439.339 377.327 438.041 377.327C436.735 377.327 435.82 376.874 435.297 375.969C434.775 375.064 434.513 373.794 434.513 372.161ZM440.295 372.161C440.295 371.349 440.239 370.663 440.127 370.103C440.025 369.534 439.805 369.076 439.469 368.731C439.143 368.386 438.667 368.213 438.041 368.213C437.407 368.213 436.921 368.386 436.585 368.731C436.259 369.076 436.039 369.534 435.927 370.103C435.825 370.663 435.773 371.349 435.773 372.161C435.773 373.001 435.825 373.706 435.927 374.275C436.039 374.844 436.259 375.302 436.585 375.647C436.921 375.992 437.407 376.165 438.041 376.165C438.667 376.165 439.143 375.992 439.469 375.647C439.805 375.302 440.025 374.844 440.127 374.275C440.239 373.706 440.295 373.001 440.295 372.161ZM453.771 370.425C453.771 371.237 453.491 371.914 452.931 372.455C452.38 372.987 451.535 373.253 450.397 373.253H448.521V377.327H447.247V367.569H450.397C451.498 367.569 452.333 367.835 452.903 368.367C453.481 368.899 453.771 369.585 453.771 370.425ZM450.397 372.203C451.106 372.203 451.629 372.049 451.965 371.741C452.301 371.433 452.469 370.994 452.469 370.425C452.469 369.221 451.778 368.619 450.397 368.619H448.521V372.203H450.397ZM465.252 367.639V377.327H463.978V370.103L460.758 377.327H459.862L456.628 370.089V377.327H455.354V367.639H456.726L460.31 375.647L463.894 367.639H465.252Z" fill="#737373"/>
<path d="M598.54 372.161C598.54 370.556 598.801 369.305 599.324 368.409C599.846 367.504 600.761 367.051 602.068 367.051C603.365 367.051 604.275 367.504 604.798 368.409C605.32 369.305 605.582 370.556 605.582 372.161C605.582 373.794 605.32 375.064 604.798 375.969C604.275 376.874 603.365 377.327 602.068 377.327C600.761 377.327 599.846 376.874 599.324 375.969C598.801 375.064 598.54 373.794 598.54 372.161ZM604.322 372.161C604.322 371.349 604.266 370.663 604.154 370.103C604.051 369.534 603.832 369.076 603.496 368.731C603.169 368.386 602.693 368.213 602.068 368.213C601.433 368.213 600.948 368.386 600.612 368.731C600.285 369.076 600.066 369.534 599.954 370.103C599.851 370.663 599.8 371.349 599.8 372.161C599.8 373.001 599.851 373.706 599.954 374.275C600.066 374.844 600.285 375.302 600.612 375.647C600.948 375.992 601.433 376.165 602.068 376.165C602.693 376.165 603.169 375.992 603.496 375.647C603.832 375.302 604.051 374.844 604.154 374.275C604.266 373.706 604.322 373.001 604.322 372.161ZM607.331 372.161C607.331 370.556 607.592 369.305 608.115 368.409C608.637 367.504 609.552 367.051 610.859 367.051C612.156 367.051 613.066 367.504 613.589 368.409C614.111 369.305 614.373 370.556 614.373 372.161C614.373 373.794 614.111 375.064 613.589 375.969C613.066 376.874 612.156 377.327 610.859 377.327C609.552 377.327 608.637 376.874 608.115 375.969C607.592 375.064 607.331 373.794 607.331 372.161ZM613.113 372.161C613.113 371.349 613.057 370.663 612.945 370.103C612.842 369.534 612.623 369.076 612.287 368.731C611.96 368.386 611.484 368.213 610.859 368.213C610.224 368.213 609.739 368.386 609.403 368.731C609.076 369.076 608.857 369.534 608.745 370.103C608.642 370.663 608.591 371.349 608.591 372.161C608.591 373.001 608.642 373.706 608.745 374.275C608.857 374.844 609.076 375.302 609.403 375.647C609.739 375.992 610.224 376.165 610.859 376.165C611.484 376.165 611.96 375.992 612.287 375.647C612.623 375.302 612.842 374.844 612.945 374.275C613.057 373.706 613.113 373.001 613.113 372.161ZM616.738 377.411C616.495 377.411 616.29 377.327 616.122 377.159C615.954 376.991 615.87 376.786 615.87 376.543C615.87 376.3 615.954 376.095 616.122 375.927C616.29 375.759 616.495 375.675 616.738 375.675C616.971 375.675 617.167 375.759 617.326 375.927C617.494 376.095 617.578 376.3 617.578 376.543C617.578 376.786 617.494 376.991 617.326 377.159C617.167 377.327 616.971 377.411 616.738 377.411ZM625.515 368.311H620.601V371.503C620.816 371.204 621.133 370.962 621.553 370.775C621.973 370.579 622.426 370.481 622.911 370.481C623.686 370.481 624.316 370.644 624.801 370.971C625.287 371.288 625.632 371.704 625.837 372.217C626.052 372.721 626.159 373.258 626.159 373.827C626.159 374.499 626.033 375.101 625.781 375.633C625.529 376.165 625.142 376.585 624.619 376.893C624.106 377.201 623.467 377.355 622.701 377.355C621.721 377.355 620.928 377.103 620.321 376.599C619.715 376.095 619.346 375.423 619.215 374.583H620.461C620.583 375.115 620.839 375.53 621.231 375.829C621.623 376.128 622.118 376.277 622.715 376.277C623.453 376.277 624.008 376.058 624.381 375.619C624.755 375.171 624.941 374.583 624.941 373.855C624.941 373.127 624.755 372.567 624.381 372.175C624.008 371.774 623.457 371.573 622.729 371.573C622.235 371.573 621.801 371.694 621.427 371.937C621.063 372.17 620.797 372.492 620.629 372.903H619.425V367.191H625.515V368.311ZM634.306 368.311H629.392V371.503C629.607 371.204 629.924 370.962 630.344 370.775C630.764 370.579 631.217 370.481 631.702 370.481C632.477 370.481 633.107 370.644 633.592 370.971C634.078 371.288 634.423 371.704 634.628 372.217C634.843 372.721 634.95 373.258 634.95 373.827C634.95 374.499 634.824 375.101 634.572 375.633C634.32 376.165 633.933 376.585 633.41 376.893C632.897 377.201 632.258 377.355 631.492 377.355C630.512 377.355 629.719 377.103 629.112 376.599C628.506 376.095 628.137 375.423 628.006 374.583H629.252C629.374 375.115 629.63 375.53 630.022 375.829C630.414 376.128 630.909 376.277 631.506 376.277C632.244 376.277 632.799 376.058 633.172 375.619C633.546 375.171 633.732 374.583 633.732 373.855C633.732 373.127 633.546 372.567 633.172 372.175C632.799 371.774 632.248 371.573 631.52 371.573C631.026 371.573 630.592 371.694 630.218 371.937C629.854 372.17 629.588 372.492 629.42 372.903H628.216V367.191H634.306V368.311ZM646.354 375.157H642.098L641.314 377.327H639.97L643.498 367.625H644.968L648.482 377.327H647.138L646.354 375.157ZM645.99 374.121L644.226 369.193L642.462 374.121H645.99ZM659.917 367.639V377.327H658.643V370.103L655.423 377.327H654.527L651.293 370.089V377.327H650.019V367.639H651.391L654.975 375.647L658.559 367.639H659.917Z" fill="#737373"/>
<defs>
<filter id="filter0_d_13412_23780" x="645.667" y="201.515" width="20.6667" height="20.6667" filterUnits="userSpaceOnUse" color-interpolation-filters="sRGB">
<feFlood flood-opacity="0" result="BackgroundImageFix"/>
<feColorMatrix in="SourceAlpha" type="matrix" values="0 0 0 0 0 0 0 0 0 0 0 0 0 0 0 0 0 0 127 0" result="hardAlpha"/>
<feOffset dy="2.66667"/>
<feGaussianBlur stdDeviation="2.66667"/>
<feColorMatrix type="matrix" values="0 0 0 0 0.196487 0 0 0 0 0.196487 0 0 0 0 0.279476 0 0 0 0.06 0"/>
<feBlend mode="multiply" in2="BackgroundImageFix" result="effect1_dropShadow_13412_23780"/>
<feBlend mode="normal" in="SourceGraphic" in2="effect1_dropShadow_13412_23780" result="shape"/>
</filter>
<linearGradient id="paint0_linear_13412_23780" x1="331.047" y1="50.3271" x2="331.047" y2="350.327" gradientUnits="userSpaceOnUse">
<stop stopColor="#55EED0" stop-opacity="0.1"/>
<stop offset="0.998978" stopColor="#55EED0" stop-opacity="0"/>
</linearGradient>
</defs>
</svg>
