<svg width="32" height="33" viewBox="0 0 32 33" fill="none" xmlns="http://www.w3.org/2000/svg">
<path d="M16 32.4219C24.8365 32.4219 32 25.2584 32 16.4219C32 7.58533 24.8365 0.421875 16 0.421875C7.16345 0.421875 0 7.58533 0 16.4219C0 25.2584 7.16345 32.4219 16 32.4219Z" fill="#3375BB"/>
<path fillRule="evenodd" clipRule="evenodd" d="M15.4721 6.65434C15.8433 6.34439 16.383 6.34439 16.7542 6.65434C19.4728 8.92482 22.5727 8.90727 23.7723 8.90048C23.8321 8.90014 23.8872 8.89982 23.9373 8.89982C24.2051 8.89982 24.4618 9.00726 24.6497 9.19807C24.8377 9.38888 24.9412 9.64711 24.9372 9.91491C24.8804 13.6778 24.7296 16.3634 24.4336 18.3318C24.1379 20.2989 23.6843 21.647 22.9535 22.6627C22.2175 23.6856 21.2715 24.2664 20.2643 24.8231C20.0897 24.9196 19.9117 25.0161 19.7295 25.1149C18.8454 25.5945 17.8626 26.1276 16.696 26.9644C16.3476 27.2144 15.8787 27.2144 15.5303 26.9644C14.3649 26.1284 13.3833 25.5956 12.5005 25.1163C12.3175 25.0169 12.1387 24.9199 11.9634 24.8229C10.9569 24.2661 10.0122 23.6851 9.27758 22.6619C8.54836 21.6461 8.09639 20.298 7.80172 18.3313C7.50684 16.3632 7.3567 13.6777 7.29992 9.91491C7.29588 9.64711 7.39943 9.38888 7.58738 9.19807C7.77533 9.00726 8.03197 8.89982 8.2998 8.89982C8.34934 8.89982 8.4039 8.90014 8.46321 8.90048C9.65309 8.90728 12.7533 8.925 15.4721 6.65434ZM9.31777 10.8936C9.38489 14.1008 9.5309 16.3748 9.77964 18.0349C10.0539 19.8654 10.4403 20.852 10.9023 21.4955C11.3588 22.1315 11.958 22.5343 12.9315 23.0728C13.0901 23.1605 13.2573 23.2512 13.4329 23.3465C14.1817 23.7525 15.0829 24.2412 16.1132 24.9343C17.1449 24.2403 18.0475 23.7513 18.7975 23.3449C18.9723 23.2502 19.1389 23.1599 19.2968 23.0726C20.2716 22.5339 20.8722 22.1309 21.3301 21.4946C21.7931 20.8511 22.1807 19.8646 22.4559 18.0344C22.7054 16.3745 22.8521 14.1007 22.9193 10.8938C21.3798 10.8441 18.6685 10.5262 16.1132 8.68684C13.5609 10.524 10.8535 10.8434 9.31777 10.8936Z" fill="white"/>
</svg>
     