<svg width="24" height="20" viewBox="0 0 24 20" fill="none" xmlns="http://www.w3.org/2000/svg">
<path d="M23.6425 2.93702C22.8075 3.30702 21.9105 3.55702 20.9675 3.67002C21.9405 3.08781 22.6685 2.17148 23.0155 1.09202C22.1014 1.63501 21.1009 2.01721 20.0575 2.22202C19.3559 1.47288 18.4266 0.976342 17.4138 0.80949C16.4011 0.642638 15.3616 0.814807 14.4568 1.29927C13.5519 1.78373 12.8323 2.55338 12.4097 3.48872C11.9871 4.42406 11.8851 5.47277 12.1195 6.47202C10.2672 6.37901 8.45515 5.89757 6.80095 5.05892C5.14674 4.22028 3.68736 3.04318 2.51752 1.60402C2.11752 2.29402 1.88752 3.09402 1.88752 3.94602C1.88708 4.71301 2.07596 5.46826 2.4374 6.14475C2.79885 6.82124 3.32168 7.39805 3.95952 7.82402C3.2198 7.80048 2.4964 7.6006 1.84952 7.24102V7.30102C1.84945 8.37676 2.22156 9.41939 2.90271 10.252C3.58386 11.0846 4.53209 11.6559 5.58652 11.869C4.90031 12.0547 4.18086 12.0821 3.48252 11.949C3.78002 12.8746 4.35952 13.684 5.13989 14.2639C5.92026 14.8438 6.86244 15.1652 7.83452 15.183C6.18436 16.4784 4.14641 17.1811 2.04852 17.178C1.6769 17.1781 1.3056 17.1564 0.936523 17.113C3.066 18.4822 5.54486 19.2088 8.07652 19.206C16.6465 19.206 21.3315 12.108 21.3315 5.95202C21.3315 5.75202 21.3265 5.55002 21.3175 5.35002C22.2288 4.69099 23.0154 3.87491 23.6405 2.94002L23.6425 2.93702Z" fill="#5C5B63"/> 
</svg>
