<svg width="15" height="13" viewBox="0 0 15 13" fill="none" xmlns="http://www.w3.org/2000/svg">
<path d="M12.41 2.50679C12.9581 3.05347 13.3946 3.70149 13.6953 4.41479C14.0084 5.15347 14.169 5.94782 14.1673 6.75012C14.1688 7.94594 13.8116 9.11472 13.142 10.1055C12.4913 11.0703 11.5744 11.8253 10.5026 12.2788C9.76327 12.5896 8.96935 12.7498 8.16732 12.7501C7.37941 12.7506 6.59916 12.5956 5.87125 12.2941C5.14334 11.9925 4.48207 11.5503 3.92532 10.9928L4.86798 10.0501C5.07979 10.2617 5.31129 10.4525 5.55932 10.6201C6.06363 10.9613 6.63018 11.1998 7.22665 11.3221C7.84769 11.4478 8.48761 11.4478 9.10865 11.3221C9.40867 11.2605 9.70187 11.1694 9.98398 11.0501C10.5379 10.8145 11.0414 10.4748 11.4673 10.0495C11.6786 9.83879 11.87 9.60612 12.0366 9.35879C12.3785 8.85431 12.6173 8.28722 12.7393 7.69012C12.8651 7.06887 12.8651 6.42871 12.7393 5.80746C12.4893 4.59525 11.7682 3.53193 10.7345 2.85124C9.70073 2.17054 8.43901 1.92819 7.22665 2.17746C6.63006 2.30106 6.06328 2.53973 5.55798 2.88012C5.06128 3.21647 4.6334 3.64458 4.29732 4.14146C3.77629 4.91151 3.49873 5.82037 3.50065 6.75012L3.50132 6.76679H4.83398L2.83398 9.41679L0.833984 6.76679H2.16798L2.16732 6.75012C2.1662 5.94766 2.32672 5.1532 2.63932 4.41412C2.94154 3.70203 3.37791 3.05471 3.92465 2.50746C4.75363 1.67612 5.8091 1.10735 6.95932 0.872124C7.75692 0.70978 8.57905 0.70978 9.37665 0.872124C10.5258 1.10886 11.5804 1.67717 12.41 2.50679Z" fill="#5C5B63"/>
<path d="M7.50065 7.41671V4.08337H8.83398V6.08337H10.834V7.41671H7.50065Z" fill="#5C5B63"/>
</svg>
