<svg width="14" height="10" viewBox="0 0 14 10" fill="none" xmlns="http://www.w3.org/2000/svg">
<path d="M5.66634 4.66389H3.73367L3.73434 4.65789C3.82139 4.23165 3.99176 3.82679 4.23567 3.46656C4.59864 2.93177 5.10777 2.51267 5.70234 2.25922C5.90367 2.17389 6.11367 2.10856 6.32767 2.06522C6.7716 1.97522 7.22908 1.97522 7.67301 2.06522C8.31099 2.19595 8.89641 2.5115 9.35634 2.97256L10.3003 2.03122C9.87488 1.60565 9.37151 1.26592 8.81767 1.03056C8.53522 0.910977 8.24154 0.819859 7.94101 0.758557C7.3209 0.632564 6.68178 0.632564 6.06168 0.758557C5.76091 0.820113 5.46702 0.911452 5.18434 1.03122C4.35136 1.38463 3.63829 1.97128 3.13101 2.72056C2.7896 3.22579 2.55085 3.79322 2.42834 4.39056C2.40967 4.48056 2.39967 4.57256 2.38634 4.66389H0.333008L2.99967 7.33056L5.66634 4.66389ZM8.33301 5.99723H10.2657L10.265 6.00256C10.0908 6.85707 9.58715 7.60862 8.86301 8.09456C8.50288 8.33868 8.09799 8.50907 7.67167 8.5959C7.22797 8.6859 6.77071 8.6859 6.32701 8.5959C5.90076 8.50885 5.49591 8.33848 5.13567 8.09456C4.95876 7.97489 4.79357 7.83873 4.64234 7.6879L3.69967 8.63056C4.12535 9.05602 4.62896 9.39554 5.18301 9.63056C5.46567 9.75056 5.76101 9.8419 6.05967 9.90256C6.67955 10.0286 7.31846 10.0286 7.93834 9.90256C9.13337 9.65454 10.1845 8.95018 10.8683 7.93923C11.2094 7.43438 11.4479 6.86741 11.5703 6.27056C11.5883 6.18056 11.599 6.08856 11.6123 5.99723H13.6663L10.9997 3.33056L8.33301 5.99723Z" fill="#2EA5E8"/>
</svg>
