<svg width="29" height="29" viewBox="0 0 29 29" fill="none" xmlns="http://www.w3.org/2000/svg">
<path d="M14.05 28.1C21.8361 28.1 28.1 21.8361 28.1 14.05C28.1 6.26391 21.8361 0 14.05 0C6.26391 0 0 6.26391 0 14.05C0 21.8361 6.26391 28.1 14.05 28.1Z" fill="#2775CA"/>
<path d="M17.9139 16.2751C17.9139 14.2262 16.6845 13.5237 14.2257 13.231C12.4695 12.9968 12.1182 12.5285 12.1182 11.7088C12.1182 10.8892 12.7037 10.3624 13.8745 10.3624C14.9282 10.3624 15.5137 10.7137 15.8064 11.5918C15.865 11.7674 16.0406 11.8845 16.2162 11.8845H17.1528C17.387 11.8845 17.5626 11.7088 17.5626 11.4748V11.4162C17.3284 10.1282 16.2747 9.13304 14.9282 9.016V7.611C14.9282 7.37679 14.7526 7.20117 14.46 7.14258H13.5818C13.3476 7.14258 13.172 7.3182 13.1134 7.611V8.95742C11.3572 9.19163 10.245 10.3624 10.245 11.826C10.245 13.7579 11.4157 14.5188 13.8745 14.8116C15.5137 15.1043 16.0406 15.4555 16.0406 16.3923C16.0406 17.329 15.2209 17.9729 14.1087 17.9729C12.5865 17.9729 12.0597 17.3288 11.884 16.4507C11.8256 16.2166 11.65 16.0995 11.4743 16.0995H10.479C10.245 16.0995 10.0693 16.2751 10.0693 16.5093V16.5679C10.3034 18.0313 11.2401 19.0851 13.172 19.3779V20.7829C13.172 21.017 13.3476 21.1926 13.6403 21.2512H14.5184C14.7526 21.2512 14.9282 21.0755 14.9868 20.7829V19.3779C16.7431 19.0851 17.9139 17.8557 17.9139 16.2751Z" fill="white"/>
<path d="M11.0648 22.4211C6.49858 20.782 4.15687 15.6889 5.85467 11.1811C6.7328 8.72235 8.66467 6.84907 11.0648 5.97094C11.299 5.85391 11.4161 5.67828 11.4161 5.38548V4.56594C11.4161 4.33173 11.299 4.1561 11.0648 4.09766C11.0062 4.09766 10.8892 4.09766 10.8306 4.1561C5.26921 5.91235 2.22499 11.8252 3.98124 17.3866C5.03499 20.6649 7.55233 23.1822 10.8306 24.2359C11.0648 24.353 11.299 24.2359 11.3575 24.0017C11.4161 23.9433 11.4161 23.8847 11.4161 23.7677V22.948C11.4161 22.7724 11.2405 22.5383 11.0648 22.4211ZM17.2703 4.1561C17.0361 4.03907 16.8019 4.1561 16.7434 4.39032C16.6848 4.44891 16.6848 4.50735 16.6848 4.62453V5.44407C16.6848 5.67828 16.8605 5.91235 17.0361 6.02953C21.6023 7.6686 23.9441 12.7617 22.2462 17.2695C21.3681 19.7283 19.4362 21.6016 17.0361 22.4797C16.8019 22.5967 16.6848 22.7724 16.6848 23.0652V23.8847C16.6848 24.1189 16.8019 24.2945 17.0361 24.353C17.0947 24.353 17.2117 24.353 17.2703 24.2945C22.8317 22.5383 25.8759 16.6255 24.1197 11.0641C23.0659 7.72719 20.49 5.20985 17.2703 4.1561Z" fill="white"/>
</svg>
