<svg width="100" height="100" viewBox="0 0 100 100" fill="none" xmlns="http://www.w3.org/2000/svg">
<path d="M50 0C77.5974 0 100 22.4026 100 50C100 77.5974 77.5974 100 50 100C22.4026 100 0 77.5974 0 50C0 22.4026 22.4026 0 50 0Z" fill="white"/>
<path fillRule="evenodd" clipRule="evenodd" d="M52.9633 72.114L51.3673 78.7123C51.2315 78.7247 51.0956 78.6997 50.9597 78.6622C49.1373 78.0249 42.5042 75.7131 40.0479 74.8633C39.9573 74.8258 39.8893 74.7258 39.9006 74.6134C39.9006 74.4884 39.9799 74.4009 40.0818 74.3759L52.9633 72.114Z" fill="url(#paint0_linear_7793_73415)"/>
<path fillRule="evenodd" clipRule="evenodd" d="M52.9632 72.1144L64.5202 70.0773C64.6221 70.0523 64.724 70.1274 64.7693 70.2399C64.8033 70.3523 64.758 70.4772 64.6675 70.5397C61.7358 72.3767 53.7895 77.338 51.8539 78.5502C51.7067 78.6502 51.537 78.7001 51.3672 78.7126L52.9632 72.1144Z" fill="url(#paint1_linear_7793_73415)"/>
<path fillRule="evenodd" clipRule="evenodd" d="M35.2988 55.1982V69.6553C35.2988 69.8653 35.1688 70.0522 34.9788 70.1252C34.7788 70.1972 34.5588 70.1403 34.4188 69.9803C32.0588 67.2133 25.6188 59.6912 24.0188 57.8252C23.8688 57.6422 23.7788 57.4102 23.7788 57.1752L35.2988 55.1982Z" fill="url(#paint2_linear_7793_73415)"/>
<path fillRule="evenodd" clipRule="evenodd" d="M78.0592 47.6919C78.1092 47.9339 78.0691 48.1939 77.9191 48.4179C76.1891 51.1549 70.5092 60.1449 68.7092 62.9969C68.6392 63.1099 68.4992 63.1619 68.3792 63.1249C68.2492 63.0879 68.1592 62.9699 68.1592 62.8369V49.3909L78.0592 47.6919Z" fill="url(#paint3_linear_7793_73415)"/>
<path fillRule="evenodd" clipRule="evenodd" d="M42.7491 66.5106L61.069 34.8787C61.009 34.6927 60.8891 34.5296 60.7291 34.4106C58.3591 32.6626 46.3491 23.7726 43.1291 21.3876C42.9791 21.2746 42.7691 21.2576 42.5991 21.3426C42.4391 21.4276 42.3291 21.6006 42.3291 21.7886C42.3291 27.7916 42.3291 59.2136 42.3291 65.7006C42.3291 65.9936 42.4591 66.2716 42.6791 66.4616L42.7491 66.5106Z" fill="url(#paint4_linear_7793_73415)"/>
<path fillRule="evenodd" clipRule="evenodd" d="M23.7832 57.1755C23.7832 57.0745 23.7932 56.9725 23.8232 56.8735C24.9832 53.2385 31.7632 31.9126 34.3232 23.8676C34.4032 23.6326 34.6332 23.4875 34.8832 23.5245C35.1232 23.5625 35.3032 23.7726 35.3032 24.0196V55.1995L23.7832 57.1755Z" fill="url(#paint5_linear_7793_73415)"/>
<path fillRule="evenodd" clipRule="evenodd" d="M68.1538 49.3921V41.2521C68.1538 41.0651 68.2638 40.8931 68.4238 40.8081C68.5938 40.7221 68.7938 40.7361 68.9438 40.8451C70.8638 42.2181 75.7639 45.7141 77.6639 47.0711C77.8739 47.2251 78.0139 47.4501 78.0639 47.6931L68.1538 49.3921Z" fill="url(#paint6_linear_7793_73415)"/>
<path fillRule="evenodd" clipRule="evenodd" d="M61.0635 34.8796L42.7534 66.5117C42.9634 66.6677 43.2234 66.7307 43.4834 66.6887C46.9634 66.1337 57.2635 64.4907 60.2935 64.0077C60.7735 63.9307 61.1334 63.5117 61.1334 63.0207C61.1334 58.6297 61.1334 38.6527 61.1334 35.2157C61.1334 35.0987 61.1135 34.9846 61.0635 34.8796Z" fill="url(#paint7_linear_7793_73415)"/>
<defs>
<linearGradient id="paint0_linear_7793_73415" x1="51.2201" y1="73.1887" x2="45.3619" y2="77.2388" gradientUnits="userSpaceOnUse">
<stop stopColor="#D275F7"/>
<stop offset="1" stopColor="#FA9D3E"/>
</linearGradient>
<linearGradient id="paint1_linear_7793_73415" x1="54.2197" y1="78.4002" x2="61.6577" y2="69.6383" gradientUnits="userSpaceOnUse">
<stop stopColor="#D275F7"/>
<stop offset="1" stopColor="#0EF0FE"/>
</linearGradient>
<linearGradient id="paint2_linear_7793_73415" x1="30.2088" y1="56.5002" x2="26.4443" y2="68.4457" gradientUnits="userSpaceOnUse">
<stop stopColor="#D275F7"/>
<stop offset="1" stopColor="#FA9D3E"/>
</linearGradient>
<linearGradient id="paint3_linear_7793_73415" x1="70.3292" y1="62.4839" x2="76.1609" y2="46.002" gradientUnits="userSpaceOnUse">
<stop stopColor="#D275F7"/>
<stop offset="1" stopColor="#0EF0FE"/>
</linearGradient>
<linearGradient id="paint4_linear_7793_73415" x1="41.4391" y1="32.9316" x2="60.3556" y2="39.1581" gradientUnits="userSpaceOnUse">
<stop stopColor="#0EF0FE"/>
<stop offset="1" stopColor="#D275F7"/>
</linearGradient>
<linearGradient id="paint5_linear_7793_73415" x1="25.4732" y1="40.5945" x2="33.0716" y2="61.3023" gradientUnits="userSpaceOnUse">
<stop stopColor="#D275F7"/>
<stop offset="1" stopColor="#7A87F7"/>
</linearGradient>
<linearGradient id="paint6_linear_7793_73415" x1="72.6038" y1="42.7621" x2="72.2139" y2="48.4673" gradientUnits="userSpaceOnUse">
<stop stopColor="#D275F7"/>
<stop offset="1" stopColor="#7A87F7"/>
</linearGradient>
<linearGradient id="paint7_linear_7793_73415" x1="50.9334" y1="52.3857" x2="57.5165" y2="60.7929" gradientUnits="userSpaceOnUse">
<stop stopColor="#7A87F7"/>
<stop offset="1" stopColor="#D275F7"/>
</linearGradient>
</defs>
</svg>
