<svg width="15" height="14" viewBox="0 0 15 14" fill="none" xmlns="http://www.w3.org/2000/svg">
<path d="M7.46932 0.083374C3.81065 0.083374 0.833984 3.07404 0.833984 6.75004C0.833984 10.426 3.82465 13.4167 7.50065 13.4167C11.1766 13.4167 14.1673 10.426 14.1673 6.75004C14.1673 3.07404 11.1626 0.083374 7.46932 0.083374ZM7.50065 12.0834C4.55998 12.0834 2.16732 9.69071 2.16732 6.75004C2.16732 3.80937 4.54532 1.41671 7.46932 1.41671C10.428 1.41671 12.834 3.80937 12.834 6.75004C12.834 9.69071 10.4413 12.0834 7.50065 12.0834Z" fill="#5C5B63"/>
<path d="M6.83398 3.41671H8.16732V8.08337H6.83398V3.41671ZM6.83398 8.75004H8.16732V10.0834H6.83398V8.75004Z" fill="#5C5B63"/>
</svg>
