<svg width="16" height="17" viewBox="0 0 16 17" fill="none" xmlns="http://www.w3.org/2000/svg">
<path d="M1.26563 9.57284C1.26534 9.97476 1.34447 10.3728 1.49848 10.744C1.65249 11.1153 1.87834 11.4524 2.16305 11.7361C2.44682 12.0209 2.78403 12.2468 3.15534 12.4008C3.52665 12.5549 3.92474 12.6341 4.32674 12.634L6.77573 12.6335V11.4093L4.32674 11.4097C3.83992 11.4086 3.37334 11.2147 3.0291 10.8705C2.68487 10.5262 2.49099 10.0597 2.4899 9.57284C2.49067 9.08592 2.68444 8.61915 3.02875 8.27484C3.37306 7.93053 3.83982 7.73676 4.32674 7.73599L6.77573 7.73643V6.51215L4.32674 6.51172C3.51519 6.5127 2.73715 6.83552 2.16329 7.40938C1.58943 7.98324 1.26661 8.76128 1.26563 9.57284ZM11.6733 12.634C12.4847 12.6327 13.2626 12.3097 13.8364 11.7359C14.4101 11.1622 14.7331 10.3843 14.7344 9.57284C14.7334 8.76128 14.4106 7.98324 13.8367 7.40938C13.2629 6.83552 12.4848 6.5127 11.6733 6.51172L9.22427 6.51215V7.73643L11.6733 7.736C12.1601 7.73709 12.6267 7.93096 12.9709 8.2752C13.3151 8.61944 13.509 9.08601 13.5101 9.57284C13.5093 10.0598 13.3156 10.5265 12.9713 10.8708C12.6269 11.2151 12.1602 11.4089 11.6733 11.4097L9.22427 11.4093V12.6335L11.6733 12.634Z" fill="#5C5B63"/>
<path d="M4.3266 10.1856L4.32617 8.96094L11.674 8.96137L11.6735 10.1861L4.3266 10.1856Z" fill="#5C5B63"/>
</svg>
