<svg width="32" height="33" viewBox="0 0 32 33" fill="none" xmlns="http://www.w3.org/2000/svg">
<path d="M32 16.4219C32 7.58532 24.8366 0.421875 16 0.421875C7.16344 0.421875 0 7.58532 0 16.4219C0 25.2584 7.16344 32.4219 16 32.4219C24.8366 32.4219 32 25.2584 32 16.4219Z" fill="url(#paint0_radial_6778_25732)"/>
<path d="M10.5752 11.9551C13.5711 9.0219 18.4282 9.0219 21.424 11.9551L21.7846 12.3081C21.9344 12.4547 21.9344 12.6925 21.7846 12.8392L20.5512 14.0467C20.4763 14.1201 20.3549 14.1201 20.28 14.0467L19.7838 13.5609C17.6939 11.5147 14.3054 11.5147 12.2155 13.5609L11.6841 14.0812C11.6092 14.1545 11.4878 14.1545 11.4129 14.0812L10.1795 12.8736C10.0297 12.7269 10.0297 12.4892 10.1795 12.3425L10.5752 11.9551ZM23.9748 14.4524L25.0725 15.5272C25.2223 15.6738 25.2223 15.9116 25.0725 16.0583L20.1229 20.9045C19.9731 21.0511 19.7302 21.0511 19.5804 20.9045C19.5804 20.9045 19.5804 20.9045 19.5804 20.9045L16.0675 17.465C16.03 17.4283 15.9693 17.4283 15.9319 17.465C15.9319 17.465 15.9319 17.465 15.9319 17.465L12.419 20.9045C12.2692 21.0511 12.0264 21.0511 11.8766 20.9045C11.8766 20.9045 11.8766 20.9045 11.8766 20.9045L6.9268 16.0582C6.77701 15.9116 6.77701 15.6738 6.9268 15.5271L8.0245 14.4524C8.17429 14.3057 8.41715 14.3057 8.56694 14.4524L12.0799 17.8919C12.1174 17.9286 12.1781 17.9286 12.2155 17.8919C12.2155 17.8919 12.2155 17.8919 12.2155 17.8919L15.7284 14.4524C15.8781 14.3057 16.121 14.3057 16.2708 14.4524C16.2708 14.4524 16.2708 14.4524 16.2708 14.4524L19.7838 17.8919C19.8212 17.9286 19.882 17.9286 19.9194 17.8919L23.4323 14.4524C23.5821 14.3058 23.825 14.3058 23.9748 14.4524Z" fill="white"/>
<defs>
<radialGradient id="paint0_radial_6778_25732" cx="0" cy="0" r="1" gradientUnits="userSpaceOnUse" gradientTransform="translate(0 16.4219) scale(32)">
<stop stopColor="#5D9DF6"/>
<stop offset="1" stopColor="#006FFF"/>
</radialGradient>
</defs>
</svg>
