<svg width="100" height="100" viewBox="0 0 100 100" fill="none" xmlns="http://www.w3.org/2000/svg">
<g clip-path="url(#clip0_7793_73317)">
<path d="M49.9998 -0.22583C77.5971 -0.22583 99.9996 22.1767 99.9996 49.774C99.9996 77.3713 77.5971 99.7738 49.9998 99.7738C22.4025 99.7738 0 77.3601 0 49.774C0 22.1767 22.4137 -0.22583 49.9998 -0.22583Z" fill="white"/>
<path fillRule="evenodd" clipRule="evenodd" d="M14.635 14.4124C34.1583 -5.11023 65.8438 -5.10023 85.3571 14.4124C104.88 33.935 104.88 65.6192 85.3571 85.1318C65.8438 104.654 34.1583 104.654 14.635 85.1318C-4.87833 65.6192 -4.87833 33.925 14.635 14.4124ZM96.1208 49.8926C96.1208 24.5295 75.5311 3.94061 50.167 3.94061C24.8132 3.94061 4.21323 24.5295 4.21323 49.8926C4.21323 75.2455 24.8029 95.8447 50.167 95.8447C75.5311 95.8447 96.1208 75.2558 96.1208 49.8926Z" fill="url(#paint0_linear_7793_73317)"/>
<path fillRule="evenodd" clipRule="evenodd" d="M52.0723 72.2171C52.1214 72.1268 52.2134 72.0679 52.316 72.0611C52.4186 72.0542 52.5176 72.1005 52.5782 72.1835C53.6587 73.664 57.5501 78.9958 58.5151 80.318C58.5684 80.391 58.5859 80.4841 58.5628 80.5714C58.5398 80.6588 58.4786 80.7311 58.3963 80.7683C56.5316 81.6104 47.4513 85.7112 44.6672 86.9686C44.5498 87.0216 44.4116 86.9937 44.3239 86.8993C44.2362 86.8049 44.2186 86.6651 44.2801 86.5519C45.8008 83.7544 50.9307 74.3173 52.0723 72.2171Z" fill="url(#paint1_linear_7793_73317)"/>
<path fillRule="evenodd" clipRule="evenodd" d="M57.1587 62.9869C57.1613 63.0879 57.1902 63.1881 57.2442 63.2775C58.2358 64.9167 63.0658 72.9018 64.1358 74.6707C64.1851 74.7522 64.2701 74.8054 64.3649 74.8142C64.4597 74.823 64.553 74.7862 64.6164 74.7152C66.0892 73.0646 73.1208 65.1844 74.247 63.9223C74.2928 63.871 74.329 63.8126 74.3536 63.7496L57.1587 62.9869Z" fill="url(#paint2_linear_7793_73317)"/>
<path fillRule="evenodd" clipRule="evenodd" d="M57.1587 62.9869L74.3536 63.7496C74.3839 63.6785 74.3993 63.6014 74.3993 63.5228C74.3993 60.9705 74.3993 37.8161 74.3993 32.2918C74.3993 32.1546 74.3062 32.0349 74.1732 32.0011C74.0403 31.9673 73.9013 32.028 73.8358 32.1485C71.047 37.2761 58.7948 59.804 57.2305 62.6803C57.1786 62.7758 57.1545 62.8818 57.1587 62.9869Z" fill="url(#paint3_linear_7793_73317)"/>
<path fillRule="evenodd" clipRule="evenodd" d="M34.5708 62.1359L37.6547 79.269C37.6772 79.3943 37.7763 79.4916 37.9019 79.512C38.0275 79.5324 38.1523 79.4713 38.2133 79.3596C39.828 76.4009 45.7381 65.5719 46.8118 63.6046C46.8656 63.5059 46.8897 63.3962 46.8829 63.2878L34.5708 62.1359Z" fill="url(#paint4_linear_7793_73317)"/>
<path fillRule="evenodd" clipRule="evenodd" d="M34.5706 62.1358L46.8827 63.2877C46.8793 63.1872 46.8491 63.0878 46.7939 62.9994C45.203 60.4497 33.8417 42.2419 30.66 37.1428C30.5838 37.0208 30.4318 36.9699 30.2975 37.0217C30.1633 37.0734 30.0847 37.2132 30.1102 37.3548L34.5706 62.1358Z" fill="url(#paint5_linear_7793_73317)"/>
<path fillRule="evenodd" clipRule="evenodd" d="M65.3187 29.1241L65.3199 29.1262C65.3948 29.2963 65.3865 29.4916 65.2976 29.6548C63.3646 33.2028 54.4664 49.5353 52.268 53.5704C52.1659 53.7578 51.972 53.877 51.7587 53.8832C51.5453 53.8894 51.3448 53.7818 51.2319 53.6007L42.2075 39.1175L65.3187 29.1241Z" fill="url(#paint6_linear_7793_73317)"/>
<path fillRule="evenodd" clipRule="evenodd" d="M42.2075 39.1175L31.0923 21.2786C30.9846 21.1058 30.9925 20.8849 31.1121 20.7202C31.2318 20.5555 31.4394 20.4798 31.637 20.5289C37.1971 21.9084 60.4229 27.6708 64.9152 28.7854C65.0948 28.83 65.2438 28.9549 65.3187 29.1241L42.2075 39.1175Z" fill="url(#paint7_linear_7793_73317)"/>
</g>
<defs>
<linearGradient id="paint0_linear_7793_73317" x1="14.6376" y1="14.4166" x2="85.3606" y2="85.1423" gradientUnits="userSpaceOnUse">
<stop stopColor="#05E8FC"/>
<stop offset="1" stopColor="#FE0291"/>
</linearGradient>
<linearGradient id="paint1_linear_7793_73317" x1="49.3188" y1="80.545" x2="74.4124" y2="55.5993" gradientUnits="userSpaceOnUse">
<stop stopColor="#D77CD4"/>
<stop offset="1" stopColor="#0EF0FE"/>
</linearGradient>
<linearGradient id="paint2_linear_7793_73317" x1="58.613" y1="80.0482" x2="68.0499" y2="63.4615" gradientUnits="userSpaceOnUse">
<stop stopColor="#D77CD4"/>
<stop offset="1" stopColor="#AADFEF"/>
</linearGradient>
<linearGradient id="paint3_linear_7793_73317" x1="77.191" y1="44.1796" x2="63.1955" y2="60.7605" gradientUnits="userSpaceOnUse">
<stop stopColor="#D77CD4"/>
<stop offset="1" stopColor="#7A87F7"/>
</linearGradient>
<linearGradient id="paint4_linear_7793_73317" x1="41.4338" y1="63.6507" x2="37.4104" y2="77.5299" gradientUnits="userSpaceOnUse">
<stop stopColor="#D77CD4"/>
<stop offset="1" stopColor="#FAE18F"/>
</linearGradient>
<linearGradient id="paint5_linear_7793_73317" x1="32.5638" y1="50.3374" x2="44.1379" y2="68.2217" gradientUnits="userSpaceOnUse">
<stop stopColor="#D77CD4"/>
<stop offset="1" stopColor="#7A87F7"/>
</linearGradient>
<linearGradient id="paint6_linear_7793_73317" x1="53.918" y1="33.977" x2="53.5687" y2="46.8277" gradientUnits="userSpaceOnUse">
<stop stopColor="#7A87F7"/>
<stop offset="1" stopColor="#D77CD4"/>
</linearGradient>
<linearGradient id="paint7_linear_7793_73317" x1="44.1861" y1="27.8559" x2="60.7347" y2="37.7114" gradientUnits="userSpaceOnUse">
<stop stopColor="#AADFEF"/>
<stop offset="1" stopColor="#D77CD4"/>
</linearGradient>
<clipPath id="clip0_7793_73317">
<rect width="100" height="100" fill="white"/>
</clipPath>
</defs>
</svg>
