<svg width="100" height="100" viewBox="0 0 100 100" fill="none" xmlns="http://www.w3.org/2000/svg">
<g clip-path="url(#clip0_7793_72994)">
<path d="M49.9998 -0.22583C77.5971 -0.22583 99.9996 22.1767 99.9996 49.774C99.9996 77.3713 77.5971 99.7738 49.9998 99.7738C22.4025 99.7738 0 77.3601 0 49.774C0 22.1767 22.4137 -0.22583 49.9998 -0.22583Z" fill="white"/>
<path fillRule="evenodd" clipRule="evenodd" d="M52.0723 72.2172C52.1214 72.1269 52.2134 72.068 52.316 72.0612C52.4186 72.0543 52.5176 72.1006 52.5782 72.1836C53.6587 73.6641 57.5501 78.9959 58.5151 80.3181C58.5684 80.3911 58.5859 80.4842 58.5628 80.5715C58.5398 80.6589 58.4786 80.7312 58.3963 80.7684C56.5316 81.6105 47.4513 85.7113 44.6672 86.9687C44.5498 87.0217 44.4116 86.9938 44.3239 86.8994C44.2362 86.805 44.2186 86.6652 44.2801 86.552C45.8008 83.7545 50.9307 74.3174 52.0723 72.2172Z" fill="url(#paint0_linear_7793_72994)"/>
<path fillRule="evenodd" clipRule="evenodd" d="M57.1587 62.9868C57.1613 63.0878 57.1902 63.188 57.2442 63.2774C58.2358 64.9166 63.0658 72.9017 64.1358 74.6706C64.1851 74.7521 64.2701 74.8053 64.3649 74.8141C64.4597 74.8229 64.553 74.7861 64.6164 74.7151C66.0892 73.0645 73.1208 65.1843 74.247 63.9222C74.2928 63.8709 74.329 63.8125 74.3536 63.7495L57.1587 62.9868Z" fill="url(#paint1_linear_7793_72994)"/>
<path fillRule="evenodd" clipRule="evenodd" d="M57.1587 62.987L74.3536 63.7497C74.3839 63.6786 74.3993 63.6015 74.3993 63.5229C74.3993 60.9706 74.3993 37.8162 74.3993 32.2919C74.3993 32.1547 74.3062 32.035 74.1732 32.0012C74.0403 31.9674 73.9013 32.0281 73.8358 32.1486C71.047 37.2762 58.7948 59.8041 57.2305 62.6804C57.1786 62.7759 57.1545 62.8819 57.1587 62.987Z" fill="url(#paint2_linear_7793_72994)"/>
<path fillRule="evenodd" clipRule="evenodd" d="M34.5708 62.1357L37.6547 79.2688C37.6772 79.3941 37.7763 79.4914 37.9019 79.5118C38.0275 79.5322 38.1523 79.4711 38.2133 79.3594C39.828 76.4007 45.7381 65.5717 46.8118 63.6044C46.8656 63.5057 46.8897 63.396 46.8829 63.2876L34.5708 62.1357Z" fill="url(#paint3_linear_7793_72994)"/>
<path fillRule="evenodd" clipRule="evenodd" d="M34.5706 62.1359L46.8827 63.2878C46.8793 63.1873 46.8491 63.0879 46.7939 62.9995C45.203 60.4498 33.8417 42.242 30.66 37.1429C30.5838 37.0209 30.4318 36.97 30.2975 37.0218C30.1633 37.0735 30.0847 37.2133 30.1102 37.3549L34.5706 62.1359Z" fill="url(#paint4_linear_7793_72994)"/>
<path fillRule="evenodd" clipRule="evenodd" d="M65.3187 29.124L65.3199 29.1261C65.3948 29.2962 65.3865 29.4915 65.2976 29.6547C63.3646 33.2027 54.4664 49.5352 52.268 53.5703C52.1659 53.7577 51.972 53.8768 51.7587 53.883C51.5453 53.8892 51.3448 53.7817 51.2319 53.6006L42.2075 39.1174L65.3187 29.124Z" fill="url(#paint5_linear_7793_72994)"/>
<path fillRule="evenodd" clipRule="evenodd" d="M42.2075 39.1175L31.0923 21.2786C30.9846 21.1058 30.9925 20.8849 31.1121 20.7202C31.2318 20.5555 31.4394 20.4798 31.637 20.5289C37.1971 21.9084 60.4229 27.6708 64.9152 28.7854C65.0948 28.83 65.2438 28.9549 65.3187 29.1241L42.2075 39.1175Z" fill="url(#paint6_linear_7793_72994)"/>
</g>
<defs>
<linearGradient id="paint0_linear_7793_72994" x1="49.3188" y1="80.5451" x2="74.4124" y2="55.5994" gradientUnits="userSpaceOnUse">
<stop stopColor="#D77CD4"/>
<stop offset="1" stopColor="#0EF0FE"/>
</linearGradient>
<linearGradient id="paint1_linear_7793_72994" x1="58.613" y1="80.0481" x2="68.0499" y2="63.4614" gradientUnits="userSpaceOnUse">
<stop stopColor="#D77CD4"/>
<stop offset="1" stopColor="#AADFEF"/>
</linearGradient>
<linearGradient id="paint2_linear_7793_72994" x1="77.191" y1="44.1797" x2="63.1955" y2="60.7606" gradientUnits="userSpaceOnUse">
<stop stopColor="#D77CD4"/>
<stop offset="1" stopColor="#7A87F7"/>
</linearGradient>
<linearGradient id="paint3_linear_7793_72994" x1="41.4338" y1="63.6505" x2="37.4104" y2="77.5297" gradientUnits="userSpaceOnUse">
<stop stopColor="#D77CD4"/>
<stop offset="1" stopColor="#FAE18F"/>
</linearGradient>
<linearGradient id="paint4_linear_7793_72994" x1="32.5638" y1="50.3375" x2="44.1379" y2="68.2218" gradientUnits="userSpaceOnUse">
<stop stopColor="#D77CD4"/>
<stop offset="1" stopColor="#7A87F7"/>
</linearGradient>
<linearGradient id="paint5_linear_7793_72994" x1="53.918" y1="33.9769" x2="53.5687" y2="46.8276" gradientUnits="userSpaceOnUse">
<stop stopColor="#7A87F7"/>
<stop offset="1" stopColor="#D77CD4"/>
</linearGradient>
<linearGradient id="paint6_linear_7793_72994" x1="44.1861" y1="27.8559" x2="60.7347" y2="37.7114" gradientUnits="userSpaceOnUse">
<stop stopColor="#AADFEF"/>
<stop offset="1" stopColor="#D77CD4"/>
</linearGradient>
<clipPath id="clip0_7793_72994">
<rect width="100" height="100" fill="white"/>
</clipPath>
</defs>
</svg>
