<svg width="32" height="33" viewBox="0 0 32 33" fill="none" xmlns="http://www.w3.org/2000/svg">
<path d="M15.9999 0.263672C24.8311 0.263672 31.9999 7.43248 31.9999 16.2636C31.9999 25.0947 24.8311 32.2635 15.9999 32.2635C7.1688 32.2635 0 25.0912 0 16.2636C0 7.43248 7.17239 0.263672 15.9999 0.263672Z" fill="white"/>
<path fillRule="evenodd" clipRule="evenodd" d="M4.6832 4.9479C10.9307 -1.29934 21.07 -1.29614 27.3143 4.9479C33.5617 11.1951 33.5617 21.3341 27.3143 27.5781C21.07 33.8254 10.9307 33.8254 4.6832 27.5781C-1.56107 21.3341 -1.56107 11.1919 4.6832 4.9479ZM30.7586 16.3016C30.7586 8.18538 24.1699 1.59693 16.0534 1.59693C7.94022 1.59693 1.34823 8.18538 1.34823 16.3016C1.34823 24.4145 7.93693 31.0062 16.0534 31.0062C24.1699 31.0062 30.7586 24.4178 30.7586 16.3016Z" fill="url(#paint0_linear_7492_24309)"/>
<path fillRule="evenodd" clipRule="evenodd" d="M11.0156 20.4238L12.0147 25.9727C12.0223 26.015 12.0558 26.0478 12.0982 26.0547C12.1405 26.0615 12.1826 26.0408 12.2031 26.0031C12.7254 25.0423 14.5765 21.6373 14.9615 20.9292C14.9841 20.8876 14.9941 20.8413 14.9905 20.7958L11.0156 20.4238Z" fill="url(#paint1_linear_7492_24309)"/>
<path fillRule="evenodd" clipRule="evenodd" d="M11.0165 20.4242L14.9914 20.7962L14.9546 20.6749C14.3797 19.7535 10.795 14.008 9.76123 12.3514C9.73556 12.3101 9.68421 12.2931 9.63894 12.3105C9.59366 12.328 9.56723 12.3751 9.57583 12.4228L11.0165 20.4242Z" fill="url(#paint2_linear_7492_24309)"/>
<path fillRule="evenodd" clipRule="evenodd" d="M19.4274 18.6367L15.4791 25.8976C15.4569 25.9384 15.4653 25.9891 15.4996 26.0205C15.534 26.0519 15.5852 26.0559 15.6239 26.0301C17.0988 25.0509 22.9135 21.1895 23.7979 20.6024L23.8787 20.5137L19.4274 18.6367Z" fill="url(#paint3_linear_7492_24309)"/>
<path fillRule="evenodd" clipRule="evenodd" d="M19.4277 18.6368L23.879 20.5138C23.9002 20.4772 23.9113 20.4351 23.9113 20.3918C23.9113 19.3427 23.9113 12.5189 23.9113 10.7897C23.9113 10.7434 23.8799 10.703 23.835 10.6917C23.7903 10.6801 23.7433 10.7006 23.7212 10.7414L19.4277 18.6368Z" fill="url(#paint4_linear_7492_24309)"/>
<path fillRule="evenodd" clipRule="evenodd" d="M20.9332 9.75293L20.9338 9.75382C20.9653 9.82552 20.9619 9.90785 20.9244 9.97665L16.6868 17.7592C16.6653 17.7986 16.6245 17.8238 16.5795 17.825C16.5345 17.8264 16.4922 17.8037 16.4684 17.7655L13.4844 12.9739L20.9332 9.75293Z" fill="url(#paint5_linear_7492_24309)"/>
<path fillRule="evenodd" clipRule="evenodd" d="M13.4848 12.9743L9.84139 7.12408C9.8142 7.08032 9.8161 7.02442 9.84645 6.98282C9.87668 6.94121 9.92916 6.92199 9.97924 6.93438C11.5874 7.3335 19.1188 9.20253 20.7636 9.61063C20.8394 9.62947 20.9021 9.68208 20.9336 9.75341L13.4848 12.9743Z" fill="url(#paint6_linear_7492_24309)"/>
<defs>
<linearGradient id="paint0_linear_7492_24309" x1="4.68403" y1="4.94924" x2="27.3154" y2="27.5815" gradientUnits="userSpaceOnUse">
<stop stopColor="#05E8FC"/>
<stop offset="1" stopColor="#FE0291"/>
</linearGradient>
<linearGradient id="paint1_linear_7492_24309" x1="13.2351" y1="20.9272" x2="11.936" y2="25.4137" gradientUnits="userSpaceOnUse">
<stop stopColor="#D275F7"/>
<stop offset="1" stopColor="#FA9D3E"/>
</linearGradient>
<linearGradient id="paint2_linear_7492_24309" x1="10.3678" y1="16.6123" x2="14.1053" y2="22.3906" gradientUnits="userSpaceOnUse">
<stop stopColor="#D275F7"/>
<stop offset="1" stopColor="#7A87F7"/>
</linearGradient>
<linearGradient id="paint3_linear_7492_24309" x1="16.7018" y1="26.2813" x2="23.8786" y2="18.2643" gradientUnits="userSpaceOnUse">
<stop stopColor="#D275F7"/>
<stop offset="1" stopColor="#0EF0FE"/>
</linearGradient>
<linearGradient id="paint4_linear_7492_24309" x1="24.8194" y1="14.6193" x2="21.3958" y2="18.529" gradientUnits="userSpaceOnUse">
<stop stopColor="#D275F7"/>
<stop offset="1" stopColor="#7A87F7"/>
</linearGradient>
<linearGradient id="paint5_linear_7492_24309" x1="17.2615" y1="11.3393" x2="17.1488" y2="15.5264" gradientUnits="userSpaceOnUse">
<stop stopColor="#7A87F7"/>
<stop offset="1" stopColor="#D275F7"/>
</linearGradient>
<linearGradient id="paint6_linear_7492_24309" x1="9.61369" y1="7.33722" x2="19.4487" y2="12.5188" gradientUnits="userSpaceOnUse">
<stop stopColor="#0EF0FE"/>
<stop offset="1" stopColor="#D275F7"/>
</linearGradient>
</defs>
</svg>
