<svg width="280" height="72" viewBox="0 0 280 72" fill="none" xmlns="http://www.w3.org/2000/svg">
<path d="M73.792 13.144C74.3822 13.144 74.8115 13.3587 75.0798 13.7879L89.4067 33.1588L103.841 13.7879C104.109 13.3587 104.539 13.144 105.129 13.144H112.158C112.426 13.144 112.641 13.2514 112.748 13.466C112.856 13.7343 112.802 13.9489 112.641 14.2172L93.3775 39.2223V49.5248C93.3775 50.3297 93.0019 50.7053 92.197 50.7053H86.4018C85.5969 50.7053 85.1677 50.3297 85.1677 49.5248V39.2223L66.1187 14.2172C65.9577 13.9489 65.9041 13.7343 66.0114 13.466C66.0651 13.2514 66.2797 13.144 66.6016 13.144H73.792Z" fill="black"/>
<path d="M152.449 13.144C153.254 13.144 153.629 13.5197 153.629 14.3245V19.4221C153.629 20.227 153.254 20.6026 152.449 20.6026H125.565C124.546 20.6026 123.795 20.8709 123.365 21.4075C122.936 21.9441 122.722 22.6953 122.722 23.6075V25.4319C122.722 27.4173 123.634 28.4368 125.512 28.4368H145.634C148.746 28.4368 151.107 29.2417 152.663 30.7978C154.219 32.4076 155.024 34.7149 155.024 37.6662V41.9589C155.024 44.5882 154.273 46.6809 152.717 48.2906C151.161 49.9004 148.8 50.7053 145.527 50.7053H115.8C114.995 50.7053 114.565 50.3297 114.565 49.5248V44.4272C114.565 43.6223 114.995 43.2467 115.8 43.2467H143.971C144.99 43.2467 145.741 42.9784 146.171 42.4418C146.6 41.9052 146.814 41.154 146.814 40.2418V38.0418C146.814 36.0564 145.902 35.0369 144.024 35.0369H123.902C120.79 35.0369 118.429 34.232 116.873 32.6222C115.317 31.0661 114.512 28.7588 114.512 25.8075V21.8904C114.512 19.2612 115.263 17.1685 116.819 15.5587C118.375 13.9489 120.736 13.144 124.009 13.144H152.449Z" fill="black"/>
<path d="M168.065 13.144C168.87 13.144 169.245 13.5197 169.245 14.3245V35.7344C169.245 37.1832 169.353 38.3637 169.621 39.2759C169.836 40.2418 170.211 40.993 170.748 41.5296C171.285 42.1199 172.036 42.4955 172.894 42.7101C173.86 42.9784 174.987 43.0857 176.382 43.0857H198.114C198.919 43.0857 199.295 43.4613 199.295 44.2662V49.5248C199.295 50.3297 198.919 50.7053 198.114 50.7053H176.06C173.324 50.7053 171.016 50.437 169.138 49.9541C167.26 49.4711 165.704 48.6126 164.523 47.5394C163.289 46.3589 162.431 44.9101 161.894 43.1394C161.304 41.315 161.036 39.115 161.036 36.5393V14.3245C161.036 13.5197 161.465 13.144 162.27 13.144H168.065Z" fill="black"/>
<path d="M210.396 43.1924C211.201 43.1924 211.577 43.568 211.577 44.3729V49.5241C211.577 50.329 211.201 50.7046 210.396 50.7046H205.137C204.333 50.7046 203.903 50.329 203.903 49.5241V44.3729C203.903 43.568 204.333 43.1924 205.137 43.1924H210.396Z" fill="black"/>
<path d="M264.967 13.144C267.704 13.144 270.011 13.4123 271.943 13.8953C273.821 14.4319 275.377 15.2367 276.611 16.3636C277.792 17.4904 278.651 18.9929 279.187 20.7636C279.724 22.5343 279.992 24.7344 279.992 27.31V36.5393C279.992 39.115 279.724 41.315 279.187 43.1394C278.651 44.9101 277.792 46.3589 276.611 47.5394C275.377 48.6126 273.821 49.4711 271.943 49.9541C270.011 50.437 267.704 50.7053 264.967 50.7053H248.387C245.65 50.7053 243.343 50.437 241.465 49.9541C239.587 49.4711 238.031 48.6126 236.85 47.5394C235.616 46.3589 234.757 44.9101 234.221 43.1394C233.631 41.315 233.362 39.115 233.362 36.5393V27.31C233.362 24.7344 233.631 22.5343 234.221 20.7636C234.757 18.9929 235.616 17.4904 236.85 16.3636C238.031 15.2367 239.587 14.4319 241.465 13.8953C243.343 13.4123 245.65 13.144 248.387 13.144H264.967ZM241.572 35.9491C241.572 37.3442 241.679 38.5247 241.948 39.4369C242.162 40.4028 242.538 41.154 243.075 41.6906C243.611 42.2808 244.362 42.6564 245.275 42.8711C246.187 43.1394 247.314 43.2467 248.709 43.2467H264.646C266.041 43.2467 267.221 43.1394 268.133 42.8711C269.046 42.6564 269.743 42.2808 270.28 41.6906C270.816 41.154 271.192 40.4028 271.46 39.4369C271.675 38.5247 271.782 37.3442 271.782 35.9491V27.9002C271.782 26.5051 271.675 25.3246 271.46 24.3588C271.192 23.4466 270.816 22.6953 270.28 22.1051C269.743 21.5685 269.046 21.1929 268.133 20.9246C267.221 20.7099 266.041 20.6026 264.646 20.6026H248.709C247.314 20.6026 246.187 20.7099 245.275 20.9246C244.362 21.1929 243.611 21.5685 243.075 22.1051C242.538 22.6953 242.162 23.4466 241.948 24.3588C241.679 25.3246 241.572 26.5051 241.572 27.9002V35.9491Z" fill="black"/>
<path fillRule="evenodd" clipRule="evenodd" d="M226.66 49.5194C226.66 50.3183 226.266 50.7179 225.478 50.7179H219.683C218.86 50.7179 218.45 50.3183 218.45 49.5194V26.6718C218.45 25.8729 218.86 25.4733 219.683 25.4733H225.478C226.266 25.4733 226.66 25.8729 226.66 26.6718V49.5194ZM218.45 14.3159C218.45 13.5436 218.86 13.144 219.683 13.144H225.478C226.266 13.144 226.66 13.5436 226.66 14.3159V20.1742C226.66 20.973 226.266 21.346 225.478 21.346H219.683C218.86 21.346 218.45 20.973 218.45 20.1742V14.3159Z" fill="black"/>
<path fillRule="evenodd" clipRule="evenodd" d="M5.4375 50.7979L9.19863 71.6874C9.22719 71.8464 9.35336 71.9702 9.51285 71.9959C9.67234 72.0216 9.83088 71.9435 9.908 71.8017C11.8743 68.1848 18.8428 55.366 20.292 52.7004C20.3773 52.5437 20.4149 52.3695 20.4016 52.1981L5.4375 50.7979Z" fill="url(#paint0_linear_7456_54193)"/>
<path fillRule="evenodd" clipRule="evenodd" d="M5.43802 50.7982L20.4021 52.1984L20.2635 51.7418C18.0992 48.273 4.6039 26.6436 0.712328 20.4068C0.615681 20.2516 0.42239 20.1874 0.251949 20.2531C0.0815084 20.3188 -0.0179951 20.4963 0.0143792 20.6758L5.43802 50.7982Z" fill="url(#paint1_linear_7456_54193)"/>
<path fillRule="evenodd" clipRule="evenodd" d="M37.1053 44.0701L22.2418 71.4045C22.158 71.5583 22.1899 71.7492 22.3189 71.8672C22.4484 71.9853 22.6412 72.0006 22.7869 71.9034C28.3391 68.217 50.2293 53.6805 53.5586 51.47L53.8628 51.1363L37.1053 44.0701Z" fill="url(#paint2_linear_7456_54193)"/>
<path fillRule="evenodd" clipRule="evenodd" d="M37.1055 44.0716L53.863 51.1378C53.9425 51.0002 53.9844 50.8417 53.9844 50.6784C53.9844 46.7292 53.9844 21.0402 53.9844 14.5301C53.9844 14.3559 53.8663 14.204 53.6973 14.1611C53.5288 14.1178 53.3521 14.1949 53.2688 14.3482L37.1055 44.0716Z" fill="url(#paint3_linear_7456_54193)"/>
<path fillRule="evenodd" clipRule="evenodd" d="M42.7728 10.6272L42.7752 10.6305C42.8937 10.9005 42.8809 11.2104 42.7399 11.4694L26.787 40.7676C26.7061 40.9162 26.5523 41.0109 26.3828 41.0157C26.2133 41.0209 26.0543 40.9352 25.9648 40.7914L14.731 22.7528L42.7728 10.6272Z" fill="url(#paint4_linear_7456_54193)"/>
<path fillRule="evenodd" clipRule="evenodd" d="M14.7316 22.7522L1.01537 0.728129C0.913007 0.563401 0.920149 0.352968 1.03441 0.196334C1.1482 0.0396995 1.34577 -0.0326662 1.53431 0.0139908C7.58829 1.51654 35.9415 8.55271 42.1335 10.0891C42.4187 10.16 42.6549 10.358 42.7734 10.6266L14.7316 22.7522Z" fill="url(#paint5_linear_7456_54193)"/>
<defs>
<linearGradient id="paint0_linear_7456_54193" x1="13.7929" y1="52.6928" x2="8.90226" y2="69.583" gradientUnits="userSpaceOnUse">
<stop stopColor="#D275F7"/>
<stop offset="1" stopColor="#FA9D3E"/>
</linearGradient>
<linearGradient id="paint1_linear_7456_54193" x1="2.99571" y1="36.4478" x2="17.066" y2="58.2006" gradientUnits="userSpaceOnUse">
<stop stopColor="#D275F7"/>
<stop offset="1" stopColor="#7A87F7"/>
</linearGradient>
<linearGradient id="paint2_linear_7456_54193" x1="26.8446" y1="72.8489" x2="53.8625" y2="42.6681" gradientUnits="userSpaceOnUse">
<stop stopColor="#D275F7"/>
<stop offset="1" stopColor="#0EF0FE"/>
</linearGradient>
<linearGradient id="paint3_linear_7456_54193" x1="57.4032" y1="28.9471" x2="44.5146" y2="43.6657" gradientUnits="userSpaceOnUse">
<stop stopColor="#D275F7"/>
<stop offset="1" stopColor="#7A87F7"/>
</linearGradient>
<linearGradient id="paint4_linear_7456_54193" x1="28.9504" y1="16.5994" x2="28.5261" y2="32.3622" gradientUnits="userSpaceOnUse">
<stop stopColor="#7A87F7"/>
<stop offset="1" stopColor="#D275F7"/>
</linearGradient>
<linearGradient id="paint5_linear_7456_54193" x1="0.158164" y1="1.53053" x2="37.1832" y2="21.0372" gradientUnits="userSpaceOnUse">
<stop stopColor="#0EF0FE"/>
<stop offset="1" stopColor="#D275F7"/>
</linearGradient>
</defs>
</svg>
